SplineFontDB: 3.2
FontName: Atari-825-Condensed-UL
FullName: Atari 825 Condensed UL Regular
FamilyName: Atari 825 Condensed UL
Weight: Book
Copyright: Copyright jeffpiep 2020\n"Atari 825 Condensed, which is based on "Atari 825 Regular
Version: 1.0
ItalicAngle: 0
UnderlinePosition: 74.707
UnderlineWidth: 49.8047
Ascent: 800
Descent: 200
InvalidEm: 0
sfntRevision: 0x00010000
LayerCount: 2
Layer: 0 1 "Back" 1
Layer: 1 1 "Fore" 0
XUID: [1021 991 -801047843 31684]
StyleMap: 0x0040
FSType: 4
OS2Version: 2
OS2_WeightWidthSlopeOnly: 0
OS2_UseTypoMetrics: 0
CreationTime: 1592073535
ModificationTime: 1592076336
PfmFamily: 81
TTFWeight: 400
TTFWidth: 5
LineGap: 0
VLineGap: 0
Panose: 0 0 4 0 0 0 0 0 0 0
OS2TypoAscent: 800
OS2TypoAOffset: 0
OS2TypoDescent: -200
OS2TypoDOffset: 0
OS2TypoLinegap: 0
OS2WinAscent: 800
OS2WinAOffset: 0
OS2WinDescent: 200
OS2WinDOffset: 0
HheadAscent: 800
HheadAOffset: 0
HheadDescent: -200
HheadDOffset: 0
OS2SubXSize: 500
OS2SubYSize: 500
OS2SubXOff: 0
OS2SubYOff: -100
OS2SupXSize: 500
OS2SupYSize: 500
OS2SupXOff: 0
OS2SupYOff: 500
OS2StrikeYSize: 50
OS2StrikeYPos: 200
OS2CapHeight: 910
OS2XHeight: 710
OS2Vendor: 'FSTR'
OS2CodePages: 00000001.00000000
OS2UnicodeRanges: 80000001.00000000.00000000.00000000
MarkAttachClasses: 1
DEI: 91125
ShortTable: maxp 16
  1
  0
  102
  403
  19
  0
  0
  2
  0
  0
  0
  0
  0
  0
  0
  0
EndShort
LangName: 1033 "Copyright jeffpiep 2020+AAogHAAA-Atari 825 Condensed, which is based on +IBwA-Atari 825 Regular" "" "Regular" "Atari 825 Condensed UL" "" "Version 1.0" "" "FontStruct is a trademark of FontStruct.com" "https://fontstruct.com" "jeffpiep" "+IBwA-Atari 825 Condensed UL+IB0A was built with FontStruct+AAogHAAA-Atari 825 Condensed, which is based on +IBwA-Atari 825 Regular" "https://fontstruct.com/fontstructions/show/1773509/atari-825-10-cpi-normal-1-3" "https://fontstruct.com/fontstructors/show/1011029/jeffpiep" "Open Font License" "" "" "" "" "" "Five big quacking zephyrs jolt my wax bed"
Encoding: win

StartChar: space
Encoding: 32 32 0
Width: 360
VWidth: 833
Flags: W
LayerCount: 2
Fore
SplineSet
40 -167 m 1,0,1
 23 -167 23 -167 11 -153 c 0,2,3
 0 -140 0 -140 0 -121 c 0,4,5
 0 -103 0 -103 11 -88 c 0,6,7
 23 -75 23 -75 40 -75 c 256,8,9
 57 -75 57 -75 68 -88 c 256,10,11
 80 -101 80 -101 80 -121 c 0,12,13
 80 -140 80 -140 68 -153 c 256,14,15
 56 -166 56 -166 40 -167 c 1,16,-1
 40 -167 l 1,0,1
120 -167 m 1,17,18
 103 -167 103 -167 91 -153 c 256,19,20
 79.9230769231 -141 79.9230769231 -141 79.9230769231 -123.887573964 c 0,21,22
 79.9230769231 -103.104895105 79.9230769231 -103.104895105 91 -88 c 256,23,24
 103 -75 103 -75 120 -75 c 128,-1,25
 137 -75 137 -75 148 -88 c 256,26,27
 160 -101 160 -101 160 -121 c 0,28,29
 160 -140 160 -140 148 -153 c 256,30,31
 136 -166 136 -166 120 -167 c 1,32,-1
 120 -167 l 1,17,18
200 -167 m 1,33,34
 183 -167 183 -167 171 -153 c 256,35,36
 159.923076923 -141 159.923076923 -141 159.923076923 -123.887573964 c 0,37,38
 159.923076923 -103.104895105 159.923076923 -103.104895105 171 -88 c 256,39,40
 183 -75 183 -75 200 -75 c 128,-1,41
 217 -75 217 -75 228 -88 c 256,42,43
 240 -101 240 -101 240 -121 c 0,44,45
 240 -140 240 -140 228 -153 c 256,46,47
 216 -166 216 -166 200 -167 c 1,48,-1
 200 -167 l 1,33,34
280 -167 m 1,49,50
 263 -167 263 -167 251 -153 c 256,51,52
 239.923076923 -141 239.923076923 -141 239.923076923 -123.887573964 c 0,53,54
 239.923076923 -103.104895105 239.923076923 -103.104895105 251 -88 c 256,55,56
 263 -75 263 -75 280 -75 c 128,-1,57
 297 -75 297 -75 308 -88 c 256,58,59
 320 -101 320 -101 320 -121 c 0,60,61
 320 -140 320 -140 308 -153 c 256,62,63
 296 -166 296 -166 280 -167 c 1,64,-1
 280 -167 l 1,49,50
360 -167 m 1,65,66
 343 -167 343 -167 332 -153 c 256,67,68
 320 -140 320 -140 320 -121 c 0,69,70
 320 -103 320 -103 332 -88 c 256,71,72
 344 -75 344 -75 360 -75 c 256,73,74
 377 -75 377 -75 388 -88 c 0,75,76
 400 -101 400 -101 400 -121 c 0,77,78
 400 -140 400 -140 388 -153 c 128,-1,79
 376 -166 376 -166 360 -167 c 1,80,-1
 360 -167 l 1,65,66
EndSplineSet
Validated: 524293
EndChar

StartChar: exclam
Encoding: 33 33 1
Width: 360
VWidth: 833
Flags: W
LayerCount: 2
Fore
SplineSet
40 -167 m 1,0,1
 23 -167 23 -167 11 -153 c 0,2,3
 0 -140 0 -140 0 -121 c 0,4,5
 0 -103 0 -103 11 -88 c 0,6,7
 23 -75 23 -75 40 -75 c 256,8,9
 57 -75 57 -75 68 -88 c 256,10,11
 80 -101 80 -101 80 -121 c 0,12,13
 80 -140 80 -140 68 -153 c 256,14,15
 56 -166 56 -166 40 -167 c 1,16,-1
 40 -167 l 1,0,1
120 -167 m 1,17,18
 103 -167 103 -167 91 -153 c 256,19,20
 79.9230769231 -141 79.9230769231 -141 79.9230769231 -123.887573964 c 0,21,22
 79.9230769231 -103.104895105 79.9230769231 -103.104895105 91 -88 c 256,23,24
 103 -75 103 -75 120 -75 c 128,-1,25
 137 -75 137 -75 148 -88 c 256,26,27
 160 -101 160 -101 160 -121 c 0,28,29
 160 -140 160 -140 148 -153 c 256,30,31
 136 -166 136 -166 120 -167 c 1,32,-1
 120 -167 l 1,17,18
200 -167 m 1,33,34
 183 -167 183 -167 171 -153 c 256,35,36
 159.923076923 -141 159.923076923 -141 159.923076923 -123.887573964 c 0,37,38
 159.923076923 -103.104895105 159.923076923 -103.104895105 171 -88 c 256,39,40
 183 -75 183 -75 200 -75 c 128,-1,41
 217 -75 217 -75 228 -88 c 256,42,43
 240 -101 240 -101 240 -121 c 0,44,45
 240 -140 240 -140 228 -153 c 256,46,47
 216 -166 216 -166 200 -167 c 1,48,-1
 200 -167 l 1,33,34
280 -167 m 1,49,50
 263 -167 263 -167 251 -153 c 256,51,52
 239.923076923 -141 239.923076923 -141 239.923076923 -123.887573964 c 0,53,54
 239.923076923 -103.104895105 239.923076923 -103.104895105 251 -88 c 256,55,56
 263 -75 263 -75 280 -75 c 128,-1,57
 297 -75 297 -75 308 -88 c 256,58,59
 320 -101 320 -101 320 -121 c 0,60,61
 320 -140 320 -140 308 -153 c 256,62,63
 296 -166 296 -166 280 -167 c 1,64,-1
 280 -167 l 1,49,50
360 -167 m 1,65,66
 343 -167 343 -167 332 -153 c 256,67,68
 320 -140 320 -140 320 -121 c 0,69,70
 320 -103 320 -103 332 -88 c 256,71,72
 344 -75 344 -75 360 -75 c 256,73,74
 377 -75 377 -75 388 -88 c 0,75,76
 400 -101 400 -101 400 -121 c 0,77,78
 400 -140 400 -140 388 -153 c 128,-1,79
 376 -166 376 -166 360 -167 c 1,80,-1
 360 -167 l 1,65,66
160 0 m 1,81,82
 143 0 143 0 132 13 c 0,83,84
 120 27 120 27 120 46 c 128,-1,85
 120 65 120 65 132 78 c 256,86,87
 144 91 144 91 160 92 c 256,88,89
 177 92 177 92 188 78 c 0,90,91
 200 65 200 65 200 46 c 0,92,93
 200 28 200 28 188 13 c 0,94,95
 176 0 176 0 160 0 c 1,96,-1
 160 0 l 1,81,82
160 250 m 1,97,98
 143 250 143 250 132 263 c 256,99,100
 120 276 120 276 120 296 c 0,101,102
 120 314 120 314 132 328 c 0,103,104
 137 334 137 334 143 338 c 1,105,-1
 143 338 l 1,106,107
 137 341 137 341 132 347 c 0,108,109
 120 360 120 360 120 379 c 128,-1,110
 120 398 120 398 132 412 c 0,111,112
 137 418 137 418 143 421 c 1,113,-1
 143 421 l 1,114,115
 137 424 137 424 132 430 c 0,116,117
 120 444 120 444 120 462 c 0,118,119
 120 481 120 481 132 495 c 0,120,121
 137 501 137 501 143 504 c 1,122,-1
 143 504 l 1,123,124
 137 507 137 507 132 513 c 0,125,126
 120 526 120 526 120 546 c 256,127,128
 120 565 120 565 132 578 c 256,129,130
 144 591 144 591 160 592 c 256,131,132
 177 592 177 592 188 578 c 0,133,134
 200 565 200 565 200 546 c 256,135,136
 200 527 200 527 188 513 c 0,137,138
 182 507 182 507 177 504 c 1,139,-1
 177 504 l 1,140,141
 183 501 183 501 188 495 c 0,142,143
 200 482 200 482 200 462 c 0,144,145
 200 444 200 444 188 430 c 0,146,147
 182 424 182 424 177 421 c 1,148,-1
 177 421 l 1,149,150
 183 418 183 418 188 412 c 0,151,152
 200 399 200 399 200 379 c 0,153,154
 200 361 200 361 188 347 c 0,155,156
 182 342 182 342 177 338 c 1,157,-1
 177 338 l 1,158,159
 183 335 183 335 188 328 c 0,160,161
 200 315 200 315 200 296 c 128,-1,162
 200 277 200 277 188 263 c 0,163,164
 176 250 176 250 160 250 c 1,165,-1
 160 250 l 1,97,98
EndSplineSet
Validated: 524293
EndChar

StartChar: quotedbl
Encoding: 34 34 2
Width: 360
VWidth: 833
Flags: W
LayerCount: 2
Fore
SplineSet
40 -167 m 1,0,1
 23 -167 23 -167 11 -153 c 0,2,3
 0 -140 0 -140 0 -121 c 0,4,5
 0 -103 0 -103 11 -88 c 0,6,7
 23 -75 23 -75 40 -75 c 256,8,9
 57 -75 57 -75 68 -88 c 256,10,11
 80 -101 80 -101 80 -121 c 0,12,13
 80 -140 80 -140 68 -153 c 256,14,15
 56 -166 56 -166 40 -167 c 1,16,-1
 40 -167 l 1,0,1
120 -167 m 1,17,18
 103 -167 103 -167 91 -153 c 256,19,20
 79.9230769231 -141 79.9230769231 -141 79.9230769231 -123.887573964 c 0,21,22
 79.9230769231 -103.104895105 79.9230769231 -103.104895105 91 -88 c 256,23,24
 103 -75 103 -75 120 -75 c 128,-1,25
 137 -75 137 -75 148 -88 c 256,26,27
 160 -101 160 -101 160 -121 c 0,28,29
 160 -140 160 -140 148 -153 c 256,30,31
 136 -166 136 -166 120 -167 c 1,32,-1
 120 -167 l 1,17,18
200 -167 m 1,33,34
 183 -167 183 -167 171 -153 c 256,35,36
 159.923076923 -141 159.923076923 -141 159.923076923 -123.887573964 c 0,37,38
 159.923076923 -103.104895105 159.923076923 -103.104895105 171 -88 c 256,39,40
 183 -75 183 -75 200 -75 c 128,-1,41
 217 -75 217 -75 228 -88 c 256,42,43
 240 -101 240 -101 240 -121 c 0,44,45
 240 -140 240 -140 228 -153 c 256,46,47
 216 -166 216 -166 200 -167 c 1,48,-1
 200 -167 l 1,33,34
280 -167 m 1,49,50
 263 -167 263 -167 251 -153 c 256,51,52
 239.923076923 -141 239.923076923 -141 239.923076923 -123.887573964 c 0,53,54
 239.923076923 -103.104895105 239.923076923 -103.104895105 251 -88 c 256,55,56
 263 -75 263 -75 280 -75 c 128,-1,57
 297 -75 297 -75 308 -88 c 256,58,59
 320 -101 320 -101 320 -121 c 0,60,61
 320 -140 320 -140 308 -153 c 256,62,63
 296 -166 296 -166 280 -167 c 1,64,-1
 280 -167 l 1,49,50
360 -167 m 1,65,66
 343 -167 343 -167 332 -153 c 256,67,68
 320 -140 320 -140 320 -121 c 0,69,70
 320 -103 320 -103 332 -88 c 256,71,72
 344 -75 344 -75 360 -75 c 256,73,74
 377 -75 377 -75 388 -88 c 0,75,76
 400 -101 400 -101 400 -121 c 0,77,78
 400 -140 400 -140 388 -153 c 128,-1,79
 376 -166 376 -166 360 -167 c 1,80,-1
 360 -167 l 1,65,66
120 333 m 1,81,82
 103 333 103 333 91 347 c 256,83,84
 79.9230769231 359 79.9230769231 359 79.9230769231 376.112426036 c 0,85,86
 79.9230769231 397.902097902 79.9230769231 397.902097902 91 412 c 0,87,88
 97 418 97 418 102 421 c 1,89,-1
 102 421 l 1,90,91
 96 424 96 424 91 430 c 0,92,93
 79.9230769231 442.923076923 79.9230769231 442.923076923 79.9230769231 459.25443787 c 0,94,95
 79.9230769231 480.902097902 79.9230769231 480.902097902 91 495 c 0,96,97
 97 501 97 501 102 504 c 1,98,-1
 102 504 l 1,99,100
 96 507 96 507 91 513 c 0,101,102
 79.9230769231 525 79.9230769231 525 79.9230769231 542.964497041 c 0,103,104
 79.9230769231 564.909090909 79.9230769231 564.909090909 91 578 c 256,105,106
 103 591 103 591 120 592 c 0,107,108
 137 592 137 592 148 578 c 256,109,110
 160 565 160 565 160 546 c 256,111,112
 160 527 160 527 148 513 c 0,113,114
 143 507 143 507 137 504 c 1,115,-1
 137 504 l 1,116,117
 143 501 143 501 148 495 c 0,118,119
 160 482 160 482 160 462 c 0,120,121
 160 444 160 444 148 430 c 0,122,123
 143 424 143 424 137 421 c 1,124,-1
 137 421 l 1,125,126
 143 418 143 418 148 412 c 0,127,128
 160 399 160 399 160 379 c 0,129,130
 160 361 160 361 148 347 c 256,131,132
 136 334 136 334 120 333 c 1,133,-1
 120 333 l 1,81,82
280 333 m 1,134,135
 263 333 263 333 251 347 c 256,136,137
 239.923076923 359 239.923076923 359 239.923076923 376.112426036 c 0,138,139
 239.923076923 397.902097902 239.923076923 397.902097902 251 412 c 0,140,141
 256 418 256 418 263 421 c 1,142,-1
 263 421 l 1,143,144
 257 424 257 424 251 430 c 0,145,146
 239.923076923 442.923076923 239.923076923 442.923076923 239.923076923 459.25443787 c 0,147,148
 239.923076923 480.902097902 239.923076923 480.902097902 251 495 c 0,149,150
 256 501 256 501 263 504 c 1,151,-1
 263 504 l 1,152,153
 257 507 257 507 251 513 c 0,154,155
 239.923076923 525 239.923076923 525 239.923076923 542.964497041 c 0,156,157
 239.923076923 564.909090909 239.923076923 564.909090909 251 578 c 256,158,159
 263 591 263 591 280 592 c 0,160,161
 297 592 297 592 308 578 c 256,162,163
 320 565 320 565 320 546 c 256,164,165
 320 527 320 527 308 513 c 0,166,167
 302 507 302 507 297 504 c 1,168,-1
 297 504 l 1,169,170
 303 501 303 501 308 495 c 0,171,172
 320 482 320 482 320 462 c 0,173,174
 320 444 320 444 308 430 c 0,175,176
 302 424 302 424 297 421 c 1,177,-1
 297 421 l 1,178,179
 303 418 303 418 308 412 c 0,180,181
 320 399 320 399 320 379 c 0,182,183
 320 361 320 361 308 347 c 256,184,185
 296 334 296 334 280 333 c 1,186,-1
 280 333 l 1,134,135
EndSplineSet
Validated: 524293
EndChar

StartChar: numbersign
Encoding: 35 35 3
Width: 360
VWidth: 833
Flags: W
LayerCount: 2
Fore
SplineSet
40 -167 m 1,0,1
 23 -167 23 -167 11 -153 c 0,2,3
 0 -140 0 -140 0 -121 c 0,4,5
 0 -103 0 -103 11 -88 c 0,6,7
 23 -75 23 -75 40 -75 c 256,8,9
 57 -75 57 -75 68 -88 c 256,10,11
 80 -101 80 -101 80 -121 c 0,12,13
 80 -140 80 -140 68 -153 c 256,14,15
 56 -166 56 -166 40 -167 c 1,16,-1
 40 -167 l 1,0,1
120 -167 m 1,17,18
 103 -167 103 -167 91 -153 c 256,19,20
 79.9230769231 -141 79.9230769231 -141 79.9230769231 -123.887573964 c 0,21,22
 79.9230769231 -103.104895105 79.9230769231 -103.104895105 91 -88 c 256,23,24
 103 -75 103 -75 120 -75 c 128,-1,25
 137 -75 137 -75 148 -88 c 256,26,27
 160 -101 160 -101 160 -121 c 0,28,29
 160 -140 160 -140 148 -153 c 256,30,31
 136 -166 136 -166 120 -167 c 1,32,-1
 120 -167 l 1,17,18
200 -167 m 1,33,34
 183 -167 183 -167 171 -153 c 256,35,36
 159.923076923 -141 159.923076923 -141 159.923076923 -123.887573964 c 0,37,38
 159.923076923 -103.104895105 159.923076923 -103.104895105 171 -88 c 256,39,40
 183 -75 183 -75 200 -75 c 128,-1,41
 217 -75 217 -75 228 -88 c 256,42,43
 240 -101 240 -101 240 -121 c 0,44,45
 240 -140 240 -140 228 -153 c 256,46,47
 216 -166 216 -166 200 -167 c 1,48,-1
 200 -167 l 1,33,34
280 -167 m 1,49,50
 263 -167 263 -167 251 -153 c 256,51,52
 239.923076923 -141 239.923076923 -141 239.923076923 -123.887573964 c 0,53,54
 239.923076923 -103.104895105 239.923076923 -103.104895105 251 -88 c 256,55,56
 263 -75 263 -75 280 -75 c 128,-1,57
 297 -75 297 -75 308 -88 c 256,58,59
 320 -101 320 -101 320 -121 c 0,60,61
 320 -140 320 -140 308 -153 c 256,62,63
 296 -166 296 -166 280 -167 c 1,64,-1
 280 -167 l 1,49,50
360 -167 m 1,65,66
 343 -167 343 -167 332 -153 c 256,67,68
 320 -140 320 -140 320 -121 c 0,69,70
 320 -103 320 -103 332 -88 c 256,71,72
 344 -75 344 -75 360 -75 c 256,73,74
 377 -75 377 -75 388 -88 c 0,75,76
 400 -101 400 -101 400 -121 c 0,77,78
 400 -140 400 -140 388 -153 c 128,-1,79
 376 -166 376 -166 360 -167 c 1,80,-1
 360 -167 l 1,65,66
40 167 m 1,81,82
 23 167 23 167 11 180 c 0,83,84
 0 192 0 192 0 212 c 0,85,86
 0 230 0 230 11 244 c 0,87,88
 23 257 23 257 40 258 c 256,89,90
 57 258 57 258 68 244 c 256,91,92
 80 230 80 230 80 212 c 0,93,94
 80 193 80 193 68 180 c 256,95,96
 56 167 56 167 40 167 c 1,97,-1
 40 167 l 1,81,82
280 167 m 1,98,99
 263 167 263 167 251 180 c 256,100,101
 239.923076923 191.076923077 239.923076923 191.076923077 239.923076923 208.970414201 c 0,102,103
 239.923076923 229.902097902 239.923076923 229.902097902 251 244 c 256,104,105
 263 257 263 257 280 258 c 0,106,107
 297 258 297 258 308 244 c 256,108,109
 320 230 320 230 320 212 c 0,110,111
 320 193 320 193 308 180 c 256,112,113
 296 167 296 167 280 167 c 1,114,-1
 280 167 l 1,98,99
40 333 m 1,115,116
 23 333 23 333 11 347 c 0,117,118
 0 360 0 360 0 379 c 128,-1,119
 0 398 0 398 11 412 c 0,120,121
 23 425 23 425 40 425 c 256,122,123
 57 425 57 425 68 412 c 256,124,125
 80 399 80 399 80 379 c 0,126,127
 80 361 80 361 68 347 c 256,128,129
 56 334 56 334 40 333 c 1,130,-1
 40 333 l 1,115,116
280 333 m 1,131,132
 263 333 263 333 251 347 c 256,133,134
 239.923076923 359 239.923076923 359 239.923076923 376.112426036 c 0,135,136
 239.923076923 397.902097902 239.923076923 397.902097902 251 412 c 256,137,138
 263 425 263 425 280 425 c 128,-1,139
 297 425 297 425 308 412 c 256,140,141
 320 399 320 399 320 379 c 0,142,143
 320 361 320 361 308 347 c 256,144,145
 296 334 296 334 280 333 c 1,146,-1
 280 333 l 1,131,132
120 0 m 1,147,148
 103 0 103 0 91 13 c 0,149,150
 79.9230769231 25.9230769231 79.9230769231 25.9230769231 79.9230769231 43.1065088757 c 0,151,152
 79.9230769231 64.9090909091 79.9230769231 64.9090909091 91 78 c 0,153,154
 97 84 97 84 102 88 c 1,155,-1
 102 88 l 1,156,157
 96 91 96 91 91 97 c 0,158,159
 79.9230769231 109 79.9230769231 109 79.9230769231 126.112426036 c 0,160,161
 79.9230769231 147.902097902 79.9230769231 147.902097902 91 162 c 0,162,163
 97 168 97 168 102 171 c 1,164,-1
 102 171 l 1,165,166
 96 174 96 174 91 180 c 0,167,168
 79.9230769231 191.076923077 79.9230769231 191.076923077 79.9230769231 208.970414201 c 0,169,170
 79.9230769231 229.902097902 79.9230769231 229.902097902 91 244 c 0,171,172
 97 250 97 250 102 254 c 1,173,-1
 102 254 l 1,174,175
 96 257 96 257 91 263 c 0,176,177
 79.9230769231 275 79.9230769231 275 79.9230769231 292.964497041 c 0,178,179
 79.9230769231 313.902097902 79.9230769231 313.902097902 91 328 c 0,180,181
 97 334 97 334 102 338 c 1,182,-1
 102 338 l 1,183,184
 96 341 96 341 91 347 c 0,185,186
 79.9230769231 359 79.9230769231 359 79.9230769231 376.112426036 c 0,187,188
 79.9230769231 397.902097902 79.9230769231 397.902097902 91 412 c 0,189,190
 97 418 97 418 102 421 c 1,191,-1
 102 421 l 1,192,193
 96 424 96 424 91 430 c 0,194,195
 79.9230769231 442.923076923 79.9230769231 442.923076923 79.9230769231 459.25443787 c 0,196,197
 79.9230769231 480.902097902 79.9230769231 480.902097902 91 495 c 0,198,199
 97 501 97 501 102 504 c 1,200,-1
 102 504 l 1,201,202
 96 507 96 507 91 513 c 0,203,204
 79.9230769231 525 79.9230769231 525 79.9230769231 542.964497041 c 0,205,206
 79.9230769231 564.909090909 79.9230769231 564.909090909 91 578 c 256,207,208
 103 591 103 591 120 592 c 0,209,210
 137 592 137 592 148 578 c 256,211,212
 160 565 160 565 160 546 c 256,213,214
 160 527 160 527 148 513 c 0,215,216
 143 507 143 507 137 504 c 1,217,-1
 137 504 l 1,218,219
 143 501 143 501 148 495 c 0,220,221
 160 482 160 482 160 462 c 0,222,223
 160 444 160 444 148 430 c 0,224,225
 143 424 143 424 137 421 c 1,226,-1
 137 421 l 1,227,228
 143 418 143 418 148 412 c 0,229,230
 160 399 160 399 160 379 c 0,231,232
 160 361 160 361 148 347 c 0,233,234
 143 342 143 342 137 338 c 1,235,-1
 137 338 l 1,236,237
 143 335 143 335 148 328 c 0,238,239
 160 315 160 315 160 296 c 128,-1,240
 160 277 160 277 148 263 c 0,241,242
 143 257 143 257 137 254 c 1,243,-1
 137 254 l 1,244,245
 143 251 143 251 148 244 c 0,246,247
 160 230 160 230 160 212 c 0,248,249
 160 193 160 193 148 180 c 0,250,251
 143 174 143 174 137 171 c 1,252,-1
 137 171 l 1,253,254
 143 168 143 168 148 162 c 0,255,256
 160 149 160 149 160 129 c 256,257,258
 160 110 160 110 148 97 c 0,259,260
 143 92 143 92 137 88 c 1,261,-1
 137 88 l 1,262,263
 143 85 143 85 148 78 c 0,264,265
 160 65 160 65 160 46 c 0,266,267
 160 28 160 28 148 13 c 0,268,269
 136 0 136 0 120 0 c 1,270,-1
 120 0 l 1,147,148
200 0 m 1,271,272
 183 0 183 0 171 13 c 0,273,274
 159.923076923 25.9230769231 159.923076923 25.9230769231 159.923076923 43.1065088757 c 0,275,276
 159.923076923 64.9090909091 159.923076923 64.9090909091 171 78 c 0,277,278
 176 84 176 84 183 88 c 1,279,-1
 183 88 l 1,280,281
 177 91 177 91 171 97 c 0,282,283
 159.923076923 109 159.923076923 109 159.923076923 126.112426036 c 0,284,285
 159.923076923 147.902097902 159.923076923 147.902097902 171 162 c 0,286,287
 176 168 176 168 183 171 c 1,288,-1
 183 171 l 1,289,290
 177 174 177 174 171 180 c 0,291,292
 159.923076923 191.076923077 159.923076923 191.076923077 159.923076923 208.970414201 c 0,293,294
 159.923076923 229.902097902 159.923076923 229.902097902 171 244 c 0,295,296
 176 250 176 250 183 254 c 1,297,-1
 183 254 l 1,298,299
 177 257 177 257 171 263 c 0,300,301
 159.923076923 275 159.923076923 275 159.923076923 292.964497041 c 0,302,303
 159.923076923 313.902097902 159.923076923 313.902097902 171 328 c 0,304,305
 176 334 176 334 183 338 c 1,306,-1
 183 338 l 1,307,308
 177 341 177 341 171 347 c 0,309,310
 159.923076923 359 159.923076923 359 159.923076923 376.112426036 c 0,311,312
 159.923076923 397.902097902 159.923076923 397.902097902 171 412 c 0,313,314
 176 418 176 418 183 421 c 1,315,-1
 183 421 l 1,316,317
 177 424 177 424 171 430 c 0,318,319
 159.923076923 442.923076923 159.923076923 442.923076923 159.923076923 459.25443787 c 0,320,321
 159.923076923 480.902097902 159.923076923 480.902097902 171 495 c 0,322,323
 176 501 176 501 183 504 c 1,324,-1
 183 504 l 1,325,326
 177 507 177 507 171 513 c 0,327,328
 159.923076923 525 159.923076923 525 159.923076923 542.964497041 c 0,329,330
 159.923076923 564.909090909 159.923076923 564.909090909 171 578 c 256,331,332
 183 591 183 591 200 592 c 0,333,334
 217 592 217 592 228 578 c 256,335,336
 240 565 240 565 240 546 c 256,337,338
 240 527 240 527 228 513 c 0,339,340
 223 507 223 507 217 504 c 1,341,-1
 217 504 l 1,342,343
 223 501 223 501 228 495 c 0,344,345
 240 482 240 482 240 462 c 0,346,347
 240 444 240 444 228 430 c 0,348,349
 223 424 223 424 217 421 c 1,350,-1
 217 421 l 1,351,352
 223 418 223 418 228 412 c 0,353,354
 240 399 240 399 240 379 c 0,355,356
 240 361 240 361 228 347 c 0,357,358
 223 342 223 342 217 338 c 1,359,-1
 217 338 l 1,360,361
 223 335 223 335 228 328 c 0,362,363
 240 315 240 315 240 296 c 128,-1,364
 240 277 240 277 228 263 c 0,365,366
 223 257 223 257 217 254 c 1,367,-1
 217 254 l 1,368,369
 223 251 223 251 228 244 c 0,370,371
 240 230 240 230 240 212 c 0,372,373
 240 193 240 193 228 180 c 0,374,375
 223 174 223 174 217 171 c 1,376,-1
 217 171 l 1,377,378
 223 168 223 168 228 162 c 0,379,380
 240 149 240 149 240 129 c 256,381,382
 240 110 240 110 228 97 c 0,383,384
 223 92 223 92 217 88 c 1,385,-1
 217 88 l 1,386,387
 223 85 223 85 228 78 c 0,388,389
 240 65 240 65 240 46 c 0,390,391
 240 28 240 28 228 13 c 0,392,393
 216 0 216 0 200 0 c 1,394,-1
 200 0 l 1,271,272
EndSplineSet
Validated: 524293
EndChar

StartChar: dollar
Encoding: 36 36 4
Width: 360
VWidth: 833
Flags: W
LayerCount: 2
Fore
SplineSet
40 -167 m 1,0,1
 23 -167 23 -167 11 -153 c 0,2,3
 0 -140 0 -140 0 -121 c 0,4,5
 0 -103 0 -103 11 -88 c 0,6,7
 23 -75 23 -75 40 -75 c 256,8,9
 57 -75 57 -75 68 -88 c 256,10,11
 80 -101 80 -101 80 -121 c 0,12,13
 80 -140 80 -140 68 -153 c 256,14,15
 56 -166 56 -166 40 -167 c 1,16,-1
 40 -167 l 1,0,1
120 -167 m 1,17,18
 103 -167 103 -167 91 -153 c 256,19,20
 79.9230769231 -141 79.9230769231 -141 79.9230769231 -123.887573964 c 0,21,22
 79.9230769231 -103.104895105 79.9230769231 -103.104895105 91 -88 c 256,23,24
 103 -75 103 -75 120 -75 c 128,-1,25
 137 -75 137 -75 148 -88 c 256,26,27
 160 -101 160 -101 160 -121 c 0,28,29
 160 -140 160 -140 148 -153 c 256,30,31
 136 -166 136 -166 120 -167 c 1,32,-1
 120 -167 l 1,17,18
200 -167 m 1,33,34
 183 -167 183 -167 171 -153 c 256,35,36
 159.923076923 -141 159.923076923 -141 159.923076923 -123.887573964 c 0,37,38
 159.923076923 -103.104895105 159.923076923 -103.104895105 171 -88 c 256,39,40
 183 -75 183 -75 200 -75 c 128,-1,41
 217 -75 217 -75 228 -88 c 256,42,43
 240 -101 240 -101 240 -121 c 0,44,45
 240 -140 240 -140 228 -153 c 256,46,47
 216 -166 216 -166 200 -167 c 1,48,-1
 200 -167 l 1,33,34
280 -167 m 1,49,50
 263 -167 263 -167 251 -153 c 256,51,52
 239.923076923 -141 239.923076923 -141 239.923076923 -123.887573964 c 0,53,54
 239.923076923 -103.104895105 239.923076923 -103.104895105 251 -88 c 256,55,56
 263 -75 263 -75 280 -75 c 128,-1,57
 297 -75 297 -75 308 -88 c 256,58,59
 320 -101 320 -101 320 -121 c 0,60,61
 320 -140 320 -140 308 -153 c 256,62,63
 296 -166 296 -166 280 -167 c 1,64,-1
 280 -167 l 1,49,50
360 -167 m 1,65,66
 343 -167 343 -167 332 -153 c 256,67,68
 320 -140 320 -140 320 -121 c 0,69,70
 320 -103 320 -103 332 -88 c 256,71,72
 344 -75 344 -75 360 -75 c 256,73,74
 377 -75 377 -75 388 -88 c 0,75,76
 400 -101 400 -101 400 -121 c 0,77,78
 400 -140 400 -140 388 -153 c 128,-1,79
 376 -166 376 -166 360 -167 c 1,80,-1
 360 -167 l 1,65,66
80 83 m 1,81,82
 63 83 63 83 51 97 c 256,83,84
 39.9230769231 109 39.9230769231 109 39.9230769231 126.112426036 c 0,85,86
 39.9230769231 147.902097902 39.9230769231 147.902097902 51 162 c 256,87,88
 63 175 63 175 80 175 c 128,-1,89
 97 175 97 175 108 162 c 256,90,91
 120 149 120 149 120 129 c 256,92,93
 120 110 120 110 108 97 c 256,94,95
 96 84 96 84 80 83 c 1,96,-1
 80 83 l 1,81,82
240 83 m 1,97,98
 223 83 223 83 211 97 c 0,99,100
 200 110 200 110 200 129 c 256,101,102
 200 148 200 148 211 162 c 0,103,104
 223 175 223 175 240 175 c 256,105,106
 257 175 257 175 268 162 c 256,107,108
 280 149 280 149 280 129 c 256,109,110
 280 110 280 110 268 97 c 256,111,112
 256 84 256 84 240 83 c 1,113,-1
 240 83 l 1,97,98
280 167 m 1,114,115
 263 167 263 167 251 180 c 256,116,117
 239.923076923 191.076923077 239.923076923 191.076923077 239.923076923 208.970414201 c 0,118,119
 239.923076923 229.902097902 239.923076923 229.902097902 251 244 c 256,120,121
 263 257 263 257 280 258 c 0,122,123
 297 258 297 258 308 244 c 256,124,125
 320 230 320 230 320 212 c 0,126,127
 320 193 320 193 308 180 c 256,128,129
 296 167 296 167 280 167 c 1,130,-1
 280 167 l 1,114,115
80 250 m 1,131,132
 63 250 63 250 51 263 c 256,133,134
 39.9230769231 275 39.9230769231 275 39.9230769231 292.964497041 c 0,135,136
 39.9230769231 313.902097902 39.9230769231 313.902097902 51 328 c 256,137,138
 63 341 63 341 80 342 c 0,139,140
 97 342 97 342 108 328 c 256,141,142
 120 315 120 315 120 296 c 128,-1,143
 120 277 120 277 108 263 c 256,144,145
 96 250 96 250 80 250 c 1,146,-1
 80 250 l 1,131,132
240 250 m 1,147,148
 223 250 223 250 211 263 c 0,149,150
 200 276 200 276 200 296 c 0,151,152
 200 314 200 314 211 328 c 0,153,154
 223 341 223 341 240 342 c 256,155,156
 257 342 257 342 268 328 c 256,157,158
 280 315 280 315 280 296 c 128,-1,159
 280 277 280 277 268 263 c 256,160,161
 256 250 256 250 240 250 c 1,162,-1
 240 250 l 1,147,148
40 333 m 1,163,164
 23 333 23 333 11 347 c 0,165,166
 0 360 0 360 0 379 c 128,-1,167
 0 398 0 398 11 412 c 0,168,169
 23 425 23 425 40 425 c 256,170,171
 57 425 57 425 68 412 c 256,172,173
 80 399 80 399 80 379 c 0,174,175
 80 361 80 361 68 347 c 256,176,177
 56 334 56 334 40 333 c 1,178,-1
 40 333 l 1,163,164
80 417 m 1,179,180
 63 417 63 417 51 430 c 0,181,182
 39.9230769231 442.923076923 39.9230769231 442.923076923 39.9230769231 459.25443787 c 0,183,184
 39.9230769231 480.902097902 39.9230769231 480.902097902 51 495 c 256,185,186
 63 508 63 508 80 508 c 128,-1,187
 97 508 97 508 108 495 c 256,188,189
 120 482 120 482 120 462 c 0,190,191
 120 444 120 444 108 430 c 0,192,193
 96 417 96 417 80 417 c 1,194,-1
 80 417 l 1,179,180
240 417 m 1,195,196
 223 417 223 417 211 430 c 0,197,198
 200 444 200 444 200 462 c 0,199,200
 200 481 200 481 211 495 c 0,201,202
 223 508 223 508 240 508 c 256,203,204
 257 508 257 508 268 495 c 256,205,206
 280 482 280 482 280 462 c 0,207,208
 280 444 280 444 268 430 c 0,209,210
 256 417 256 417 240 417 c 1,211,-1
 240 417 l 1,195,196
160 0 m 1,212,213
 143 0 143 0 132 13 c 0,214,215
 120 27 120 27 120 46 c 128,-1,216
 120 65 120 65 132 78 c 0,217,218
 137 84 137 84 143 88 c 1,219,-1
 143 88 l 1,220,221
 137 91 137 91 132 97 c 0,222,223
 120 110 120 110 120 129 c 256,224,225
 120 148 120 148 132 162 c 0,226,227
 137 168 137 168 143 171 c 1,228,-1
 143 171 l 1,229,230
 137 174 137 174 132 180 c 0,231,232
 120 192 120 192 120 212 c 0,233,234
 120 230 120 230 132 244 c 0,235,236
 137 250 137 250 143 254 c 1,237,-1
 143 254 l 1,238,239
 137 257 137 257 132 263 c 0,240,241
 120 276 120 276 120 296 c 0,242,243
 120 314 120 314 132 328 c 0,244,245
 137 334 137 334 143 338 c 1,246,-1
 143 338 l 1,247,248
 137 341 137 341 132 347 c 0,249,250
 120 360 120 360 120 379 c 128,-1,251
 120 398 120 398 132 412 c 0,252,253
 137 418 137 418 143 421 c 1,254,-1
 143 421 l 1,255,256
 137 424 137 424 132 430 c 0,257,258
 120 444 120 444 120 462 c 0,259,260
 120 481 120 481 132 495 c 0,261,262
 137 501 137 501 143 504 c 1,263,-1
 143 504 l 1,264,265
 137 507 137 507 132 513 c 0,266,267
 120 526 120 526 120 546 c 256,268,269
 120 565 120 565 132 578 c 256,270,271
 144 591 144 591 160 592 c 256,272,273
 177 592 177 592 188 578 c 0,274,275
 200 565 200 565 200 546 c 256,276,277
 200 527 200 527 188 513 c 0,278,279
 182 507 182 507 177 504 c 1,280,-1
 177 504 l 1,281,282
 183 501 183 501 188 495 c 0,283,284
 200 482 200 482 200 462 c 0,285,286
 200 444 200 444 188 430 c 0,287,288
 182 424 182 424 177 421 c 1,289,-1
 177 421 l 1,290,291
 183 418 183 418 188 412 c 0,292,293
 200 399 200 399 200 379 c 0,294,295
 200 361 200 361 188 347 c 0,296,297
 182 342 182 342 177 338 c 1,298,-1
 177 338 l 1,299,300
 183 335 183 335 188 328 c 0,301,302
 200 315 200 315 200 296 c 128,-1,303
 200 277 200 277 188 263 c 0,304,305
 182 257 182 257 177 254 c 1,306,-1
 177 254 l 1,307,308
 183 251 183 251 188 244 c 0,309,310
 200 230 200 230 200 212 c 0,311,312
 200 193 200 193 188 180 c 0,313,314
 182 174 182 174 177 171 c 1,315,-1
 177 171 l 1,316,317
 183 168 183 168 188 162 c 0,318,319
 200 149 200 149 200 129 c 256,320,321
 200 110 200 110 188 97 c 0,322,323
 182 92 182 92 177 88 c 1,324,-1
 177 88 l 1,325,326
 183 85 183 85 188 78 c 0,327,328
 200 65 200 65 200 46 c 0,329,330
 200 28 200 28 188 13 c 0,331,332
 176 0 176 0 160 0 c 1,333,-1
 160 0 l 1,212,213
EndSplineSet
Validated: 524293
EndChar

StartChar: percent
Encoding: 37 37 5
Width: 360
VWidth: 833
Flags: W
LayerCount: 2
Fore
SplineSet
40 -167 m 1,0,1
 23 -167 23 -167 11 -153 c 0,2,3
 0 -140 0 -140 0 -121 c 0,4,5
 0 -103 0 -103 11 -88 c 0,6,7
 23 -75 23 -75 40 -75 c 256,8,9
 57 -75 57 -75 68 -88 c 256,10,11
 80 -101 80 -101 80 -121 c 0,12,13
 80 -140 80 -140 68 -153 c 256,14,15
 56 -166 56 -166 40 -167 c 1,16,-1
 40 -167 l 1,0,1
120 -167 m 1,17,18
 103 -167 103 -167 91 -153 c 256,19,20
 79.9230769231 -141 79.9230769231 -141 79.9230769231 -123.887573964 c 0,21,22
 79.9230769231 -103.104895105 79.9230769231 -103.104895105 91 -88 c 256,23,24
 103 -75 103 -75 120 -75 c 128,-1,25
 137 -75 137 -75 148 -88 c 256,26,27
 160 -101 160 -101 160 -121 c 0,28,29
 160 -140 160 -140 148 -153 c 256,30,31
 136 -166 136 -166 120 -167 c 1,32,-1
 120 -167 l 1,17,18
200 -167 m 1,33,34
 183 -167 183 -167 171 -153 c 256,35,36
 159.923076923 -141 159.923076923 -141 159.923076923 -123.887573964 c 0,37,38
 159.923076923 -103.104895105 159.923076923 -103.104895105 171 -88 c 256,39,40
 183 -75 183 -75 200 -75 c 128,-1,41
 217 -75 217 -75 228 -88 c 256,42,43
 240 -101 240 -101 240 -121 c 0,44,45
 240 -140 240 -140 228 -153 c 256,46,47
 216 -166 216 -166 200 -167 c 1,48,-1
 200 -167 l 1,33,34
280 -167 m 1,49,50
 263 -167 263 -167 251 -153 c 256,51,52
 239.923076923 -141 239.923076923 -141 239.923076923 -123.887573964 c 0,53,54
 239.923076923 -103.104895105 239.923076923 -103.104895105 251 -88 c 256,55,56
 263 -75 263 -75 280 -75 c 128,-1,57
 297 -75 297 -75 308 -88 c 256,58,59
 320 -101 320 -101 320 -121 c 0,60,61
 320 -140 320 -140 308 -153 c 256,62,63
 296 -166 296 -166 280 -167 c 1,64,-1
 280 -167 l 1,49,50
360 -167 m 1,65,66
 343 -167 343 -167 332 -153 c 256,67,68
 320 -140 320 -140 320 -121 c 0,69,70
 320 -103 320 -103 332 -88 c 256,71,72
 344 -75 344 -75 360 -75 c 256,73,74
 377 -75 377 -75 388 -88 c 0,75,76
 400 -101 400 -101 400 -121 c 0,77,78
 400 -140 400 -140 388 -153 c 128,-1,79
 376 -166 376 -166 360 -167 c 1,80,-1
 360 -167 l 1,65,66
40 0 m 1,81,82
 23 0 23 0 11 13 c 0,83,84
 0 27 0 27 0 46 c 128,-1,85
 0 65 0 65 11 78 c 0,86,87
 23 91 23 91 40 92 c 256,88,89
 57 92 57 92 68 78 c 256,90,91
 80 65 80 65 80 46 c 0,92,93
 80 28 80 28 68 13 c 0,94,95
 56 0 56 0 40 0 c 1,96,-1
 40 0 l 1,81,82
80 83 m 1,97,98
 63 83 63 83 51 97 c 256,99,100
 39.9230769231 109 39.9230769231 109 39.9230769231 126.112426036 c 0,101,102
 39.9230769231 147.902097902 39.9230769231 147.902097902 51 162 c 256,103,104
 63 175 63 175 80 175 c 128,-1,105
 97 175 97 175 108 162 c 256,106,107
 120 149 120 149 120 129 c 256,108,109
 120 110 120 110 108 97 c 256,110,111
 96 84 96 84 80 83 c 1,112,-1
 80 83 l 1,97,98
200 0 m 1,113,114
 183 0 183 0 171 13 c 0,115,116
 159.923076923 25.9230769231 159.923076923 25.9230769231 159.923076923 43.1065088757 c 0,117,118
 159.923076923 64.9090909091 159.923076923 64.9090909091 171 78 c 0,119,120
 176 84 176 84 183 88 c 1,121,-1
 183 88 l 1,122,123
 177 91 177 91 171 97 c 0,124,125
 159.923076923 109 159.923076923 109 159.923076923 126.112426036 c 0,126,127
 159.923076923 147.902097902 159.923076923 147.902097902 171 162 c 256,128,129
 183 175 183 175 200 175 c 128,-1,130
 217 175 217 175 228 162 c 256,131,132
 240 149 240 149 240 129 c 256,133,134
 240 110 240 110 228 97 c 0,135,136
 223 92 223 92 217 88 c 1,137,-1
 217 88 l 1,138,139
 223 85 223 85 228 78 c 0,140,141
 240 65 240 65 240 46 c 0,142,143
 240 28 240 28 228 13 c 0,144,145
 216 0 216 0 200 0 c 1,146,-1
 200 0 l 1,113,114
280 0 m 1,147,148
 263 0 263 0 251 13 c 0,149,150
 239.923076923 25.9230769231 239.923076923 25.9230769231 239.923076923 43.1065088757 c 0,151,152
 239.923076923 64.9090909091 239.923076923 64.9090909091 251 78 c 0,153,154
 256 84 256 84 263 88 c 1,155,-1
 263 88 l 1,156,157
 257 91 257 91 251 97 c 0,158,159
 239.923076923 109 239.923076923 109 239.923076923 126.112426036 c 0,160,161
 239.923076923 147.902097902 239.923076923 147.902097902 251 162 c 256,162,163
 263 175 263 175 280 175 c 128,-1,164
 297 175 297 175 308 162 c 256,165,166
 320 149 320 149 320 129 c 256,167,168
 320 110 320 110 308 97 c 0,169,170
 302 92 302 92 297 88 c 1,171,-1
 297 88 l 1,172,173
 303 85 303 85 308 78 c 0,174,175
 320 65 320 65 320 46 c 0,176,177
 320 28 320 28 308 13 c 0,178,179
 296 0 296 0 280 0 c 1,180,-1
 280 0 l 1,147,148
120 167 m 1,181,182
 103 167 103 167 91 180 c 256,183,184
 79.9230769231 191.076923077 79.9230769231 191.076923077 79.9230769231 208.970414201 c 0,185,186
 79.9230769231 229.902097902 79.9230769231 229.902097902 91 244 c 256,187,188
 103 257 103 257 120 258 c 0,189,190
 137 258 137 258 148 244 c 256,191,192
 160 230 160 230 160 212 c 0,193,194
 160 193 160 193 148 180 c 256,195,196
 136 167 136 167 120 167 c 1,197,-1
 120 167 l 1,181,182
160 250 m 1,198,199
 143 250 143 250 132 263 c 256,200,201
 120 276 120 276 120 296 c 0,202,203
 120 314 120 314 132 328 c 256,204,205
 144 341 144 341 160 342 c 256,206,207
 177 342 177 342 188 328 c 0,208,209
 200 315 200 315 200 296 c 128,-1,210
 200 277 200 277 188 263 c 0,211,212
 176 250 176 250 160 250 c 1,213,-1
 160 250 l 1,198,199
200 333 m 1,214,215
 183 333 183 333 171 347 c 256,216,217
 159.923076923 359 159.923076923 359 159.923076923 376.112426036 c 0,218,219
 159.923076923 397.902097902 159.923076923 397.902097902 171 412 c 256,220,221
 183 425 183 425 200 425 c 128,-1,222
 217 425 217 425 228 412 c 256,223,224
 240 399 240 399 240 379 c 0,225,226
 240 361 240 361 228 347 c 256,227,228
 216 334 216 334 200 333 c 1,229,-1
 200 333 l 1,214,215
240 417 m 1,230,231
 223 417 223 417 211 430 c 0,232,233
 200 444 200 444 200 462 c 0,234,235
 200 481 200 481 211 495 c 0,236,237
 223 508 223 508 240 508 c 256,238,239
 257 508 257 508 268 495 c 256,240,241
 280 482 280 482 280 462 c 0,242,243
 280 444 280 444 268 430 c 0,244,245
 256 417 256 417 240 417 c 1,246,-1
 240 417 l 1,230,231
40 417 m 1,247,248
 23 417 23 417 11 430 c 0,249,250
 0 444 0 444 0 462 c 0,251,252
 0 481 0 481 11 495 c 0,253,254
 17 501 17 501 22 504 c 1,255,-1
 22 504 l 1,256,257
 16 507 16 507 11 513 c 0,258,259
 0 526 0 526 0 546 c 256,260,261
 0 565 0 565 11 578 c 0,262,263
 23 591 23 591 40 592 c 256,264,265
 57 592 57 592 68 578 c 256,266,267
 80 565 80 565 80 546 c 256,268,269
 80 527 80 527 68 513 c 0,270,271
 63 507 63 507 57 504 c 1,272,-1
 57 504 l 1,273,274
 63 501 63 501 68 495 c 0,275,276
 80 482 80 482 80 462 c 0,277,278
 80 444 80 444 68 430 c 0,279,280
 56 417 56 417 40 417 c 1,281,-1
 40 417 l 1,247,248
120 417 m 1,282,283
 103 417 103 417 91 430 c 0,284,285
 79.9230769231 442.923076923 79.9230769231 442.923076923 79.9230769231 459.25443787 c 0,286,287
 79.9230769231 480.902097902 79.9230769231 480.902097902 91 495 c 0,288,289
 97 501 97 501 102 504 c 1,290,-1
 102 504 l 1,291,292
 96 507 96 507 91 513 c 0,293,294
 79.9230769231 525 79.9230769231 525 79.9230769231 542.964497041 c 0,295,296
 79.9230769231 564.909090909 79.9230769231 564.909090909 91 578 c 256,297,298
 103 591 103 591 120 592 c 0,299,300
 137 592 137 592 148 578 c 256,301,302
 160 565 160 565 160 546 c 256,303,304
 160 527 160 527 148 513 c 0,305,306
 143 507 143 507 137 504 c 1,307,-1
 137 504 l 1,308,309
 143 501 143 501 148 495 c 0,310,311
 160 482 160 482 160 462 c 0,312,313
 160 444 160 444 148 430 c 0,314,315
 136 417 136 417 120 417 c 1,316,-1
 120 417 l 1,282,283
280 500 m 1,317,318
 263 500 263 500 251 513 c 256,319,320
 239.923076923 525 239.923076923 525 239.923076923 542.964497041 c 0,321,322
 239.923076923 564.909090909 239.923076923 564.909090909 251 578 c 256,323,324
 263 591 263 591 280 592 c 0,325,326
 297 592 297 592 308 578 c 256,327,328
 320 565 320 565 320 546 c 256,329,330
 320 527 320 527 308 513 c 256,331,332
 296 500 296 500 280 500 c 1,333,-1
 280 500 l 1,317,318
EndSplineSet
Validated: 524293
EndChar

StartChar: ampersand
Encoding: 38 38 6
Width: 360
VWidth: 833
Flags: W
LayerCount: 2
Fore
SplineSet
40 -167 m 1,0,1
 23 -167 23 -167 11 -153 c 0,2,3
 0 -140 0 -140 0 -121 c 0,4,5
 0 -103 0 -103 11 -88 c 0,6,7
 23 -75 23 -75 40 -75 c 256,8,9
 57 -75 57 -75 68 -88 c 256,10,11
 80 -101 80 -101 80 -121 c 0,12,13
 80 -140 80 -140 68 -153 c 256,14,15
 56 -166 56 -166 40 -167 c 1,16,-1
 40 -167 l 1,0,1
120 -167 m 1,17,18
 103 -167 103 -167 91 -153 c 256,19,20
 79.9230769231 -141 79.9230769231 -141 79.9230769231 -123.887573964 c 0,21,22
 79.9230769231 -103.104895105 79.9230769231 -103.104895105 91 -88 c 256,23,24
 103 -75 103 -75 120 -75 c 128,-1,25
 137 -75 137 -75 148 -88 c 256,26,27
 160 -101 160 -101 160 -121 c 0,28,29
 160 -140 160 -140 148 -153 c 256,30,31
 136 -166 136 -166 120 -167 c 1,32,-1
 120 -167 l 1,17,18
200 -167 m 1,33,34
 183 -167 183 -167 171 -153 c 256,35,36
 159.923076923 -141 159.923076923 -141 159.923076923 -123.887573964 c 0,37,38
 159.923076923 -103.104895105 159.923076923 -103.104895105 171 -88 c 256,39,40
 183 -75 183 -75 200 -75 c 128,-1,41
 217 -75 217 -75 228 -88 c 256,42,43
 240 -101 240 -101 240 -121 c 0,44,45
 240 -140 240 -140 228 -153 c 256,46,47
 216 -166 216 -166 200 -167 c 1,48,-1
 200 -167 l 1,33,34
280 -167 m 1,49,50
 263 -167 263 -167 251 -153 c 256,51,52
 239.923076923 -141 239.923076923 -141 239.923076923 -123.887573964 c 0,53,54
 239.923076923 -103.104895105 239.923076923 -103.104895105 251 -88 c 256,55,56
 263 -75 263 -75 280 -75 c 128,-1,57
 297 -75 297 -75 308 -88 c 256,58,59
 320 -101 320 -101 320 -121 c 0,60,61
 320 -140 320 -140 308 -153 c 256,62,63
 296 -166 296 -166 280 -167 c 1,64,-1
 280 -167 l 1,49,50
360 -167 m 1,65,66
 343 -167 343 -167 332 -153 c 256,67,68
 320 -140 320 -140 320 -121 c 0,69,70
 320 -103 320 -103 332 -88 c 256,71,72
 344 -75 344 -75 360 -75 c 256,73,74
 377 -75 377 -75 388 -88 c 0,75,76
 400 -101 400 -101 400 -121 c 0,77,78
 400 -140 400 -140 388 -153 c 128,-1,79
 376 -166 376 -166 360 -167 c 1,80,-1
 360 -167 l 1,65,66
80 0 m 1,81,82
 63 0 63 0 51 13 c 0,83,84
 39.9230769231 25.9230769231 39.9230769231 25.9230769231 39.9230769231 43.1065088757 c 0,85,86
 39.9230769231 64.9090909091 39.9230769231 64.9090909091 51 78 c 256,87,88
 63 91 63 91 80 92 c 0,89,90
 97 92 97 92 108 78 c 256,91,92
 120 65 120 65 120 46 c 0,93,94
 120 28 120 28 108 13 c 0,95,96
 96 0 96 0 80 0 c 1,97,-1
 80 0 l 1,81,82
160 0 m 1,98,99
 143 0 143 0 132 13 c 0,100,101
 120 27 120 27 120 46 c 128,-1,102
 120 65 120 65 132 78 c 256,103,104
 144 91 144 91 160 92 c 256,105,106
 177 92 177 92 188 78 c 0,107,108
 200 65 200 65 200 46 c 0,109,110
 200 28 200 28 188 13 c 0,111,112
 176 0 176 0 160 0 c 1,113,-1
 160 0 l 1,98,99
280 0 m 1,114,115
 263 0 263 0 251 13 c 0,116,117
 239.923076923 25.9230769231 239.923076923 25.9230769231 239.923076923 43.1065088757 c 0,118,119
 239.923076923 64.9090909091 239.923076923 64.9090909091 251 78 c 256,120,121
 263 91 263 91 280 92 c 0,122,123
 297 92 297 92 308 78 c 256,124,125
 320 65 320 65 320 46 c 0,126,127
 320 28 320 28 308 13 c 0,128,129
 296 0 296 0 280 0 c 1,130,-1
 280 0 l 1,114,115
240 83 m 1,131,132
 223 83 223 83 211 97 c 0,133,134
 200 110 200 110 200 129 c 256,135,136
 200 148 200 148 211 162 c 0,137,138
 223 175 223 175 240 175 c 256,139,140
 257 175 257 175 268 162 c 256,141,142
 280 149 280 149 280 129 c 256,143,144
 280 110 280 110 268 97 c 256,145,146
 256 84 256 84 240 83 c 1,147,-1
 240 83 l 1,131,132
40 83 m 1,148,149
 23 83 23 83 11 97 c 0,150,151
 0 110 0 110 0 129 c 256,152,153
 0 148 0 148 11 162 c 0,154,155
 17 168 17 168 22 171 c 1,156,-1
 22 171 l 1,157,158
 16 174 16 174 11 180 c 0,159,160
 0 192 0 192 0 212 c 0,161,162
 0 230 0 230 11 244 c 0,163,164
 23 257 23 257 40 258 c 256,165,166
 57 258 57 258 68 244 c 256,167,168
 80 230 80 230 80 212 c 0,169,170
 80 193 80 193 68 180 c 0,171,172
 63 174 63 174 57 171 c 1,173,-1
 57 171 l 1,174,175
 63 168 63 168 68 162 c 0,176,177
 80 149 80 149 80 129 c 256,178,179
 80 110 80 110 68 97 c 256,180,181
 56 84 56 84 40 83 c 1,182,-1
 40 83 l 1,148,149
200 167 m 1,183,184
 183 167 183 167 171 180 c 256,185,186
 159.923076923 191.076923077 159.923076923 191.076923077 159.923076923 208.970414201 c 0,187,188
 159.923076923 229.902097902 159.923076923 229.902097902 171 244 c 256,189,190
 183 257 183 257 200 258 c 0,191,192
 217 258 217 258 228 244 c 256,193,194
 240 230 240 230 240 212 c 0,195,196
 240 193 240 193 228 180 c 256,197,198
 216 167 216 167 200 167 c 1,199,-1
 200 167 l 1,183,184
80 250 m 1,200,201
 63 250 63 250 51 263 c 256,202,203
 39.9230769231 275 39.9230769231 275 39.9230769231 292.964497041 c 0,204,205
 39.9230769231 313.902097902 39.9230769231 313.902097902 51 328 c 256,206,207
 63 341 63 341 80 342 c 0,208,209
 97 342 97 342 108 328 c 256,210,211
 120 315 120 315 120 296 c 128,-1,212
 120 277 120 277 108 263 c 256,213,214
 96 250 96 250 80 250 c 1,215,-1
 80 250 l 1,200,201
160 250 m 1,216,217
 143 250 143 250 132 263 c 256,218,219
 120 276 120 276 120 296 c 0,220,221
 120 314 120 314 132 328 c 256,222,223
 144 341 144 341 160 342 c 256,224,225
 177 342 177 342 188 328 c 0,226,227
 200 315 200 315 200 296 c 128,-1,228
 200 277 200 277 188 263 c 0,229,230
 176 250 176 250 160 250 c 1,231,-1
 160 250 l 1,216,217
120 333 m 1,232,233
 103 333 103 333 91 347 c 256,234,235
 79.9230769231 359 79.9230769231 359 79.9230769231 376.112426036 c 0,236,237
 79.9230769231 397.902097902 79.9230769231 397.902097902 91 412 c 256,238,239
 103 425 103 425 120 425 c 128,-1,240
 137 425 137 425 148 412 c 256,241,242
 160 399 160 399 160 379 c 0,243,244
 160 361 160 361 148 347 c 256,245,246
 136 334 136 334 120 333 c 1,247,-1
 120 333 l 1,232,233
200 333 m 1,248,249
 183 333 183 333 171 347 c 256,250,251
 159.923076923 359 159.923076923 359 159.923076923 376.112426036 c 0,252,253
 159.923076923 397.902097902 159.923076923 397.902097902 171 412 c 256,254,255
 183 425 183 425 200 425 c 128,-1,256
 217 425 217 425 228 412 c 256,257,258
 240 399 240 399 240 379 c 0,259,260
 240 361 240 361 228 347 c 256,261,262
 216 334 216 334 200 333 c 1,263,-1
 200 333 l 1,248,249
80 417 m 1,264,265
 63 417 63 417 51 430 c 0,266,267
 39.9230769231 442.923076923 39.9230769231 442.923076923 39.9230769231 459.25443787 c 0,268,269
 39.9230769231 480.902097902 39.9230769231 480.902097902 51 495 c 256,270,271
 63 508 63 508 80 508 c 128,-1,272
 97 508 97 508 108 495 c 256,273,274
 120 482 120 482 120 462 c 0,275,276
 120 444 120 444 108 430 c 0,277,278
 96 417 96 417 80 417 c 1,279,-1
 80 417 l 1,264,265
240 417 m 1,280,281
 223 417 223 417 211 430 c 0,282,283
 200 444 200 444 200 462 c 0,284,285
 200 481 200 481 211 495 c 0,286,287
 223 508 223 508 240 508 c 256,288,289
 257 508 257 508 268 495 c 256,290,291
 280 482 280 482 280 462 c 0,292,293
 280 444 280 444 268 430 c 0,294,295
 256 417 256 417 240 417 c 1,296,-1
 240 417 l 1,280,281
120 500 m 1,297,298
 103 500 103 500 91 513 c 256,299,300
 79.9230769231 525 79.9230769231 525 79.9230769231 542.964497041 c 0,301,302
 79.9230769231 564.909090909 79.9230769231 564.909090909 91 578 c 256,303,304
 103 591 103 591 120 592 c 0,305,306
 137 592 137 592 148 578 c 256,307,308
 160 565 160 565 160 546 c 256,309,310
 160 527 160 527 148 513 c 256,311,312
 136 500 136 500 120 500 c 1,313,-1
 120 500 l 1,297,298
200 500 m 1,314,315
 183 500 183 500 171 513 c 256,316,317
 159.923076923 525 159.923076923 525 159.923076923 542.964497041 c 0,318,319
 159.923076923 564.909090909 159.923076923 564.909090909 171 578 c 256,320,321
 183 591 183 591 200 592 c 0,322,323
 217 592 217 592 228 578 c 256,324,325
 240 565 240 565 240 546 c 256,326,327
 240 527 240 527 228 513 c 256,328,329
 216 500 216 500 200 500 c 1,330,-1
 200 500 l 1,314,315
EndSplineSet
Validated: 524293
EndChar

StartChar: quotesingle
Encoding: 39 39 7
Width: 360
VWidth: 833
Flags: W
LayerCount: 2
Fore
SplineSet
40 -167 m 1,0,1
 23 -167 23 -167 11 -153 c 0,2,3
 0 -140 0 -140 0 -121 c 0,4,5
 0 -103 0 -103 11 -88 c 0,6,7
 23 -75 23 -75 40 -75 c 256,8,9
 57 -75 57 -75 68 -88 c 256,10,11
 80 -101 80 -101 80 -121 c 0,12,13
 80 -140 80 -140 68 -153 c 256,14,15
 56 -166 56 -166 40 -167 c 1,16,-1
 40 -167 l 1,0,1
120 -167 m 1,17,18
 103 -167 103 -167 91 -153 c 256,19,20
 79.9230769231 -141 79.9230769231 -141 79.9230769231 -123.887573964 c 0,21,22
 79.9230769231 -103.104895105 79.9230769231 -103.104895105 91 -88 c 256,23,24
 103 -75 103 -75 120 -75 c 128,-1,25
 137 -75 137 -75 148 -88 c 256,26,27
 160 -101 160 -101 160 -121 c 0,28,29
 160 -140 160 -140 148 -153 c 256,30,31
 136 -166 136 -166 120 -167 c 1,32,-1
 120 -167 l 1,17,18
200 -167 m 1,33,34
 183 -167 183 -167 171 -153 c 256,35,36
 159.923076923 -141 159.923076923 -141 159.923076923 -123.887573964 c 0,37,38
 159.923076923 -103.104895105 159.923076923 -103.104895105 171 -88 c 256,39,40
 183 -75 183 -75 200 -75 c 128,-1,41
 217 -75 217 -75 228 -88 c 256,42,43
 240 -101 240 -101 240 -121 c 0,44,45
 240 -140 240 -140 228 -153 c 256,46,47
 216 -166 216 -166 200 -167 c 1,48,-1
 200 -167 l 1,33,34
280 -167 m 1,49,50
 263 -167 263 -167 251 -153 c 256,51,52
 239.923076923 -141 239.923076923 -141 239.923076923 -123.887573964 c 0,53,54
 239.923076923 -103.104895105 239.923076923 -103.104895105 251 -88 c 256,55,56
 263 -75 263 -75 280 -75 c 128,-1,57
 297 -75 297 -75 308 -88 c 256,58,59
 320 -101 320 -101 320 -121 c 0,60,61
 320 -140 320 -140 308 -153 c 256,62,63
 296 -166 296 -166 280 -167 c 1,64,-1
 280 -167 l 1,49,50
360 -167 m 1,65,66
 343 -167 343 -167 332 -153 c 256,67,68
 320 -140 320 -140 320 -121 c 0,69,70
 320 -103 320 -103 332 -88 c 256,71,72
 344 -75 344 -75 360 -75 c 256,73,74
 377 -75 377 -75 388 -88 c 0,75,76
 400 -101 400 -101 400 -121 c 0,77,78
 400 -140 400 -140 388 -153 c 128,-1,79
 376 -166 376 -166 360 -167 c 1,80,-1
 360 -167 l 1,65,66
120 333 m 1,81,82
 103 333 103 333 91 347 c 256,83,84
 79.9230769231 359 79.9230769231 359 79.9230769231 376.112426036 c 0,85,86
 79.9230769231 397.902097902 79.9230769231 397.902097902 91 412 c 256,87,88
 103 425 103 425 120 425 c 128,-1,89
 137 425 137 425 148 412 c 256,90,91
 160 399 160 399 160 379 c 0,92,93
 160 361 160 361 148 347 c 256,94,95
 136 334 136 334 120 333 c 1,96,-1
 120 333 l 1,81,82
160 417 m 1,97,98
 143 417 143 417 132 430 c 0,99,100
 120 444 120 444 120 462 c 0,101,102
 120 481 120 481 132 495 c 256,103,104
 144 508 144 508 160 508 c 256,105,106
 177 508 177 508 188 495 c 0,107,108
 200 482 200 482 200 462 c 0,109,110
 200 444 200 444 188 430 c 0,111,112
 176 417 176 417 160 417 c 1,113,-1
 160 417 l 1,97,98
200 500 m 1,114,115
 183 500 183 500 171 513 c 256,116,117
 159.923076923 525 159.923076923 525 159.923076923 542.964497041 c 0,118,119
 159.923076923 564.909090909 159.923076923 564.909090909 171 578 c 256,120,121
 183 591 183 591 200 592 c 0,122,123
 217 592 217 592 228 578 c 256,124,125
 240 565 240 565 240 546 c 256,126,127
 240 527 240 527 228 513 c 256,128,129
 216 500 216 500 200 500 c 1,130,-1
 200 500 l 1,114,115
EndSplineSet
Validated: 524293
EndChar

StartChar: parenleft
Encoding: 40 40 8
Width: 360
VWidth: 833
Flags: W
LayerCount: 2
Fore
SplineSet
40 -167 m 1,0,1
 23 -167 23 -167 11 -153 c 0,2,3
 0 -140 0 -140 0 -121 c 0,4,5
 0 -103 0 -103 11 -88 c 0,6,7
 23 -75 23 -75 40 -75 c 256,8,9
 57 -75 57 -75 68 -88 c 256,10,11
 80 -101 80 -101 80 -121 c 0,12,13
 80 -140 80 -140 68 -153 c 256,14,15
 56 -166 56 -166 40 -167 c 1,16,-1
 40 -167 l 1,0,1
120 -167 m 1,17,18
 103 -167 103 -167 91 -153 c 256,19,20
 79.9230769231 -141 79.9230769231 -141 79.9230769231 -123.887573964 c 0,21,22
 79.9230769231 -103.104895105 79.9230769231 -103.104895105 91 -88 c 256,23,24
 103 -75 103 -75 120 -75 c 128,-1,25
 137 -75 137 -75 148 -88 c 256,26,27
 160 -101 160 -101 160 -121 c 0,28,29
 160 -140 160 -140 148 -153 c 256,30,31
 136 -166 136 -166 120 -167 c 1,32,-1
 120 -167 l 1,17,18
200 -167 m 1,33,34
 183 -167 183 -167 171 -153 c 256,35,36
 159.923076923 -141 159.923076923 -141 159.923076923 -123.887573964 c 0,37,38
 159.923076923 -103.104895105 159.923076923 -103.104895105 171 -88 c 256,39,40
 183 -75 183 -75 200 -75 c 128,-1,41
 217 -75 217 -75 228 -88 c 256,42,43
 240 -101 240 -101 240 -121 c 0,44,45
 240 -140 240 -140 228 -153 c 256,46,47
 216 -166 216 -166 200 -167 c 1,48,-1
 200 -167 l 1,33,34
280 -167 m 1,49,50
 263 -167 263 -167 251 -153 c 256,51,52
 239.923076923 -141 239.923076923 -141 239.923076923 -123.887573964 c 0,53,54
 239.923076923 -103.104895105 239.923076923 -103.104895105 251 -88 c 256,55,56
 263 -75 263 -75 280 -75 c 128,-1,57
 297 -75 297 -75 308 -88 c 256,58,59
 320 -101 320 -101 320 -121 c 0,60,61
 320 -140 320 -140 308 -153 c 256,62,63
 296 -166 296 -166 280 -167 c 1,64,-1
 280 -167 l 1,49,50
360 -167 m 1,65,66
 343 -167 343 -167 332 -153 c 256,67,68
 320 -140 320 -140 320 -121 c 0,69,70
 320 -103 320 -103 332 -88 c 256,71,72
 344 -75 344 -75 360 -75 c 256,73,74
 377 -75 377 -75 388 -88 c 0,75,76
 400 -101 400 -101 400 -121 c 0,77,78
 400 -140 400 -140 388 -153 c 128,-1,79
 376 -166 376 -166 360 -167 c 1,80,-1
 360 -167 l 1,65,66
200 0 m 1,81,82
 183 0 183 0 171 13 c 0,83,84
 159.923076923 25.9230769231 159.923076923 25.9230769231 159.923076923 43.1065088757 c 0,85,86
 159.923076923 64.9090909091 159.923076923 64.9090909091 171 78 c 256,87,88
 183 91 183 91 200 92 c 0,89,90
 217 92 217 92 228 78 c 256,91,92
 240 65 240 65 240 46 c 0,93,94
 240 28 240 28 228 13 c 0,95,96
 216 0 216 0 200 0 c 1,97,-1
 200 0 l 1,81,82
160 83 m 1,98,99
 143 83 143 83 132 97 c 256,100,101
 120 110 120 110 120 129 c 256,102,103
 120 148 120 148 132 162 c 256,104,105
 144 175 144 175 160 175 c 256,106,107
 177 175 177 175 188 162 c 0,108,109
 200 149 200 149 200 129 c 256,110,111
 200 110 200 110 188 97 c 128,-1,112
 176 84 176 84 160 83 c 1,113,-1
 160 83 l 1,98,99
120 167 m 1,114,115
 103 167 103 167 91 180 c 256,116,117
 79.9230769231 191.076923077 79.9230769231 191.076923077 79.9230769231 208.970414201 c 0,118,119
 79.9230769231 229.902097902 79.9230769231 229.902097902 91 244 c 0,120,121
 97 250 97 250 102 254 c 1,122,-1
 102 254 l 1,123,124
 96 257 96 257 91 263 c 0,125,126
 79.9230769231 275 79.9230769231 275 79.9230769231 292.964497041 c 0,127,128
 79.9230769231 313.902097902 79.9230769231 313.902097902 91 328 c 0,129,130
 97 334 97 334 102 338 c 1,131,-1
 102 338 l 1,132,133
 96 341 96 341 91 347 c 0,134,135
 79.9230769231 359 79.9230769231 359 79.9230769231 376.112426036 c 0,136,137
 79.9230769231 397.902097902 79.9230769231 397.902097902 91 412 c 256,138,139
 103 425 103 425 120 425 c 128,-1,140
 137 425 137 425 148 412 c 256,141,142
 160 399 160 399 160 379 c 0,143,144
 160 361 160 361 148 347 c 0,145,146
 143 342 143 342 137 338 c 1,147,-1
 137 338 l 1,148,149
 143 335 143 335 148 328 c 0,150,151
 160 315 160 315 160 296 c 128,-1,152
 160 277 160 277 148 263 c 0,153,154
 143 257 143 257 137 254 c 1,155,-1
 137 254 l 1,156,157
 143 251 143 251 148 244 c 0,158,159
 160 230 160 230 160 212 c 0,160,161
 160 193 160 193 148 180 c 256,162,163
 136 167 136 167 120 167 c 1,164,-1
 120 167 l 1,114,115
160 417 m 1,165,166
 143 417 143 417 132 430 c 0,167,168
 120 444 120 444 120 462 c 0,169,170
 120 481 120 481 132 495 c 256,171,172
 144 508 144 508 160 508 c 256,173,174
 177 508 177 508 188 495 c 0,175,176
 200 482 200 482 200 462 c 0,177,178
 200 444 200 444 188 430 c 0,179,180
 176 417 176 417 160 417 c 1,181,-1
 160 417 l 1,165,166
200 500 m 1,182,183
 183 500 183 500 171 513 c 256,184,185
 159.923076923 525 159.923076923 525 159.923076923 542.964497041 c 0,186,187
 159.923076923 564.909090909 159.923076923 564.909090909 171 578 c 256,188,189
 183 591 183 591 200 592 c 0,190,191
 217 592 217 592 228 578 c 256,192,193
 240 565 240 565 240 546 c 256,194,195
 240 527 240 527 228 513 c 256,196,197
 216 500 216 500 200 500 c 1,198,-1
 200 500 l 1,182,183
EndSplineSet
Validated: 524293
EndChar

StartChar: parenright
Encoding: 41 41 9
Width: 360
VWidth: 833
Flags: W
LayerCount: 2
Fore
SplineSet
40 -167 m 1,0,1
 23 -167 23 -167 11 -153 c 0,2,3
 0 -140 0 -140 0 -121 c 0,4,5
 0 -103 0 -103 11 -88 c 0,6,7
 23 -75 23 -75 40 -75 c 256,8,9
 57 -75 57 -75 68 -88 c 256,10,11
 80 -101 80 -101 80 -121 c 0,12,13
 80 -140 80 -140 68 -153 c 256,14,15
 56 -166 56 -166 40 -167 c 1,16,-1
 40 -167 l 1,0,1
120 -167 m 1,17,18
 103 -167 103 -167 91 -153 c 256,19,20
 79.9230769231 -141 79.9230769231 -141 79.9230769231 -123.887573964 c 0,21,22
 79.9230769231 -103.104895105 79.9230769231 -103.104895105 91 -88 c 256,23,24
 103 -75 103 -75 120 -75 c 128,-1,25
 137 -75 137 -75 148 -88 c 256,26,27
 160 -101 160 -101 160 -121 c 0,28,29
 160 -140 160 -140 148 -153 c 256,30,31
 136 -166 136 -166 120 -167 c 1,32,-1
 120 -167 l 1,17,18
200 -167 m 1,33,34
 183 -167 183 -167 171 -153 c 256,35,36
 159.923076923 -141 159.923076923 -141 159.923076923 -123.887573964 c 0,37,38
 159.923076923 -103.104895105 159.923076923 -103.104895105 171 -88 c 256,39,40
 183 -75 183 -75 200 -75 c 128,-1,41
 217 -75 217 -75 228 -88 c 256,42,43
 240 -101 240 -101 240 -121 c 0,44,45
 240 -140 240 -140 228 -153 c 256,46,47
 216 -166 216 -166 200 -167 c 1,48,-1
 200 -167 l 1,33,34
280 -167 m 1,49,50
 263 -167 263 -167 251 -153 c 256,51,52
 239.923076923 -141 239.923076923 -141 239.923076923 -123.887573964 c 0,53,54
 239.923076923 -103.104895105 239.923076923 -103.104895105 251 -88 c 256,55,56
 263 -75 263 -75 280 -75 c 128,-1,57
 297 -75 297 -75 308 -88 c 256,58,59
 320 -101 320 -101 320 -121 c 0,60,61
 320 -140 320 -140 308 -153 c 256,62,63
 296 -166 296 -166 280 -167 c 1,64,-1
 280 -167 l 1,49,50
360 -167 m 1,65,66
 343 -167 343 -167 332 -153 c 256,67,68
 320 -140 320 -140 320 -121 c 0,69,70
 320 -103 320 -103 332 -88 c 256,71,72
 344 -75 344 -75 360 -75 c 256,73,74
 377 -75 377 -75 388 -88 c 0,75,76
 400 -101 400 -101 400 -121 c 0,77,78
 400 -140 400 -140 388 -153 c 128,-1,79
 376 -166 376 -166 360 -167 c 1,80,-1
 360 -167 l 1,65,66
120 0 m 1,81,82
 103 0 103 0 91 13 c 0,83,84
 79.9230769231 25.9230769231 79.9230769231 25.9230769231 79.9230769231 43.1065088757 c 0,85,86
 79.9230769231 64.9090909091 79.9230769231 64.9090909091 91 78 c 256,87,88
 103 91 103 91 120 92 c 0,89,90
 137 92 137 92 148 78 c 256,91,92
 160 65 160 65 160 46 c 0,93,94
 160 28 160 28 148 13 c 0,95,96
 136 0 136 0 120 0 c 1,97,-1
 120 0 l 1,81,82
160 83 m 1,98,99
 143 83 143 83 132 97 c 256,100,101
 120 110 120 110 120 129 c 256,102,103
 120 148 120 148 132 162 c 256,104,105
 144 175 144 175 160 175 c 256,106,107
 177 175 177 175 188 162 c 0,108,109
 200 149 200 149 200 129 c 256,110,111
 200 110 200 110 188 97 c 128,-1,112
 176 84 176 84 160 83 c 1,113,-1
 160 83 l 1,98,99
200 167 m 1,114,115
 183 167 183 167 171 180 c 256,116,117
 159.923076923 191.076923077 159.923076923 191.076923077 159.923076923 208.970414201 c 0,118,119
 159.923076923 229.902097902 159.923076923 229.902097902 171 244 c 0,120,121
 176 250 176 250 183 254 c 1,122,-1
 183 254 l 1,123,124
 177 257 177 257 171 263 c 0,125,126
 159.923076923 275 159.923076923 275 159.923076923 292.964497041 c 0,127,128
 159.923076923 313.902097902 159.923076923 313.902097902 171 328 c 0,129,130
 176 334 176 334 183 338 c 1,131,-1
 183 338 l 1,132,133
 177 341 177 341 171 347 c 0,134,135
 159.923076923 359 159.923076923 359 159.923076923 376.112426036 c 0,136,137
 159.923076923 397.902097902 159.923076923 397.902097902 171 412 c 256,138,139
 183 425 183 425 200 425 c 128,-1,140
 217 425 217 425 228 412 c 256,141,142
 240 399 240 399 240 379 c 0,143,144
 240 361 240 361 228 347 c 0,145,146
 223 342 223 342 217 338 c 1,147,-1
 217 338 l 1,148,149
 223 335 223 335 228 328 c 0,150,151
 240 315 240 315 240 296 c 128,-1,152
 240 277 240 277 228 263 c 0,153,154
 223 257 223 257 217 254 c 1,155,-1
 217 254 l 1,156,157
 223 251 223 251 228 244 c 0,158,159
 240 230 240 230 240 212 c 0,160,161
 240 193 240 193 228 180 c 256,162,163
 216 167 216 167 200 167 c 1,164,-1
 200 167 l 1,114,115
160 417 m 1,165,166
 143 417 143 417 132 430 c 0,167,168
 120 444 120 444 120 462 c 0,169,170
 120 481 120 481 132 495 c 256,171,172
 144 508 144 508 160 508 c 256,173,174
 177 508 177 508 188 495 c 0,175,176
 200 482 200 482 200 462 c 0,177,178
 200 444 200 444 188 430 c 0,179,180
 176 417 176 417 160 417 c 1,181,-1
 160 417 l 1,165,166
120 500 m 1,182,183
 103 500 103 500 91 513 c 256,184,185
 79.9230769231 525 79.9230769231 525 79.9230769231 542.964497041 c 0,186,187
 79.9230769231 564.909090909 79.9230769231 564.909090909 91 578 c 256,188,189
 103 591 103 591 120 592 c 0,190,191
 137 592 137 592 148 578 c 256,192,193
 160 565 160 565 160 546 c 256,194,195
 160 527 160 527 148 513 c 256,196,197
 136 500 136 500 120 500 c 1,198,-1
 120 500 l 1,182,183
EndSplineSet
Validated: 524293
EndChar

StartChar: asterisk
Encoding: 42 42 10
Width: 360
VWidth: 833
Flags: W
LayerCount: 2
Fore
SplineSet
40 -167 m 1,0,1
 23 -167 23 -167 11 -153 c 0,2,3
 0 -140 0 -140 0 -121 c 0,4,5
 0 -103 0 -103 11 -88 c 0,6,7
 23 -75 23 -75 40 -75 c 256,8,9
 57 -75 57 -75 68 -88 c 256,10,11
 80 -101 80 -101 80 -121 c 0,12,13
 80 -140 80 -140 68 -153 c 256,14,15
 56 -166 56 -166 40 -167 c 1,16,-1
 40 -167 l 1,0,1
120 -167 m 1,17,18
 103 -167 103 -167 91 -153 c 256,19,20
 79.9230769231 -141 79.9230769231 -141 79.9230769231 -123.887573964 c 0,21,22
 79.9230769231 -103.104895105 79.9230769231 -103.104895105 91 -88 c 256,23,24
 103 -75 103 -75 120 -75 c 128,-1,25
 137 -75 137 -75 148 -88 c 256,26,27
 160 -101 160 -101 160 -121 c 0,28,29
 160 -140 160 -140 148 -153 c 256,30,31
 136 -166 136 -166 120 -167 c 1,32,-1
 120 -167 l 1,17,18
200 -167 m 1,33,34
 183 -167 183 -167 171 -153 c 256,35,36
 159.923076923 -141 159.923076923 -141 159.923076923 -123.887573964 c 0,37,38
 159.923076923 -103.104895105 159.923076923 -103.104895105 171 -88 c 256,39,40
 183 -75 183 -75 200 -75 c 128,-1,41
 217 -75 217 -75 228 -88 c 256,42,43
 240 -101 240 -101 240 -121 c 0,44,45
 240 -140 240 -140 228 -153 c 256,46,47
 216 -166 216 -166 200 -167 c 1,48,-1
 200 -167 l 1,33,34
280 -167 m 1,49,50
 263 -167 263 -167 251 -153 c 256,51,52
 239.923076923 -141 239.923076923 -141 239.923076923 -123.887573964 c 0,53,54
 239.923076923 -103.104895105 239.923076923 -103.104895105 251 -88 c 256,55,56
 263 -75 263 -75 280 -75 c 128,-1,57
 297 -75 297 -75 308 -88 c 256,58,59
 320 -101 320 -101 320 -121 c 0,60,61
 320 -140 320 -140 308 -153 c 256,62,63
 296 -166 296 -166 280 -167 c 1,64,-1
 280 -167 l 1,49,50
360 -167 m 1,65,66
 343 -167 343 -167 332 -153 c 256,67,68
 320 -140 320 -140 320 -121 c 0,69,70
 320 -103 320 -103 332 -88 c 256,71,72
 344 -75 344 -75 360 -75 c 256,73,74
 377 -75 377 -75 388 -88 c 0,75,76
 400 -101 400 -101 400 -121 c 0,77,78
 400 -140 400 -140 388 -153 c 128,-1,79
 376 -166 376 -166 360 -167 c 1,80,-1
 360 -167 l 1,65,66
40 83 m 1,81,82
 23 83 23 83 11 97 c 0,83,84
 0 110 0 110 0 129 c 256,85,86
 0 148 0 148 11 162 c 0,87,88
 23 175 23 175 40 175 c 256,89,90
 57 175 57 175 68 162 c 256,91,92
 80 149 80 149 80 129 c 256,93,94
 80 110 80 110 68 97 c 256,95,96
 56 84 56 84 40 83 c 1,97,-1
 40 83 l 1,81,82
280 83 m 1,98,99
 263 83 263 83 251 97 c 256,100,101
 239.923076923 109 239.923076923 109 239.923076923 126.112426036 c 0,102,103
 239.923076923 147.902097902 239.923076923 147.902097902 251 162 c 256,104,105
 263 175 263 175 280 175 c 128,-1,106
 297 175 297 175 308 162 c 256,107,108
 320 149 320 149 320 129 c 256,109,110
 320 110 320 110 308 97 c 256,111,112
 296 84 296 84 280 83 c 1,113,-1
 280 83 l 1,98,99
80 167 m 1,114,115
 63 167 63 167 51 180 c 256,116,117
 39.9230769231 191.076923077 39.9230769231 191.076923077 39.9230769231 208.970414201 c 0,118,119
 39.9230769231 229.902097902 39.9230769231 229.902097902 51 244 c 256,120,121
 63 257 63 257 80 258 c 0,122,123
 97 258 97 258 108 244 c 256,124,125
 120 230 120 230 120 212 c 0,126,127
 120 193 120 193 108 180 c 256,128,129
 96 167 96 167 80 167 c 1,130,-1
 80 167 l 1,114,115
160 83 m 1,131,132
 143 83 143 83 132 97 c 256,133,134
 120 110 120 110 120 129 c 256,135,136
 120 148 120 148 132 162 c 0,137,138
 137 168 137 168 143 171 c 1,139,-1
 143 171 l 1,140,141
 137 174 137 174 132 180 c 0,142,143
 120 192 120 192 120 212 c 0,144,145
 120 230 120 230 132 244 c 256,146,147
 144 257 144 257 160 258 c 256,148,149
 177 258 177 258 188 244 c 0,150,151
 200 230 200 230 200 212 c 0,152,153
 200 193 200 193 188 180 c 0,154,155
 182 174 182 174 177 171 c 1,156,-1
 177 171 l 1,157,158
 183 168 183 168 188 162 c 0,159,160
 200 149 200 149 200 129 c 256,161,162
 200 110 200 110 188 97 c 128,-1,163
 176 84 176 84 160 83 c 1,164,-1
 160 83 l 1,131,132
240 167 m 1,165,166
 223 167 223 167 211 180 c 0,167,168
 200 192 200 192 200 212 c 0,169,170
 200 230 200 230 211 244 c 0,171,172
 223 257 223 257 240 258 c 256,173,174
 257 258 257 258 268 244 c 256,175,176
 280 230 280 230 280 212 c 0,177,178
 280 193 280 193 268 180 c 256,179,180
 256 167 256 167 240 167 c 1,181,-1
 240 167 l 1,165,166
120 250 m 1,182,183
 103 250 103 250 91 263 c 256,184,185
 79.9230769231 275 79.9230769231 275 79.9230769231 292.964497041 c 0,186,187
 79.9230769231 313.902097902 79.9230769231 313.902097902 91 328 c 256,188,189
 103 341 103 341 120 342 c 0,190,191
 137 342 137 342 148 328 c 256,192,193
 160 315 160 315 160 296 c 128,-1,194
 160 277 160 277 148 263 c 256,195,196
 136 250 136 250 120 250 c 1,197,-1
 120 250 l 1,182,183
200 250 m 1,198,199
 183 250 183 250 171 263 c 256,200,201
 159.923076923 275 159.923076923 275 159.923076923 292.964497041 c 0,202,203
 159.923076923 313.902097902 159.923076923 313.902097902 171 328 c 256,204,205
 183 341 183 341 200 342 c 0,206,207
 217 342 217 342 228 328 c 256,208,209
 240 315 240 315 240 296 c 128,-1,210
 240 277 240 277 228 263 c 256,211,212
 216 250 216 250 200 250 c 1,213,-1
 200 250 l 1,198,199
80 333 m 1,214,215
 63 333 63 333 51 347 c 256,216,217
 39.9230769231 359 39.9230769231 359 39.9230769231 376.112426036 c 0,218,219
 39.9230769231 397.902097902 39.9230769231 397.902097902 51 412 c 256,220,221
 63 425 63 425 80 425 c 128,-1,222
 97 425 97 425 108 412 c 256,223,224
 120 399 120 399 120 379 c 0,225,226
 120 361 120 361 108 347 c 256,227,228
 96 334 96 334 80 333 c 1,229,-1
 80 333 l 1,214,215
240 333 m 1,230,231
 223 333 223 333 211 347 c 0,232,233
 200 360 200 360 200 379 c 128,-1,234
 200 398 200 398 211 412 c 0,235,236
 223 425 223 425 240 425 c 256,237,238
 257 425 257 425 268 412 c 256,239,240
 280 399 280 399 280 379 c 0,241,242
 280 361 280 361 268 347 c 256,243,244
 256 334 256 334 240 333 c 1,245,-1
 240 333 l 1,230,231
40 417 m 1,246,247
 23 417 23 417 11 430 c 0,248,249
 0 444 0 444 0 462 c 0,250,251
 0 481 0 481 11 495 c 0,252,253
 23 508 23 508 40 508 c 256,254,255
 57 508 57 508 68 495 c 256,256,257
 80 482 80 482 80 462 c 0,258,259
 80 444 80 444 68 430 c 0,260,261
 56 417 56 417 40 417 c 1,262,-1
 40 417 l 1,246,247
160 333 m 1,263,264
 143 333 143 333 132 347 c 256,265,266
 120 360 120 360 120 379 c 128,-1,267
 120 398 120 398 132 412 c 0,268,269
 137 418 137 418 143 421 c 1,270,-1
 143 421 l 1,271,272
 137 424 137 424 132 430 c 0,273,274
 120 444 120 444 120 462 c 0,275,276
 120 481 120 481 132 495 c 256,277,278
 144 508 144 508 160 508 c 256,279,280
 177 508 177 508 188 495 c 0,281,282
 200 482 200 482 200 462 c 0,283,284
 200 444 200 444 188 430 c 0,285,286
 182 424 182 424 177 421 c 1,287,-1
 177 421 l 1,288,289
 183 418 183 418 188 412 c 0,290,291
 200 399 200 399 200 379 c 0,292,293
 200 361 200 361 188 347 c 0,294,295
 176 334 176 334 160 333 c 1,296,-1
 160 333 l 1,263,264
280 417 m 1,297,298
 263 417 263 417 251 430 c 0,299,300
 239.923076923 442.923076923 239.923076923 442.923076923 239.923076923 459.25443787 c 0,301,302
 239.923076923 480.902097902 239.923076923 480.902097902 251 495 c 256,303,304
 263 508 263 508 280 508 c 128,-1,305
 297 508 297 508 308 495 c 256,306,307
 320 482 320 482 320 462 c 0,308,309
 320 444 320 444 308 430 c 0,310,311
 296 417 296 417 280 417 c 1,312,-1
 280 417 l 1,297,298
EndSplineSet
Validated: 524293
EndChar

StartChar: plus
Encoding: 43 43 11
Width: 360
VWidth: 833
Flags: W
LayerCount: 2
Fore
SplineSet
40 -167 m 1,0,1
 23 -167 23 -167 11 -153 c 0,2,3
 0 -140 0 -140 0 -121 c 0,4,5
 0 -103 0 -103 11 -88 c 0,6,7
 23 -75 23 -75 40 -75 c 256,8,9
 57 -75 57 -75 68 -88 c 256,10,11
 80 -101 80 -101 80 -121 c 0,12,13
 80 -140 80 -140 68 -153 c 256,14,15
 56 -166 56 -166 40 -167 c 1,16,-1
 40 -167 l 1,0,1
120 -167 m 1,17,18
 103 -167 103 -167 91 -153 c 256,19,20
 79.9230769231 -141 79.9230769231 -141 79.9230769231 -123.887573964 c 0,21,22
 79.9230769231 -103.104895105 79.9230769231 -103.104895105 91 -88 c 256,23,24
 103 -75 103 -75 120 -75 c 128,-1,25
 137 -75 137 -75 148 -88 c 256,26,27
 160 -101 160 -101 160 -121 c 0,28,29
 160 -140 160 -140 148 -153 c 256,30,31
 136 -166 136 -166 120 -167 c 1,32,-1
 120 -167 l 1,17,18
200 -167 m 1,33,34
 183 -167 183 -167 171 -153 c 256,35,36
 159.923076923 -141 159.923076923 -141 159.923076923 -123.887573964 c 0,37,38
 159.923076923 -103.104895105 159.923076923 -103.104895105 171 -88 c 256,39,40
 183 -75 183 -75 200 -75 c 128,-1,41
 217 -75 217 -75 228 -88 c 256,42,43
 240 -101 240 -101 240 -121 c 0,44,45
 240 -140 240 -140 228 -153 c 256,46,47
 216 -166 216 -166 200 -167 c 1,48,-1
 200 -167 l 1,33,34
280 -167 m 1,49,50
 263 -167 263 -167 251 -153 c 256,51,52
 239.923076923 -141 239.923076923 -141 239.923076923 -123.887573964 c 0,53,54
 239.923076923 -103.104895105 239.923076923 -103.104895105 251 -88 c 256,55,56
 263 -75 263 -75 280 -75 c 128,-1,57
 297 -75 297 -75 308 -88 c 256,58,59
 320 -101 320 -101 320 -121 c 0,60,61
 320 -140 320 -140 308 -153 c 256,62,63
 296 -166 296 -166 280 -167 c 1,64,-1
 280 -167 l 1,49,50
360 -167 m 1,65,66
 343 -167 343 -167 332 -153 c 256,67,68
 320 -140 320 -140 320 -121 c 0,69,70
 320 -103 320 -103 332 -88 c 256,71,72
 344 -75 344 -75 360 -75 c 256,73,74
 377 -75 377 -75 388 -88 c 0,75,76
 400 -101 400 -101 400 -121 c 0,77,78
 400 -140 400 -140 388 -153 c 128,-1,79
 376 -166 376 -166 360 -167 c 1,80,-1
 360 -167 l 1,65,66
160 83 m 1,81,82
 143 83 143 83 132 97 c 256,83,84
 120 110 120 110 120 129 c 256,85,86
 120 148 120 148 132 162 c 0,87,88
 137 168 137 168 143 171 c 1,89,-1
 143 171 l 1,90,91
 137 174 137 174 132 180 c 0,92,93
 120 192 120 192 120 212 c 0,94,95
 120 230 120 230 132 244 c 256,96,97
 144 257 144 257 160 258 c 256,98,99
 177 258 177 258 188 244 c 0,100,101
 200 230 200 230 200 212 c 0,102,103
 200 193 200 193 188 180 c 0,104,105
 182 174 182 174 177 171 c 1,106,-1
 177 171 l 1,107,108
 183 168 183 168 188 162 c 0,109,110
 200 149 200 149 200 129 c 256,111,112
 200 110 200 110 188 97 c 128,-1,113
 176 84 176 84 160 83 c 1,114,-1
 160 83 l 1,81,82
40 250 m 1,115,116
 23 250 23 250 11 263 c 0,117,118
 0 276 0 276 0 296 c 0,119,120
 0 314 0 314 11 328 c 0,121,122
 23 341 23 341 40 342 c 256,123,124
 57 342 57 342 68 328 c 256,125,126
 80 315 80 315 80 296 c 128,-1,127
 80 277 80 277 68 263 c 256,128,129
 56 250 56 250 40 250 c 1,130,-1
 40 250 l 1,115,116
120 250 m 1,131,132
 103 250 103 250 91 263 c 256,133,134
 79.9230769231 275 79.9230769231 275 79.9230769231 292.964497041 c 0,135,136
 79.9230769231 313.902097902 79.9230769231 313.902097902 91 328 c 256,137,138
 103 341 103 341 120 342 c 0,139,140
 137 342 137 342 148 328 c 256,141,142
 160 315 160 315 160 296 c 128,-1,143
 160 277 160 277 148 263 c 256,144,145
 136 250 136 250 120 250 c 1,146,-1
 120 250 l 1,131,132
200 250 m 1,147,148
 183 250 183 250 171 263 c 256,149,150
 159.923076923 275 159.923076923 275 159.923076923 292.964497041 c 0,151,152
 159.923076923 313.902097902 159.923076923 313.902097902 171 328 c 256,153,154
 183 341 183 341 200 342 c 0,155,156
 217 342 217 342 228 328 c 256,157,158
 240 315 240 315 240 296 c 128,-1,159
 240 277 240 277 228 263 c 256,160,161
 216 250 216 250 200 250 c 1,162,-1
 200 250 l 1,147,148
280 250 m 1,163,164
 263 250 263 250 251 263 c 256,165,166
 239.923076923 275 239.923076923 275 239.923076923 292.964497041 c 0,167,168
 239.923076923 313.902097902 239.923076923 313.902097902 251 328 c 256,169,170
 263 341 263 341 280 342 c 0,171,172
 297 342 297 342 308 328 c 256,173,174
 320 315 320 315 320 296 c 128,-1,175
 320 277 320 277 308 263 c 256,176,177
 296 250 296 250 280 250 c 1,178,-1
 280 250 l 1,163,164
160 333 m 1,179,180
 143 333 143 333 132 347 c 256,181,182
 120 360 120 360 120 379 c 128,-1,183
 120 398 120 398 132 412 c 0,184,185
 137 418 137 418 143 421 c 1,186,-1
 143 421 l 1,187,188
 137 424 137 424 132 430 c 0,189,190
 120 444 120 444 120 462 c 0,191,192
 120 481 120 481 132 495 c 256,193,194
 144 508 144 508 160 508 c 256,195,196
 177 508 177 508 188 495 c 0,197,198
 200 482 200 482 200 462 c 0,199,200
 200 444 200 444 188 430 c 0,201,202
 182 424 182 424 177 421 c 1,203,-1
 177 421 l 1,204,205
 183 418 183 418 188 412 c 0,206,207
 200 399 200 399 200 379 c 0,208,209
 200 361 200 361 188 347 c 0,210,211
 176 334 176 334 160 333 c 1,212,-1
 160 333 l 1,179,180
EndSplineSet
Validated: 524293
EndChar

StartChar: comma
Encoding: 44 44 12
Width: 360
VWidth: 833
Flags: W
LayerCount: 2
Fore
SplineSet
40 -167 m 1,0,1
 23 -167 23 -167 11 -153 c 0,2,3
 0 -140 0 -140 0 -121 c 0,4,5
 0 -103 0 -103 11 -88 c 0,6,7
 23 -75 23 -75 40 -75 c 256,8,9
 57 -75 57 -75 68 -88 c 256,10,11
 80 -101 80 -101 80 -121 c 0,12,13
 80 -140 80 -140 68 -153 c 256,14,15
 56 -166 56 -166 40 -167 c 1,16,-1
 40 -167 l 1,0,1
200 -167 m 1,17,18
 183 -167 183 -167 171 -153 c 256,19,20
 159.923076923 -141 159.923076923 -141 159.923076923 -123.887573964 c 0,21,22
 159.923076923 -103.104895105 159.923076923 -103.104895105 171 -88 c 256,23,24
 183 -75 183 -75 200 -75 c 128,-1,25
 217 -75 217 -75 228 -88 c 256,26,27
 240 -101 240 -101 240 -121 c 0,28,29
 240 -140 240 -140 228 -153 c 256,30,31
 216 -166 216 -166 200 -167 c 1,32,-1
 200 -167 l 1,17,18
280 -167 m 1,33,34
 263 -167 263 -167 251 -153 c 256,35,36
 239.923076923 -141 239.923076923 -141 239.923076923 -123.887573964 c 0,37,38
 239.923076923 -103.104895105 239.923076923 -103.104895105 251 -88 c 256,39,40
 263 -75 263 -75 280 -75 c 128,-1,41
 297 -75 297 -75 308 -88 c 256,42,43
 320 -101 320 -101 320 -121 c 0,44,45
 320 -140 320 -140 308 -153 c 256,46,47
 296 -166 296 -166 280 -167 c 1,48,-1
 280 -167 l 1,33,34
360 -167 m 1,49,50
 343 -167 343 -167 332 -153 c 256,51,52
 320 -140 320 -140 320 -121 c 0,53,54
 320 -103 320 -103 332 -88 c 256,55,56
 344 -75 344 -75 360 -75 c 256,57,58
 377 -75 377 -75 388 -88 c 0,59,60
 400 -101 400 -101 400 -121 c 0,61,62
 400 -140 400 -140 388 -153 c 128,-1,63
 376 -166 376 -166 360 -167 c 1,64,-1
 360 -167 l 1,49,50
120 -167 m 1,65,66
 103 -167 103 -167 91 -153 c 256,67,68
 79.9230769231 -141 79.9230769231 -141 79.9230769231 -123.887573964 c 0,69,70
 79.9230769231 -103.104895105 79.9230769231 -103.104895105 91 -88 c 0,71,72
 97 -82 97 -82 102 -79 c 1,73,-1
 102 -79 l 1,74,75
 96 -76 96 -76 91 -69 c 0,76,77
 79.9230769231 -57 79.9230769231 -57 79.9230769231 -40.7396449704 c 0,78,79
 79.9230769231 -19.0979020979 79.9230769231 -19.0979020979 91 -5 c 0,80,81
 103 8 103 8 120 8 c 128,-1,82
 137 8 137 8 148 -5 c 0,83,84
 160 -18 160 -18 160 -38 c 0,85,86
 160 -56 160 -56 148 -69 c 0,87,88
 143 -75 143 -75 137 -79 c 1,89,-1
 137 -79 l 1,90,91
 143 -82 143 -82 148 -88 c 0,92,93
 160 -101 160 -101 160 -121 c 0,94,95
 160 -140 160 -140 148 -153 c 256,96,97
 136 -166 136 -166 120 -167 c 1,98,-1
 120 -167 l 1,65,66
120 8 m 1,99,-1
 120 8 l 257,100,-1
 120 8 l 1,101,-1
 120 8 l 1,99,-1
160 0 m 1,102,103
 143 0 143 0 132 13 c 0,104,105
 120 27 120 27 120 46 c 128,-1,106
 120 65 120 65 132 78 c 256,107,108
 144 91 144 91 160 92 c 256,109,110
 177 92 177 92 188 78 c 0,111,112
 200 65 200 65 200 46 c 0,113,114
 200 28 200 28 188 13 c 0,115,116
 176 0 176 0 160 0 c 1,117,-1
 160 0 l 1,102,103
120 83 m 1,118,119
 103 83 103 83 91 97 c 256,120,121
 79.9230769231 109 79.9230769231 109 79.9230769231 126.112426036 c 0,122,123
 79.9230769231 147.902097902 79.9230769231 147.902097902 91 162 c 256,124,125
 103 175 103 175 120 175 c 128,-1,126
 137 175 137 175 148 162 c 256,127,128
 160 149 160 149 160 129 c 256,129,130
 160 110 160 110 148 97 c 256,131,132
 136 84 136 84 120 83 c 1,133,-1
 120 83 l 1,118,119
200 83 m 1,134,135
 183 83 183 83 171 97 c 256,136,137
 159.923076923 109 159.923076923 109 159.923076923 126.112426036 c 0,138,139
 159.923076923 147.902097902 159.923076923 147.902097902 171 162 c 256,140,141
 183 175 183 175 200 175 c 128,-1,142
 217 175 217 175 228 162 c 256,143,144
 240 149 240 149 240 129 c 256,145,146
 240 110 240 110 228 97 c 256,147,148
 216 84 216 84 200 83 c 1,149,-1
 200 83 l 1,134,135
160 167 m 1,150,151
 143 167 143 167 132 180 c 256,152,153
 120 192 120 192 120 212 c 0,154,155
 120 230 120 230 132 244 c 256,156,157
 144 257 144 257 160 258 c 256,158,159
 177 258 177 258 188 244 c 0,160,161
 200 230 200 230 200 212 c 0,162,163
 200 193 200 193 188 180 c 128,-1,164
 176 167 176 167 160 167 c 1,165,-1
 160 167 l 1,150,151
EndSplineSet
Validated: 524293
EndChar

StartChar: hyphen
Encoding: 45 45 13
Width: 360
VWidth: 833
Flags: W
LayerCount: 2
Fore
SplineSet
40 -167 m 1,0,1
 23 -167 23 -167 11 -153 c 0,2,3
 0 -140 0 -140 0 -121 c 0,4,5
 0 -103 0 -103 11 -88 c 0,6,7
 23 -75 23 -75 40 -75 c 256,8,9
 57 -75 57 -75 68 -88 c 256,10,11
 80 -101 80 -101 80 -121 c 0,12,13
 80 -140 80 -140 68 -153 c 256,14,15
 56 -166 56 -166 40 -167 c 1,16,-1
 40 -167 l 1,0,1
120 -167 m 1,17,18
 103 -167 103 -167 91 -153 c 256,19,20
 79.9230769231 -141 79.9230769231 -141 79.9230769231 -123.887573964 c 0,21,22
 79.9230769231 -103.104895105 79.9230769231 -103.104895105 91 -88 c 256,23,24
 103 -75 103 -75 120 -75 c 128,-1,25
 137 -75 137 -75 148 -88 c 256,26,27
 160 -101 160 -101 160 -121 c 0,28,29
 160 -140 160 -140 148 -153 c 256,30,31
 136 -166 136 -166 120 -167 c 1,32,-1
 120 -167 l 1,17,18
200 -167 m 1,33,34
 183 -167 183 -167 171 -153 c 256,35,36
 159.923076923 -141 159.923076923 -141 159.923076923 -123.887573964 c 0,37,38
 159.923076923 -103.104895105 159.923076923 -103.104895105 171 -88 c 256,39,40
 183 -75 183 -75 200 -75 c 128,-1,41
 217 -75 217 -75 228 -88 c 256,42,43
 240 -101 240 -101 240 -121 c 0,44,45
 240 -140 240 -140 228 -153 c 256,46,47
 216 -166 216 -166 200 -167 c 1,48,-1
 200 -167 l 1,33,34
280 -167 m 1,49,50
 263 -167 263 -167 251 -153 c 256,51,52
 239.923076923 -141 239.923076923 -141 239.923076923 -123.887573964 c 0,53,54
 239.923076923 -103.104895105 239.923076923 -103.104895105 251 -88 c 256,55,56
 263 -75 263 -75 280 -75 c 128,-1,57
 297 -75 297 -75 308 -88 c 256,58,59
 320 -101 320 -101 320 -121 c 0,60,61
 320 -140 320 -140 308 -153 c 256,62,63
 296 -166 296 -166 280 -167 c 1,64,-1
 280 -167 l 1,49,50
360 -167 m 1,65,66
 343 -167 343 -167 332 -153 c 256,67,68
 320 -140 320 -140 320 -121 c 0,69,70
 320 -103 320 -103 332 -88 c 256,71,72
 344 -75 344 -75 360 -75 c 256,73,74
 377 -75 377 -75 388 -88 c 0,75,76
 400 -101 400 -101 400 -121 c 0,77,78
 400 -140 400 -140 388 -153 c 128,-1,79
 376 -166 376 -166 360 -167 c 1,80,-1
 360 -167 l 1,65,66
40 250 m 1,81,82
 23 250 23 250 11 263 c 0,83,84
 0 276 0 276 0 296 c 0,85,86
 0 314 0 314 11 328 c 0,87,88
 23 341 23 341 40 342 c 256,89,90
 57 342 57 342 68 328 c 256,91,92
 80 315 80 315 80 296 c 128,-1,93
 80 277 80 277 68 263 c 256,94,95
 56 250 56 250 40 250 c 1,96,-1
 40 250 l 1,81,82
120 250 m 1,97,98
 103 250 103 250 91 263 c 256,99,100
 79.9230769231 275 79.9230769231 275 79.9230769231 292.964497041 c 0,101,102
 79.9230769231 313.902097902 79.9230769231 313.902097902 91 328 c 256,103,104
 103 341 103 341 120 342 c 0,105,106
 137 342 137 342 148 328 c 256,107,108
 160 315 160 315 160 296 c 128,-1,109
 160 277 160 277 148 263 c 256,110,111
 136 250 136 250 120 250 c 1,112,-1
 120 250 l 1,97,98
200 250 m 1,113,114
 183 250 183 250 171 263 c 256,115,116
 159.923076923 275 159.923076923 275 159.923076923 292.964497041 c 0,117,118
 159.923076923 313.902097902 159.923076923 313.902097902 171 328 c 256,119,120
 183 341 183 341 200 342 c 0,121,122
 217 342 217 342 228 328 c 256,123,124
 240 315 240 315 240 296 c 128,-1,125
 240 277 240 277 228 263 c 256,126,127
 216 250 216 250 200 250 c 1,128,-1
 200 250 l 1,113,114
280 250 m 1,129,130
 263 250 263 250 251 263 c 256,131,132
 239.923076923 275 239.923076923 275 239.923076923 292.964497041 c 0,133,134
 239.923076923 313.902097902 239.923076923 313.902097902 251 328 c 256,135,136
 263 341 263 341 280 342 c 0,137,138
 297 342 297 342 308 328 c 256,139,140
 320 315 320 315 320 296 c 128,-1,141
 320 277 320 277 308 263 c 256,142,143
 296 250 296 250 280 250 c 1,144,-1
 280 250 l 1,129,130
EndSplineSet
Validated: 524293
EndChar

StartChar: period
Encoding: 46 46 14
Width: 360
VWidth: 833
Flags: W
LayerCount: 2
Fore
SplineSet
40 -167 m 1,0,1
 23 -167 23 -167 11 -153 c 0,2,3
 0 -140 0 -140 0 -121 c 0,4,5
 0 -103 0 -103 11 -88 c 0,6,7
 23 -75 23 -75 40 -75 c 256,8,9
 57 -75 57 -75 68 -88 c 256,10,11
 80 -101 80 -101 80 -121 c 0,12,13
 80 -140 80 -140 68 -153 c 256,14,15
 56 -166 56 -166 40 -167 c 1,16,-1
 40 -167 l 1,0,1
120 -167 m 1,17,18
 103 -167 103 -167 91 -153 c 256,19,20
 79.9230769231 -141 79.9230769231 -141 79.9230769231 -123.887573964 c 0,21,22
 79.9230769231 -103.104895105 79.9230769231 -103.104895105 91 -88 c 256,23,24
 103 -75 103 -75 120 -75 c 128,-1,25
 137 -75 137 -75 148 -88 c 256,26,27
 160 -101 160 -101 160 -121 c 0,28,29
 160 -140 160 -140 148 -153 c 256,30,31
 136 -166 136 -166 120 -167 c 1,32,-1
 120 -167 l 1,17,18
200 -167 m 1,33,34
 183 -167 183 -167 171 -153 c 256,35,36
 159.923076923 -141 159.923076923 -141 159.923076923 -123.887573964 c 0,37,38
 159.923076923 -103.104895105 159.923076923 -103.104895105 171 -88 c 256,39,40
 183 -75 183 -75 200 -75 c 128,-1,41
 217 -75 217 -75 228 -88 c 256,42,43
 240 -101 240 -101 240 -121 c 0,44,45
 240 -140 240 -140 228 -153 c 256,46,47
 216 -166 216 -166 200 -167 c 1,48,-1
 200 -167 l 1,33,34
280 -167 m 1,49,50
 263 -167 263 -167 251 -153 c 256,51,52
 239.923076923 -141 239.923076923 -141 239.923076923 -123.887573964 c 0,53,54
 239.923076923 -103.104895105 239.923076923 -103.104895105 251 -88 c 256,55,56
 263 -75 263 -75 280 -75 c 128,-1,57
 297 -75 297 -75 308 -88 c 256,58,59
 320 -101 320 -101 320 -121 c 0,60,61
 320 -140 320 -140 308 -153 c 256,62,63
 296 -166 296 -166 280 -167 c 1,64,-1
 280 -167 l 1,49,50
360 -167 m 1,65,66
 343 -167 343 -167 332 -153 c 256,67,68
 320 -140 320 -140 320 -121 c 0,69,70
 320 -103 320 -103 332 -88 c 256,71,72
 344 -75 344 -75 360 -75 c 256,73,74
 377 -75 377 -75 388 -88 c 0,75,76
 400 -101 400 -101 400 -121 c 0,77,78
 400 -140 400 -140 388 -153 c 128,-1,79
 376 -166 376 -166 360 -167 c 1,80,-1
 360 -167 l 1,65,66
160 0 m 1,81,82
 143 0 143 0 132 13 c 0,83,84
 120 27 120 27 120 46 c 128,-1,85
 120 65 120 65 132 78 c 256,86,87
 144 91 144 91 160 92 c 256,88,89
 177 92 177 92 188 78 c 0,90,91
 200 65 200 65 200 46 c 0,92,93
 200 28 200 28 188 13 c 0,94,95
 176 0 176 0 160 0 c 1,96,-1
 160 0 l 1,81,82
120 83 m 1,97,98
 103 83 103 83 91 97 c 256,99,100
 79.9230769231 109 79.9230769231 109 79.9230769231 126.112426036 c 0,101,102
 79.9230769231 147.902097902 79.9230769231 147.902097902 91 162 c 256,103,104
 103 175 103 175 120 175 c 128,-1,105
 137 175 137 175 148 162 c 256,106,107
 160 149 160 149 160 129 c 256,108,109
 160 110 160 110 148 97 c 256,110,111
 136 84 136 84 120 83 c 1,112,-1
 120 83 l 1,97,98
200 83 m 1,113,114
 183 83 183 83 171 97 c 256,115,116
 159.923076923 109 159.923076923 109 159.923076923 126.112426036 c 0,117,118
 159.923076923 147.902097902 159.923076923 147.902097902 171 162 c 256,119,120
 183 175 183 175 200 175 c 128,-1,121
 217 175 217 175 228 162 c 256,122,123
 240 149 240 149 240 129 c 256,124,125
 240 110 240 110 228 97 c 256,126,127
 216 84 216 84 200 83 c 1,128,-1
 200 83 l 1,113,114
160 167 m 1,129,130
 143 167 143 167 132 180 c 256,131,132
 120 192 120 192 120 212 c 0,133,134
 120 230 120 230 132 244 c 256,135,136
 144 257 144 257 160 258 c 256,137,138
 177 258 177 258 188 244 c 0,139,140
 200 230 200 230 200 212 c 0,141,142
 200 193 200 193 188 180 c 128,-1,143
 176 167 176 167 160 167 c 1,144,-1
 160 167 l 1,129,130
EndSplineSet
Validated: 524293
EndChar

StartChar: slash
Encoding: 47 47 15
Width: 360
VWidth: 833
Flags: W
LayerCount: 2
Fore
SplineSet
40 -167 m 1,0,1
 23 -167 23 -167 11 -153 c 0,2,3
 0 -140 0 -140 0 -121 c 0,4,5
 0 -103 0 -103 11 -88 c 0,6,7
 23 -75 23 -75 40 -75 c 256,8,9
 57 -75 57 -75 68 -88 c 256,10,11
 80 -101 80 -101 80 -121 c 0,12,13
 80 -140 80 -140 68 -153 c 256,14,15
 56 -166 56 -166 40 -167 c 1,16,-1
 40 -167 l 1,0,1
120 -167 m 1,17,18
 103 -167 103 -167 91 -153 c 256,19,20
 79.9230769231 -141 79.9230769231 -141 79.9230769231 -123.887573964 c 0,21,22
 79.9230769231 -103.104895105 79.9230769231 -103.104895105 91 -88 c 256,23,24
 103 -75 103 -75 120 -75 c 128,-1,25
 137 -75 137 -75 148 -88 c 256,26,27
 160 -101 160 -101 160 -121 c 0,28,29
 160 -140 160 -140 148 -153 c 256,30,31
 136 -166 136 -166 120 -167 c 1,32,-1
 120 -167 l 1,17,18
200 -167 m 1,33,34
 183 -167 183 -167 171 -153 c 256,35,36
 159.923076923 -141 159.923076923 -141 159.923076923 -123.887573964 c 0,37,38
 159.923076923 -103.104895105 159.923076923 -103.104895105 171 -88 c 256,39,40
 183 -75 183 -75 200 -75 c 128,-1,41
 217 -75 217 -75 228 -88 c 256,42,43
 240 -101 240 -101 240 -121 c 0,44,45
 240 -140 240 -140 228 -153 c 256,46,47
 216 -166 216 -166 200 -167 c 1,48,-1
 200 -167 l 1,33,34
280 -167 m 1,49,50
 263 -167 263 -167 251 -153 c 256,51,52
 239.923076923 -141 239.923076923 -141 239.923076923 -123.887573964 c 0,53,54
 239.923076923 -103.104895105 239.923076923 -103.104895105 251 -88 c 256,55,56
 263 -75 263 -75 280 -75 c 128,-1,57
 297 -75 297 -75 308 -88 c 256,58,59
 320 -101 320 -101 320 -121 c 0,60,61
 320 -140 320 -140 308 -153 c 256,62,63
 296 -166 296 -166 280 -167 c 1,64,-1
 280 -167 l 1,49,50
360 -167 m 1,65,66
 343 -167 343 -167 332 -153 c 256,67,68
 320 -140 320 -140 320 -121 c 0,69,70
 320 -103 320 -103 332 -88 c 256,71,72
 344 -75 344 -75 360 -75 c 256,73,74
 377 -75 377 -75 388 -88 c 0,75,76
 400 -101 400 -101 400 -121 c 0,77,78
 400 -140 400 -140 388 -153 c 128,-1,79
 376 -166 376 -166 360 -167 c 1,80,-1
 360 -167 l 1,65,66
40 0 m 1,81,82
 23 0 23 0 11 13 c 0,83,84
 0 27 0 27 0 46 c 128,-1,85
 0 65 0 65 11 78 c 0,86,87
 23 91 23 91 40 92 c 256,88,89
 57 92 57 92 68 78 c 256,90,91
 80 65 80 65 80 46 c 0,92,93
 80 28 80 28 68 13 c 0,94,95
 56 0 56 0 40 0 c 1,96,-1
 40 0 l 1,81,82
80 83 m 1,97,98
 63 83 63 83 51 97 c 256,99,100
 39.9230769231 109 39.9230769231 109 39.9230769231 126.112426036 c 0,101,102
 39.9230769231 147.902097902 39.9230769231 147.902097902 51 162 c 256,103,104
 63 175 63 175 80 175 c 128,-1,105
 97 175 97 175 108 162 c 256,106,107
 120 149 120 149 120 129 c 256,108,109
 120 110 120 110 108 97 c 256,110,111
 96 84 96 84 80 83 c 1,112,-1
 80 83 l 1,97,98
120 167 m 1,113,114
 103 167 103 167 91 180 c 256,115,116
 79.9230769231 191.076923077 79.9230769231 191.076923077 79.9230769231 208.970414201 c 0,117,118
 79.9230769231 229.902097902 79.9230769231 229.902097902 91 244 c 256,119,120
 103 257 103 257 120 258 c 0,121,122
 137 258 137 258 148 244 c 256,123,124
 160 230 160 230 160 212 c 0,125,126
 160 193 160 193 148 180 c 256,127,128
 136 167 136 167 120 167 c 1,129,-1
 120 167 l 1,113,114
160 250 m 1,130,131
 143 250 143 250 132 263 c 256,132,133
 120 276 120 276 120 296 c 0,134,135
 120 314 120 314 132 328 c 256,136,137
 144 341 144 341 160 342 c 256,138,139
 177 342 177 342 188 328 c 0,140,141
 200 315 200 315 200 296 c 128,-1,142
 200 277 200 277 188 263 c 0,143,144
 176 250 176 250 160 250 c 1,145,-1
 160 250 l 1,130,131
200 333 m 1,146,147
 183 333 183 333 171 347 c 256,148,149
 159.923076923 359 159.923076923 359 159.923076923 376.112426036 c 0,150,151
 159.923076923 397.902097902 159.923076923 397.902097902 171 412 c 256,152,153
 183 425 183 425 200 425 c 128,-1,154
 217 425 217 425 228 412 c 256,155,156
 240 399 240 399 240 379 c 0,157,158
 240 361 240 361 228 347 c 256,159,160
 216 334 216 334 200 333 c 1,161,-1
 200 333 l 1,146,147
240 417 m 1,162,163
 223 417 223 417 211 430 c 0,164,165
 200 444 200 444 200 462 c 0,166,167
 200 481 200 481 211 495 c 0,168,169
 223 508 223 508 240 508 c 256,170,171
 257 508 257 508 268 495 c 256,172,173
 280 482 280 482 280 462 c 0,174,175
 280 444 280 444 268 430 c 0,176,177
 256 417 256 417 240 417 c 1,178,-1
 240 417 l 1,162,163
280 500 m 1,179,180
 263 500 263 500 251 513 c 256,181,182
 239.923076923 525 239.923076923 525 239.923076923 542.964497041 c 0,183,184
 239.923076923 564.909090909 239.923076923 564.909090909 251 578 c 256,185,186
 263 591 263 591 280 592 c 0,187,188
 297 592 297 592 308 578 c 256,189,190
 320 565 320 565 320 546 c 256,191,192
 320 527 320 527 308 513 c 256,193,194
 296 500 296 500 280 500 c 1,195,-1
 280 500 l 1,179,180
EndSplineSet
Validated: 524293
EndChar

StartChar: zero
Encoding: 48 48 16
Width: 360
VWidth: 833
Flags: W
LayerCount: 2
Fore
SplineSet
40 -167 m 1,0,1
 23 -167 23 -167 11 -153 c 0,2,3
 0 -140 0 -140 0 -121 c 0,4,5
 0 -103 0 -103 11 -88 c 0,6,7
 23 -75 23 -75 40 -75 c 256,8,9
 57 -75 57 -75 68 -88 c 256,10,11
 80 -101 80 -101 80 -121 c 0,12,13
 80 -140 80 -140 68 -153 c 256,14,15
 56 -166 56 -166 40 -167 c 1,16,-1
 40 -167 l 1,0,1
120 -167 m 1,17,18
 103 -167 103 -167 91 -153 c 256,19,20
 79.9230769231 -141 79.9230769231 -141 79.9230769231 -123.887573964 c 0,21,22
 79.9230769231 -103.104895105 79.9230769231 -103.104895105 91 -88 c 256,23,24
 103 -75 103 -75 120 -75 c 128,-1,25
 137 -75 137 -75 148 -88 c 256,26,27
 160 -101 160 -101 160 -121 c 0,28,29
 160 -140 160 -140 148 -153 c 256,30,31
 136 -166 136 -166 120 -167 c 1,32,-1
 120 -167 l 1,17,18
200 -167 m 1,33,34
 183 -167 183 -167 171 -153 c 256,35,36
 159.923076923 -141 159.923076923 -141 159.923076923 -123.887573964 c 0,37,38
 159.923076923 -103.104895105 159.923076923 -103.104895105 171 -88 c 256,39,40
 183 -75 183 -75 200 -75 c 128,-1,41
 217 -75 217 -75 228 -88 c 256,42,43
 240 -101 240 -101 240 -121 c 0,44,45
 240 -140 240 -140 228 -153 c 256,46,47
 216 -166 216 -166 200 -167 c 1,48,-1
 200 -167 l 1,33,34
280 -167 m 1,49,50
 263 -167 263 -167 251 -153 c 256,51,52
 239.923076923 -141 239.923076923 -141 239.923076923 -123.887573964 c 0,53,54
 239.923076923 -103.104895105 239.923076923 -103.104895105 251 -88 c 256,55,56
 263 -75 263 -75 280 -75 c 128,-1,57
 297 -75 297 -75 308 -88 c 256,58,59
 320 -101 320 -101 320 -121 c 0,60,61
 320 -140 320 -140 308 -153 c 256,62,63
 296 -166 296 -166 280 -167 c 1,64,-1
 280 -167 l 1,49,50
360 -167 m 1,65,66
 343 -167 343 -167 332 -153 c 256,67,68
 320 -140 320 -140 320 -121 c 0,69,70
 320 -103 320 -103 332 -88 c 256,71,72
 344 -75 344 -75 360 -75 c 256,73,74
 377 -75 377 -75 388 -88 c 0,75,76
 400 -101 400 -101 400 -121 c 0,77,78
 400 -140 400 -140 388 -153 c 128,-1,79
 376 -166 376 -166 360 -167 c 1,80,-1
 360 -167 l 1,65,66
120 0 m 1,81,82
 103 0 103 0 91 13 c 0,83,84
 79.9230769231 25.9230769231 79.9230769231 25.9230769231 79.9230769231 43.1065088757 c 0,85,86
 79.9230769231 64.9090909091 79.9230769231 64.9090909091 91 78 c 256,87,88
 103 91 103 91 120 92 c 0,89,90
 137 92 137 92 148 78 c 256,91,92
 160 65 160 65 160 46 c 0,93,94
 160 28 160 28 148 13 c 0,95,96
 136 0 136 0 120 0 c 1,97,-1
 120 0 l 1,81,82
200 0 m 1,98,99
 183 0 183 0 171 13 c 0,100,101
 159.923076923 25.9230769231 159.923076923 25.9230769231 159.923076923 43.1065088757 c 0,102,103
 159.923076923 64.9090909091 159.923076923 64.9090909091 171 78 c 256,104,105
 183 91 183 91 200 92 c 0,106,107
 217 92 217 92 228 78 c 256,108,109
 240 65 240 65 240 46 c 0,110,111
 240 28 240 28 228 13 c 0,112,113
 216 0 216 0 200 0 c 1,114,-1
 200 0 l 1,98,99
80 83 m 1,115,116
 63 83 63 83 51 97 c 256,117,118
 39.9230769231 109 39.9230769231 109 39.9230769231 126.112426036 c 0,119,120
 39.9230769231 147.902097902 39.9230769231 147.902097902 51 162 c 0,121,122
 56 168 56 168 63 171 c 1,123,-1
 63 171 l 1,124,125
 57 174 57 174 51 180 c 0,126,127
 39.9230769231 191.076923077 39.9230769231 191.076923077 39.9230769231 208.970414201 c 0,128,129
 39.9230769231 229.902097902 39.9230769231 229.902097902 51 244 c 0,130,131
 56 250 56 250 63 254 c 1,132,-1
 63 254 l 1,133,134
 57 257 57 257 51 263 c 0,135,136
 39.9230769231 275 39.9230769231 275 39.9230769231 292.964497041 c 0,137,138
 39.9230769231 313.902097902 39.9230769231 313.902097902 51 328 c 0,139,140
 56 334 56 334 63 338 c 1,141,-1
 63 338 l 1,142,143
 57 341 57 341 51 347 c 0,144,145
 39.9230769231 359 39.9230769231 359 39.9230769231 376.112426036 c 0,146,147
 39.9230769231 397.902097902 39.9230769231 397.902097902 51 412 c 0,148,149
 56 418 56 418 63 421 c 1,150,-1
 63 421 l 1,151,152
 57 424 57 424 51 430 c 0,153,154
 39.9230769231 442.923076923 39.9230769231 442.923076923 39.9230769231 459.25443787 c 0,155,156
 39.9230769231 480.902097902 39.9230769231 480.902097902 51 495 c 256,157,158
 63 508 63 508 80 508 c 128,-1,159
 97 508 97 508 108 495 c 256,160,161
 120 482 120 482 120 462 c 0,162,163
 120 444 120 444 108 430 c 0,164,165
 102 424 102 424 97 421 c 1,166,-1
 97 421 l 1,167,168
 103 418 103 418 108 412 c 0,169,170
 120 399 120 399 120 379 c 0,171,172
 120 361 120 361 108 347 c 0,173,174
 102 342 102 342 97 338 c 1,175,-1
 97 338 l 1,176,177
 103 335 103 335 108 328 c 0,178,179
 120 315 120 315 120 296 c 128,-1,180
 120 277 120 277 108 263 c 0,181,182
 102 257 102 257 97 254 c 1,183,-1
 97 254 l 1,184,185
 103 251 103 251 108 244 c 0,186,187
 120 230 120 230 120 212 c 0,188,189
 120 193 120 193 108 180 c 0,190,191
 102 174 102 174 97 171 c 1,192,-1
 97 171 l 1,193,194
 103 168 103 168 108 162 c 0,195,196
 120 149 120 149 120 129 c 256,197,198
 120 110 120 110 108 97 c 256,199,200
 96 84 96 84 80 83 c 1,201,-1
 80 83 l 1,115,116
240 83 m 1,202,203
 223 83 223 83 211 97 c 0,204,205
 200 110 200 110 200 129 c 256,206,207
 200 148 200 148 211 162 c 0,208,209
 217 168 217 168 222 171 c 1,210,-1
 222 171 l 1,211,212
 216 174 216 174 211 180 c 0,213,214
 200 192 200 192 200 212 c 0,215,216
 200 230 200 230 211 244 c 0,217,218
 217 250 217 250 222 254 c 1,219,-1
 222 254 l 1,220,221
 216 257 216 257 211 263 c 0,222,223
 200 276 200 276 200 296 c 0,224,225
 200 314 200 314 211 328 c 0,226,227
 217 334 217 334 222 338 c 1,228,-1
 222 338 l 1,229,230
 216 341 216 341 211 347 c 0,231,232
 200 360 200 360 200 379 c 128,-1,233
 200 398 200 398 211 412 c 0,234,235
 217 418 217 418 222 421 c 1,236,-1
 222 421 l 1,237,238
 216 424 216 424 211 430 c 0,239,240
 200 444 200 444 200 462 c 0,241,242
 200 481 200 481 211 495 c 0,243,244
 223 508 223 508 240 508 c 256,245,246
 257 508 257 508 268 495 c 256,247,248
 280 482 280 482 280 462 c 0,249,250
 280 444 280 444 268 430 c 0,251,252
 263 424 263 424 257 421 c 1,253,-1
 257 421 l 1,254,255
 263 418 263 418 268 412 c 0,256,257
 280 399 280 399 280 379 c 0,258,259
 280 361 280 361 268 347 c 0,260,261
 263 342 263 342 257 338 c 1,262,-1
 257 338 l 1,263,264
 263 335 263 335 268 328 c 0,265,266
 280 315 280 315 280 296 c 128,-1,267
 280 277 280 277 268 263 c 0,268,269
 263 257 263 257 257 254 c 1,270,-1
 257 254 l 1,271,272
 263 251 263 251 268 244 c 0,273,274
 280 230 280 230 280 212 c 0,275,276
 280 193 280 193 268 180 c 0,277,278
 263 174 263 174 257 171 c 1,279,-1
 257 171 l 1,280,281
 263 168 263 168 268 162 c 0,282,283
 280 149 280 149 280 129 c 256,284,285
 280 110 280 110 268 97 c 256,286,287
 256 84 256 84 240 83 c 1,288,-1
 240 83 l 1,202,203
120 500 m 1,289,290
 103 500 103 500 91 513 c 256,291,292
 79.9230769231 525 79.9230769231 525 79.9230769231 542.964497041 c 0,293,294
 79.9230769231 564.909090909 79.9230769231 564.909090909 91 578 c 256,295,296
 103 591 103 591 120 592 c 0,297,298
 137 592 137 592 148 578 c 256,299,300
 160 565 160 565 160 546 c 256,301,302
 160 527 160 527 148 513 c 256,303,304
 136 500 136 500 120 500 c 1,305,-1
 120 500 l 1,289,290
200 500 m 1,306,307
 183 500 183 500 171 513 c 256,308,309
 159.923076923 525 159.923076923 525 159.923076923 542.964497041 c 0,310,311
 159.923076923 564.909090909 159.923076923 564.909090909 171 578 c 256,312,313
 183 591 183 591 200 592 c 0,314,315
 217 592 217 592 228 578 c 256,316,317
 240 565 240 565 240 546 c 256,318,319
 240 527 240 527 228 513 c 256,320,321
 216 500 216 500 200 500 c 1,322,-1
 200 500 l 1,306,307
EndSplineSet
Validated: 524293
EndChar

StartChar: one
Encoding: 49 49 17
Width: 360
VWidth: 833
Flags: W
LayerCount: 2
Fore
SplineSet
40 -167 m 1,0,1
 23 -167 23 -167 11 -153 c 0,2,3
 0 -140 0 -140 0 -121 c 0,4,5
 0 -103 0 -103 11 -88 c 0,6,7
 23 -75 23 -75 40 -75 c 256,8,9
 57 -75 57 -75 68 -88 c 256,10,11
 80 -101 80 -101 80 -121 c 0,12,13
 80 -140 80 -140 68 -153 c 256,14,15
 56 -166 56 -166 40 -167 c 1,16,-1
 40 -167 l 1,0,1
120 -167 m 1,17,18
 103 -167 103 -167 91 -153 c 256,19,20
 79.9230769231 -141 79.9230769231 -141 79.9230769231 -123.887573964 c 0,21,22
 79.9230769231 -103.104895105 79.9230769231 -103.104895105 91 -88 c 256,23,24
 103 -75 103 -75 120 -75 c 128,-1,25
 137 -75 137 -75 148 -88 c 256,26,27
 160 -101 160 -101 160 -121 c 0,28,29
 160 -140 160 -140 148 -153 c 256,30,31
 136 -166 136 -166 120 -167 c 1,32,-1
 120 -167 l 1,17,18
200 -167 m 1,33,34
 183 -167 183 -167 171 -153 c 256,35,36
 159.923076923 -141 159.923076923 -141 159.923076923 -123.887573964 c 0,37,38
 159.923076923 -103.104895105 159.923076923 -103.104895105 171 -88 c 256,39,40
 183 -75 183 -75 200 -75 c 128,-1,41
 217 -75 217 -75 228 -88 c 256,42,43
 240 -101 240 -101 240 -121 c 0,44,45
 240 -140 240 -140 228 -153 c 256,46,47
 216 -166 216 -166 200 -167 c 1,48,-1
 200 -167 l 1,33,34
280 -167 m 1,49,50
 263 -167 263 -167 251 -153 c 256,51,52
 239.923076923 -141 239.923076923 -141 239.923076923 -123.887573964 c 0,53,54
 239.923076923 -103.104895105 239.923076923 -103.104895105 251 -88 c 256,55,56
 263 -75 263 -75 280 -75 c 128,-1,57
 297 -75 297 -75 308 -88 c 256,58,59
 320 -101 320 -101 320 -121 c 0,60,61
 320 -140 320 -140 308 -153 c 256,62,63
 296 -166 296 -166 280 -167 c 1,64,-1
 280 -167 l 1,49,50
360 -167 m 1,65,66
 343 -167 343 -167 332 -153 c 256,67,68
 320 -140 320 -140 320 -121 c 0,69,70
 320 -103 320 -103 332 -88 c 256,71,72
 344 -75 344 -75 360 -75 c 256,73,74
 377 -75 377 -75 388 -88 c 0,75,76
 400 -101 400 -101 400 -121 c 0,77,78
 400 -140 400 -140 388 -153 c 128,-1,79
 376 -166 376 -166 360 -167 c 1,80,-1
 360 -167 l 1,65,66
80 0 m 1,81,82
 63 0 63 0 51 13 c 0,83,84
 39.9230769231 25.9230769231 39.9230769231 25.9230769231 39.9230769231 43.1065088757 c 0,85,86
 39.9230769231 64.9090909091 39.9230769231 64.9090909091 51 78 c 256,87,88
 63 91 63 91 80 92 c 0,89,90
 97 92 97 92 108 78 c 256,91,92
 120 65 120 65 120 46 c 0,93,94
 120 28 120 28 108 13 c 0,95,96
 96 0 96 0 80 0 c 1,97,-1
 80 0 l 1,81,82
240 0 m 1,98,99
 223 0 223 0 211 13 c 0,100,101
 200 27 200 27 200 46 c 128,-1,102
 200 65 200 65 211 78 c 0,103,104
 223 91 223 91 240 92 c 256,105,106
 257 92 257 92 268 78 c 256,107,108
 280 65 280 65 280 46 c 0,109,110
 280 28 280 28 268 13 c 0,111,112
 256 0 256 0 240 0 c 1,113,-1
 240 0 l 1,98,99
80 417 m 1,114,115
 63 417 63 417 51 430 c 0,116,117
 39.9230769231 442.923076923 39.9230769231 442.923076923 39.9230769231 459.25443787 c 0,118,119
 39.9230769231 480.902097902 39.9230769231 480.902097902 51 495 c 256,120,121
 63 508 63 508 80 508 c 128,-1,122
 97 508 97 508 108 495 c 256,123,124
 120 482 120 482 120 462 c 0,125,126
 120 444 120 444 108 430 c 0,127,128
 96 417 96 417 80 417 c 1,129,-1
 80 417 l 1,114,115
160 0 m 1,130,131
 143 0 143 0 132 13 c 0,132,133
 120 27 120 27 120 46 c 128,-1,134
 120 65 120 65 132 78 c 0,135,136
 137 84 137 84 143 88 c 1,137,-1
 143 88 l 1,138,139
 137 91 137 91 132 97 c 0,140,141
 120 110 120 110 120 129 c 256,142,143
 120 148 120 148 132 162 c 0,144,145
 137 168 137 168 143 171 c 1,146,-1
 143 171 l 1,147,148
 137 174 137 174 132 180 c 0,149,150
 120 192 120 192 120 212 c 0,151,152
 120 230 120 230 132 244 c 0,153,154
 137 250 137 250 143 254 c 1,155,-1
 143 254 l 1,156,157
 137 257 137 257 132 263 c 0,158,159
 120 276 120 276 120 296 c 0,160,161
 120 314 120 314 132 328 c 0,162,163
 137 334 137 334 143 338 c 1,164,-1
 143 338 l 1,165,166
 137 341 137 341 132 347 c 0,167,168
 120 360 120 360 120 379 c 128,-1,169
 120 398 120 398 132 412 c 0,170,171
 137 418 137 418 143 421 c 1,172,-1
 143 421 l 1,173,174
 137 424 137 424 132 430 c 0,175,176
 120 444 120 444 120 462 c 0,177,178
 120 481 120 481 132 495 c 0,179,180
 137 501 137 501 143 504 c 1,181,-1
 143 504 l 1,182,183
 137 507 137 507 132 513 c 0,184,185
 120 526 120 526 120 546 c 256,186,187
 120 565 120 565 132 578 c 256,188,189
 144 591 144 591 160 592 c 256,190,191
 177 592 177 592 188 578 c 0,192,193
 200 565 200 565 200 546 c 256,194,195
 200 527 200 527 188 513 c 0,196,197
 182 507 182 507 177 504 c 1,198,-1
 177 504 l 1,199,200
 183 501 183 501 188 495 c 0,201,202
 200 482 200 482 200 462 c 0,203,204
 200 444 200 444 188 430 c 0,205,206
 182 424 182 424 177 421 c 1,207,-1
 177 421 l 1,208,209
 183 418 183 418 188 412 c 0,210,211
 200 399 200 399 200 379 c 0,212,213
 200 361 200 361 188 347 c 0,214,215
 182 342 182 342 177 338 c 1,216,-1
 177 338 l 1,217,218
 183 335 183 335 188 328 c 0,219,220
 200 315 200 315 200 296 c 128,-1,221
 200 277 200 277 188 263 c 0,222,223
 182 257 182 257 177 254 c 1,224,-1
 177 254 l 1,225,226
 183 251 183 251 188 244 c 0,227,228
 200 230 200 230 200 212 c 0,229,230
 200 193 200 193 188 180 c 0,231,232
 182 174 182 174 177 171 c 1,233,-1
 177 171 l 1,234,235
 183 168 183 168 188 162 c 0,236,237
 200 149 200 149 200 129 c 256,238,239
 200 110 200 110 188 97 c 0,240,241
 182 92 182 92 177 88 c 1,242,-1
 177 88 l 1,243,244
 183 85 183 85 188 78 c 0,245,246
 200 65 200 65 200 46 c 0,247,248
 200 28 200 28 188 13 c 0,249,250
 176 0 176 0 160 0 c 1,251,-1
 160 0 l 1,130,131
EndSplineSet
Validated: 524293
EndChar

StartChar: two
Encoding: 50 50 18
Width: 360
VWidth: 833
Flags: W
LayerCount: 2
Fore
SplineSet
40 -167 m 1,0,1
 23 -167 23 -167 11 -153 c 0,2,3
 0 -140 0 -140 0 -121 c 0,4,5
 0 -103 0 -103 11 -88 c 0,6,7
 23 -75 23 -75 40 -75 c 256,8,9
 57 -75 57 -75 68 -88 c 256,10,11
 80 -101 80 -101 80 -121 c 0,12,13
 80 -140 80 -140 68 -153 c 256,14,15
 56 -166 56 -166 40 -167 c 1,16,-1
 40 -167 l 1,0,1
120 -167 m 1,17,18
 103 -167 103 -167 91 -153 c 256,19,20
 79.9230769231 -141 79.9230769231 -141 79.9230769231 -123.887573964 c 0,21,22
 79.9230769231 -103.104895105 79.9230769231 -103.104895105 91 -88 c 256,23,24
 103 -75 103 -75 120 -75 c 128,-1,25
 137 -75 137 -75 148 -88 c 256,26,27
 160 -101 160 -101 160 -121 c 0,28,29
 160 -140 160 -140 148 -153 c 256,30,31
 136 -166 136 -166 120 -167 c 1,32,-1
 120 -167 l 1,17,18
200 -167 m 1,33,34
 183 -167 183 -167 171 -153 c 256,35,36
 159.923076923 -141 159.923076923 -141 159.923076923 -123.887573964 c 0,37,38
 159.923076923 -103.104895105 159.923076923 -103.104895105 171 -88 c 256,39,40
 183 -75 183 -75 200 -75 c 128,-1,41
 217 -75 217 -75 228 -88 c 256,42,43
 240 -101 240 -101 240 -121 c 0,44,45
 240 -140 240 -140 228 -153 c 256,46,47
 216 -166 216 -166 200 -167 c 1,48,-1
 200 -167 l 1,33,34
280 -167 m 1,49,50
 263 -167 263 -167 251 -153 c 256,51,52
 239.923076923 -141 239.923076923 -141 239.923076923 -123.887573964 c 0,53,54
 239.923076923 -103.104895105 239.923076923 -103.104895105 251 -88 c 256,55,56
 263 -75 263 -75 280 -75 c 128,-1,57
 297 -75 297 -75 308 -88 c 256,58,59
 320 -101 320 -101 320 -121 c 0,60,61
 320 -140 320 -140 308 -153 c 256,62,63
 296 -166 296 -166 280 -167 c 1,64,-1
 280 -167 l 1,49,50
360 -167 m 1,65,66
 343 -167 343 -167 332 -153 c 256,67,68
 320 -140 320 -140 320 -121 c 0,69,70
 320 -103 320 -103 332 -88 c 256,71,72
 344 -75 344 -75 360 -75 c 256,73,74
 377 -75 377 -75 388 -88 c 0,75,76
 400 -101 400 -101 400 -121 c 0,77,78
 400 -140 400 -140 388 -153 c 128,-1,79
 376 -166 376 -166 360 -167 c 1,80,-1
 360 -167 l 1,65,66
40 0 m 1,81,82
 23 0 23 0 11 13 c 0,83,84
 0 27 0 27 0 46 c 128,-1,85
 0 65 0 65 11 78 c 0,86,87
 23 91 23 91 40 92 c 256,88,89
 57 92 57 92 68 78 c 256,90,91
 80 65 80 65 80 46 c 0,92,93
 80 28 80 28 68 13 c 0,94,95
 56 0 56 0 40 0 c 1,96,-1
 40 0 l 1,81,82
120 0 m 1,97,98
 103 0 103 0 91 13 c 0,99,100
 79.9230769231 25.9230769231 79.9230769231 25.9230769231 79.9230769231 43.1065088757 c 0,101,102
 79.9230769231 64.9090909091 79.9230769231 64.9090909091 91 78 c 256,103,104
 103 91 103 91 120 92 c 0,105,106
 137 92 137 92 148 78 c 256,107,108
 160 65 160 65 160 46 c 0,109,110
 160 28 160 28 148 13 c 0,111,112
 136 0 136 0 120 0 c 1,113,-1
 120 0 l 1,97,98
200 0 m 1,114,115
 183 0 183 0 171 13 c 0,116,117
 159.923076923 25.9230769231 159.923076923 25.9230769231 159.923076923 43.1065088757 c 0,118,119
 159.923076923 64.9090909091 159.923076923 64.9090909091 171 78 c 256,120,121
 183 91 183 91 200 92 c 0,122,123
 217 92 217 92 228 78 c 256,124,125
 240 65 240 65 240 46 c 0,126,127
 240 28 240 28 228 13 c 0,128,129
 216 0 216 0 200 0 c 1,130,-1
 200 0 l 1,114,115
280 0 m 1,131,132
 263 0 263 0 251 13 c 0,133,134
 239.923076923 25.9230769231 239.923076923 25.9230769231 239.923076923 43.1065088757 c 0,135,136
 239.923076923 64.9090909091 239.923076923 64.9090909091 251 78 c 256,137,138
 263 91 263 91 280 92 c 0,139,140
 297 92 297 92 308 78 c 256,141,142
 320 65 320 65 320 46 c 0,143,144
 320 28 320 28 308 13 c 0,145,146
 296 0 296 0 280 0 c 1,147,-1
 280 0 l 1,131,132
80 83 m 1,148,149
 63 83 63 83 51 97 c 256,150,151
 39.9230769231 109 39.9230769231 109 39.9230769231 126.112426036 c 0,152,153
 39.9230769231 147.902097902 39.9230769231 147.902097902 51 162 c 256,154,155
 63 175 63 175 80 175 c 128,-1,156
 97 175 97 175 108 162 c 256,157,158
 120 149 120 149 120 129 c 256,159,160
 120 110 120 110 108 97 c 256,161,162
 96 84 96 84 80 83 c 1,163,-1
 80 83 l 1,148,149
120 167 m 1,164,165
 103 167 103 167 91 180 c 256,166,167
 79.9230769231 191.076923077 79.9230769231 191.076923077 79.9230769231 208.970414201 c 0,168,169
 79.9230769231 229.902097902 79.9230769231 229.902097902 91 244 c 256,170,171
 103 257 103 257 120 258 c 0,172,173
 137 258 137 258 148 244 c 256,174,175
 160 230 160 230 160 212 c 0,176,177
 160 193 160 193 148 180 c 256,178,179
 136 167 136 167 120 167 c 1,180,-1
 120 167 l 1,164,165
200 250 m 1,181,182
 183 250 183 250 171 263 c 256,183,184
 159.923076923 275 159.923076923 275 159.923076923 292.964497041 c 0,185,186
 159.923076923 313.902097902 159.923076923 313.902097902 171 328 c 256,187,188
 183 341 183 341 200 342 c 0,189,190
 217 342 217 342 228 328 c 256,191,192
 240 315 240 315 240 296 c 128,-1,193
 240 277 240 277 228 263 c 256,194,195
 216 250 216 250 200 250 c 1,196,-1
 200 250 l 1,181,182
240 333 m 1,197,198
 223 333 223 333 211 347 c 0,199,200
 200 360 200 360 200 379 c 128,-1,201
 200 398 200 398 211 412 c 0,202,203
 223 425 223 425 240 425 c 256,204,205
 257 425 257 425 268 412 c 256,206,207
 280 399 280 399 280 379 c 0,208,209
 280 361 280 361 268 347 c 256,210,211
 256 334 256 334 240 333 c 1,212,-1
 240 333 l 1,197,198
40 417 m 1,213,214
 23 417 23 417 11 430 c 0,215,216
 0 444 0 444 0 462 c 0,217,218
 0 481 0 481 11 495 c 0,219,220
 23 508 23 508 40 508 c 256,221,222
 57 508 57 508 68 495 c 256,223,224
 80 482 80 482 80 462 c 0,225,226
 80 444 80 444 68 430 c 0,227,228
 56 417 56 417 40 417 c 1,229,-1
 40 417 l 1,213,214
280 417 m 1,230,231
 263 417 263 417 251 430 c 0,232,233
 239.923076923 442.923076923 239.923076923 442.923076923 239.923076923 459.25443787 c 0,234,235
 239.923076923 480.902097902 239.923076923 480.902097902 251 495 c 256,236,237
 263 508 263 508 280 508 c 128,-1,238
 297 508 297 508 308 495 c 256,239,240
 320 482 320 482 320 462 c 0,241,242
 320 444 320 444 308 430 c 0,243,244
 296 417 296 417 280 417 c 1,245,-1
 280 417 l 1,230,231
80 500 m 1,246,247
 63 500 63 500 51 513 c 256,248,249
 39.9230769231 525 39.9230769231 525 39.9230769231 542.964497041 c 0,250,251
 39.9230769231 564.909090909 39.9230769231 564.909090909 51 578 c 256,252,253
 63 591 63 591 80 592 c 0,254,255
 97 592 97 592 108 578 c 256,256,257
 120 565 120 565 120 546 c 256,258,259
 120 527 120 527 108 513 c 256,260,261
 96 500 96 500 80 500 c 1,262,-1
 80 500 l 1,246,247
160 500 m 1,263,264
 143 500 143 500 132 513 c 256,265,266
 120 526 120 526 120 546 c 256,267,268
 120 565 120 565 132 578 c 256,269,270
 144 591 144 591 160 592 c 256,271,272
 177 592 177 592 188 578 c 0,273,274
 200 565 200 565 200 546 c 256,275,276
 200 527 200 527 188 513 c 0,277,278
 176 500 176 500 160 500 c 1,279,-1
 160 500 l 1,263,264
240 500 m 1,280,281
 223 500 223 500 211 513 c 0,282,283
 200 526 200 526 200 546 c 256,284,285
 200 565 200 565 211 578 c 0,286,287
 223 591 223 591 240 592 c 256,288,289
 257 592 257 592 268 578 c 256,290,291
 280 565 280 565 280 546 c 256,292,293
 280 527 280 527 268 513 c 256,294,295
 256 500 256 500 240 500 c 1,296,-1
 240 500 l 1,280,281
EndSplineSet
Validated: 524293
EndChar

StartChar: three
Encoding: 51 51 19
Width: 360
VWidth: 833
Flags: W
LayerCount: 2
Fore
SplineSet
40 -167 m 1,0,1
 23 -167 23 -167 11 -153 c 0,2,3
 0 -140 0 -140 0 -121 c 0,4,5
 0 -103 0 -103 11 -88 c 0,6,7
 23 -75 23 -75 40 -75 c 256,8,9
 57 -75 57 -75 68 -88 c 256,10,11
 80 -101 80 -101 80 -121 c 0,12,13
 80 -140 80 -140 68 -153 c 256,14,15
 56 -166 56 -166 40 -167 c 1,16,-1
 40 -167 l 1,0,1
120 -167 m 1,17,18
 103 -167 103 -167 91 -153 c 256,19,20
 79.9230769231 -141 79.9230769231 -141 79.9230769231 -123.887573964 c 0,21,22
 79.9230769231 -103.104895105 79.9230769231 -103.104895105 91 -88 c 256,23,24
 103 -75 103 -75 120 -75 c 128,-1,25
 137 -75 137 -75 148 -88 c 256,26,27
 160 -101 160 -101 160 -121 c 0,28,29
 160 -140 160 -140 148 -153 c 256,30,31
 136 -166 136 -166 120 -167 c 1,32,-1
 120 -167 l 1,17,18
200 -167 m 1,33,34
 183 -167 183 -167 171 -153 c 256,35,36
 159.923076923 -141 159.923076923 -141 159.923076923 -123.887573964 c 0,37,38
 159.923076923 -103.104895105 159.923076923 -103.104895105 171 -88 c 256,39,40
 183 -75 183 -75 200 -75 c 128,-1,41
 217 -75 217 -75 228 -88 c 256,42,43
 240 -101 240 -101 240 -121 c 0,44,45
 240 -140 240 -140 228 -153 c 256,46,47
 216 -166 216 -166 200 -167 c 1,48,-1
 200 -167 l 1,33,34
280 -167 m 1,49,50
 263 -167 263 -167 251 -153 c 256,51,52
 239.923076923 -141 239.923076923 -141 239.923076923 -123.887573964 c 0,53,54
 239.923076923 -103.104895105 239.923076923 -103.104895105 251 -88 c 256,55,56
 263 -75 263 -75 280 -75 c 128,-1,57
 297 -75 297 -75 308 -88 c 256,58,59
 320 -101 320 -101 320 -121 c 0,60,61
 320 -140 320 -140 308 -153 c 256,62,63
 296 -166 296 -166 280 -167 c 1,64,-1
 280 -167 l 1,49,50
360 -167 m 1,65,66
 343 -167 343 -167 332 -153 c 256,67,68
 320 -140 320 -140 320 -121 c 0,69,70
 320 -103 320 -103 332 -88 c 256,71,72
 344 -75 344 -75 360 -75 c 256,73,74
 377 -75 377 -75 388 -88 c 0,75,76
 400 -101 400 -101 400 -121 c 0,77,78
 400 -140 400 -140 388 -153 c 128,-1,79
 376 -166 376 -166 360 -167 c 1,80,-1
 360 -167 l 1,65,66
80 0 m 1,81,82
 63 0 63 0 51 13 c 0,83,84
 39.9230769231 25.9230769231 39.9230769231 25.9230769231 39.9230769231 43.1065088757 c 0,85,86
 39.9230769231 64.9090909091 39.9230769231 64.9090909091 51 78 c 256,87,88
 63 91 63 91 80 92 c 0,89,90
 97 92 97 92 108 78 c 256,91,92
 120 65 120 65 120 46 c 0,93,94
 120 28 120 28 108 13 c 0,95,96
 96 0 96 0 80 0 c 1,97,-1
 80 0 l 1,81,82
160 0 m 1,98,99
 143 0 143 0 132 13 c 0,100,101
 120 27 120 27 120 46 c 128,-1,102
 120 65 120 65 132 78 c 256,103,104
 144 91 144 91 160 92 c 256,105,106
 177 92 177 92 188 78 c 0,107,108
 200 65 200 65 200 46 c 0,109,110
 200 28 200 28 188 13 c 0,111,112
 176 0 176 0 160 0 c 1,113,-1
 160 0 l 1,98,99
240 0 m 1,114,115
 223 0 223 0 211 13 c 0,116,117
 200 27 200 27 200 46 c 128,-1,118
 200 65 200 65 211 78 c 0,119,120
 223 91 223 91 240 92 c 256,121,122
 257 92 257 92 268 78 c 256,123,124
 280 65 280 65 280 46 c 0,125,126
 280 28 280 28 268 13 c 0,127,128
 256 0 256 0 240 0 c 1,129,-1
 240 0 l 1,114,115
40 83 m 1,130,131
 23 83 23 83 11 97 c 0,132,133
 0 110 0 110 0 129 c 256,134,135
 0 148 0 148 11 162 c 0,136,137
 23 175 23 175 40 175 c 256,138,139
 57 175 57 175 68 162 c 256,140,141
 80 149 80 149 80 129 c 256,142,143
 80 110 80 110 68 97 c 256,144,145
 56 84 56 84 40 83 c 1,146,-1
 40 83 l 1,130,131
280 83 m 1,147,148
 263 83 263 83 251 97 c 256,149,150
 239.923076923 109 239.923076923 109 239.923076923 126.112426036 c 0,151,152
 239.923076923 147.902097902 239.923076923 147.902097902 251 162 c 0,153,154
 256 168 256 168 263 171 c 1,155,-1
 263 171 l 1,156,157
 257 174 257 174 251 180 c 0,158,159
 239.923076923 191.076923077 239.923076923 191.076923077 239.923076923 208.970414201 c 0,160,161
 239.923076923 229.902097902 239.923076923 229.902097902 251 244 c 256,162,163
 263 257 263 257 280 258 c 0,164,165
 297 258 297 258 308 244 c 256,166,167
 320 230 320 230 320 212 c 0,168,169
 320 193 320 193 308 180 c 0,170,171
 302 174 302 174 297 171 c 1,172,-1
 297 171 l 1,173,174
 303 168 303 168 308 162 c 0,175,176
 320 149 320 149 320 129 c 256,177,178
 320 110 320 110 308 97 c 256,179,180
 296 84 296 84 280 83 c 1,181,-1
 280 83 l 1,147,148
160 250 m 1,182,183
 143 250 143 250 132 263 c 256,184,185
 120 276 120 276 120 296 c 0,186,187
 120 314 120 314 132 328 c 256,188,189
 144 341 144 341 160 342 c 256,190,191
 177 342 177 342 188 328 c 0,192,193
 200 315 200 315 200 296 c 128,-1,194
 200 277 200 277 188 263 c 0,195,196
 176 250 176 250 160 250 c 1,197,-1
 160 250 l 1,182,183
240 250 m 1,198,199
 223 250 223 250 211 263 c 0,200,201
 200 276 200 276 200 296 c 0,202,203
 200 314 200 314 211 328 c 0,204,205
 223 341 223 341 240 342 c 256,206,207
 257 342 257 342 268 328 c 256,208,209
 280 315 280 315 280 296 c 128,-1,210
 280 277 280 277 268 263 c 256,211,212
 256 250 256 250 240 250 c 1,213,-1
 240 250 l 1,198,199
40 417 m 1,214,215
 23 417 23 417 11 430 c 0,216,217
 0 444 0 444 0 462 c 0,218,219
 0 481 0 481 11 495 c 0,220,221
 23 508 23 508 40 508 c 256,222,223
 57 508 57 508 68 495 c 256,224,225
 80 482 80 482 80 462 c 0,226,227
 80 444 80 444 68 430 c 0,228,229
 56 417 56 417 40 417 c 1,230,-1
 40 417 l 1,214,215
280 333 m 1,231,232
 263 333 263 333 251 347 c 256,233,234
 239.923076923 359 239.923076923 359 239.923076923 376.112426036 c 0,235,236
 239.923076923 397.902097902 239.923076923 397.902097902 251 412 c 0,237,238
 256 418 256 418 263 421 c 1,239,-1
 263 421 l 1,240,241
 257 424 257 424 251 430 c 0,242,243
 239.923076923 442.923076923 239.923076923 442.923076923 239.923076923 459.25443787 c 0,244,245
 239.923076923 480.902097902 239.923076923 480.902097902 251 495 c 256,246,247
 263 508 263 508 280 508 c 128,-1,248
 297 508 297 508 308 495 c 256,249,250
 320 482 320 482 320 462 c 0,251,252
 320 444 320 444 308 430 c 0,253,254
 302 424 302 424 297 421 c 1,255,-1
 297 421 l 1,256,257
 303 418 303 418 308 412 c 0,258,259
 320 399 320 399 320 379 c 0,260,261
 320 361 320 361 308 347 c 256,262,263
 296 334 296 334 280 333 c 1,264,-1
 280 333 l 1,231,232
80 500 m 1,265,266
 63 500 63 500 51 513 c 256,267,268
 39.9230769231 525 39.9230769231 525 39.9230769231 542.964497041 c 0,269,270
 39.9230769231 564.909090909 39.9230769231 564.909090909 51 578 c 256,271,272
 63 591 63 591 80 592 c 0,273,274
 97 592 97 592 108 578 c 256,275,276
 120 565 120 565 120 546 c 256,277,278
 120 527 120 527 108 513 c 256,279,280
 96 500 96 500 80 500 c 1,281,-1
 80 500 l 1,265,266
160 500 m 1,282,283
 143 500 143 500 132 513 c 256,284,285
 120 526 120 526 120 546 c 256,286,287
 120 565 120 565 132 578 c 256,288,289
 144 591 144 591 160 592 c 256,290,291
 177 592 177 592 188 578 c 0,292,293
 200 565 200 565 200 546 c 256,294,295
 200 527 200 527 188 513 c 0,296,297
 176 500 176 500 160 500 c 1,298,-1
 160 500 l 1,282,283
240 500 m 1,299,300
 223 500 223 500 211 513 c 0,301,302
 200 526 200 526 200 546 c 256,303,304
 200 565 200 565 211 578 c 0,305,306
 223 591 223 591 240 592 c 256,307,308
 257 592 257 592 268 578 c 256,309,310
 280 565 280 565 280 546 c 256,311,312
 280 527 280 527 268 513 c 256,313,314
 256 500 256 500 240 500 c 1,315,-1
 240 500 l 1,299,300
EndSplineSet
Validated: 524293
EndChar

StartChar: four
Encoding: 52 52 20
Width: 360
VWidth: 833
Flags: W
LayerCount: 2
Fore
SplineSet
40 -167 m 1,0,1
 23 -167 23 -167 11 -153 c 0,2,3
 0 -140 0 -140 0 -121 c 0,4,5
 0 -103 0 -103 11 -88 c 0,6,7
 23 -75 23 -75 40 -75 c 256,8,9
 57 -75 57 -75 68 -88 c 256,10,11
 80 -101 80 -101 80 -121 c 0,12,13
 80 -140 80 -140 68 -153 c 256,14,15
 56 -166 56 -166 40 -167 c 1,16,-1
 40 -167 l 1,0,1
120 -167 m 1,17,18
 103 -167 103 -167 91 -153 c 256,19,20
 79.9230769231 -141 79.9230769231 -141 79.9230769231 -123.887573964 c 0,21,22
 79.9230769231 -103.104895105 79.9230769231 -103.104895105 91 -88 c 256,23,24
 103 -75 103 -75 120 -75 c 128,-1,25
 137 -75 137 -75 148 -88 c 256,26,27
 160 -101 160 -101 160 -121 c 0,28,29
 160 -140 160 -140 148 -153 c 256,30,31
 136 -166 136 -166 120 -167 c 1,32,-1
 120 -167 l 1,17,18
200 -167 m 1,33,34
 183 -167 183 -167 171 -153 c 256,35,36
 159.923076923 -141 159.923076923 -141 159.923076923 -123.887573964 c 0,37,38
 159.923076923 -103.104895105 159.923076923 -103.104895105 171 -88 c 256,39,40
 183 -75 183 -75 200 -75 c 128,-1,41
 217 -75 217 -75 228 -88 c 256,42,43
 240 -101 240 -101 240 -121 c 0,44,45
 240 -140 240 -140 228 -153 c 256,46,47
 216 -166 216 -166 200 -167 c 1,48,-1
 200 -167 l 1,33,34
280 -167 m 1,49,50
 263 -167 263 -167 251 -153 c 256,51,52
 239.923076923 -141 239.923076923 -141 239.923076923 -123.887573964 c 0,53,54
 239.923076923 -103.104895105 239.923076923 -103.104895105 251 -88 c 256,55,56
 263 -75 263 -75 280 -75 c 128,-1,57
 297 -75 297 -75 308 -88 c 256,58,59
 320 -101 320 -101 320 -121 c 0,60,61
 320 -140 320 -140 308 -153 c 256,62,63
 296 -166 296 -166 280 -167 c 1,64,-1
 280 -167 l 1,49,50
360 -167 m 1,65,66
 343 -167 343 -167 332 -153 c 256,67,68
 320 -140 320 -140 320 -121 c 0,69,70
 320 -103 320 -103 332 -88 c 256,71,72
 344 -75 344 -75 360 -75 c 256,73,74
 377 -75 377 -75 388 -88 c 0,75,76
 400 -101 400 -101 400 -121 c 0,77,78
 400 -140 400 -140 388 -153 c 128,-1,79
 376 -166 376 -166 360 -167 c 1,80,-1
 360 -167 l 1,65,66
240 0 m 1,81,82
 223 0 223 0 211 13 c 0,83,84
 200 27 200 27 200 46 c 128,-1,85
 200 65 200 65 211 78 c 0,86,87
 217 84 217 84 222 88 c 1,88,-1
 222 88 l 1,89,90
 216 91 216 91 211 97 c 0,91,92
 200 110 200 110 200 129 c 256,93,94
 200 148 200 148 211 162 c 0,95,96
 217 168 217 168 222 171 c 1,97,-1
 222 171 l 1,98,99
 216 174 216 174 211 180 c 0,100,101
 200 192 200 192 200 212 c 0,102,103
 200 230 200 230 211 244 c 0,104,105
 223 257 223 257 240 258 c 256,106,107
 257 258 257 258 268 244 c 256,108,109
 280 230 280 230 280 212 c 0,110,111
 280 193 280 193 268 180 c 0,112,113
 263 174 263 174 257 171 c 1,114,-1
 257 171 l 1,115,116
 263 168 263 168 268 162 c 0,117,118
 280 149 280 149 280 129 c 256,119,120
 280 110 280 110 268 97 c 0,121,122
 263 92 263 92 257 88 c 1,123,-1
 257 88 l 1,124,125
 263 85 263 85 268 78 c 0,126,127
 280 65 280 65 280 46 c 0,128,129
 280 28 280 28 268 13 c 0,130,131
 256 0 256 0 240 0 c 1,132,-1
 240 0 l 1,81,82
40 250 m 1,133,134
 23 250 23 250 11 263 c 0,135,136
 0 276 0 276 0 296 c 0,137,138
 0 314 0 314 11 328 c 0,139,140
 23 341 23 341 40 342 c 256,141,142
 57 342 57 342 68 328 c 256,143,144
 80 315 80 315 80 296 c 128,-1,145
 80 277 80 277 68 263 c 256,146,147
 56 250 56 250 40 250 c 1,148,-1
 40 250 l 1,133,134
120 250 m 1,149,150
 103 250 103 250 91 263 c 256,151,152
 79.9230769231 275 79.9230769231 275 79.9230769231 292.964497041 c 0,153,154
 79.9230769231 313.902097902 79.9230769231 313.902097902 91 328 c 256,155,156
 103 341 103 341 120 342 c 0,157,158
 137 342 137 342 148 328 c 256,159,160
 160 315 160 315 160 296 c 128,-1,161
 160 277 160 277 148 263 c 256,162,163
 136 250 136 250 120 250 c 1,164,-1
 120 250 l 1,149,150
200 250 m 1,165,166
 183 250 183 250 171 263 c 256,167,168
 159.923076923 275 159.923076923 275 159.923076923 292.964497041 c 0,169,170
 159.923076923 313.902097902 159.923076923 313.902097902 171 328 c 256,171,172
 183 341 183 341 200 342 c 0,173,174
 217 342 217 342 228 328 c 256,175,176
 240 315 240 315 240 296 c 128,-1,177
 240 277 240 277 228 263 c 256,178,179
 216 250 216 250 200 250 c 1,180,-1
 200 250 l 1,165,166
280 250 m 1,181,182
 263 250 263 250 251 263 c 256,183,184
 239.923076923 275 239.923076923 275 239.923076923 292.964497041 c 0,185,186
 239.923076923 313.902097902 239.923076923 313.902097902 251 328 c 256,187,188
 263 341 263 341 280 342 c 0,189,190
 297 342 297 342 308 328 c 256,191,192
 320 315 320 315 320 296 c 128,-1,193
 320 277 320 277 308 263 c 256,194,195
 296 250 296 250 280 250 c 1,196,-1
 280 250 l 1,181,182
80 333 m 1,197,198
 63 333 63 333 51 347 c 256,199,200
 39.9230769231 359 39.9230769231 359 39.9230769231 376.112426036 c 0,201,202
 39.9230769231 397.902097902 39.9230769231 397.902097902 51 412 c 256,203,204
 63 425 63 425 80 425 c 128,-1,205
 97 425 97 425 108 412 c 256,206,207
 120 399 120 399 120 379 c 0,208,209
 120 361 120 361 108 347 c 256,210,211
 96 334 96 334 80 333 c 1,212,-1
 80 333 l 1,197,198
120 417 m 1,213,214
 103 417 103 417 91 430 c 0,215,216
 79.9230769231 442.923076923 79.9230769231 442.923076923 79.9230769231 459.25443787 c 0,217,218
 79.9230769231 480.902097902 79.9230769231 480.902097902 91 495 c 256,219,220
 103 508 103 508 120 508 c 128,-1,221
 137 508 137 508 148 495 c 256,222,223
 160 482 160 482 160 462 c 0,224,225
 160 444 160 444 148 430 c 0,226,227
 136 417 136 417 120 417 c 1,228,-1
 120 417 l 1,213,214
160 500 m 1,229,230
 143 500 143 500 132 513 c 256,231,232
 120 526 120 526 120 546 c 256,233,234
 120 565 120 565 132 578 c 256,235,236
 144 591 144 591 160 592 c 256,237,238
 177 592 177 592 188 578 c 0,239,240
 200 565 200 565 200 546 c 256,241,242
 200 527 200 527 188 513 c 0,243,244
 176 500 176 500 160 500 c 1,245,-1
 160 500 l 1,229,230
240 333 m 1,246,247
 223 333 223 333 211 347 c 0,248,249
 200 360 200 360 200 379 c 128,-1,250
 200 398 200 398 211 412 c 0,251,252
 217 418 217 418 222 421 c 1,253,-1
 222 421 l 1,254,255
 216 424 216 424 211 430 c 0,256,257
 200 444 200 444 200 462 c 0,258,259
 200 481 200 481 211 495 c 0,260,261
 217 501 217 501 222 504 c 1,262,-1
 222 504 l 1,263,264
 216 507 216 507 211 513 c 0,265,266
 200 526 200 526 200 546 c 256,267,268
 200 565 200 565 211 578 c 0,269,270
 223 591 223 591 240 592 c 256,271,272
 257 592 257 592 268 578 c 256,273,274
 280 565 280 565 280 546 c 256,275,276
 280 527 280 527 268 513 c 0,277,278
 263 507 263 507 257 504 c 1,279,-1
 257 504 l 1,280,281
 263 501 263 501 268 495 c 0,282,283
 280 482 280 482 280 462 c 0,284,285
 280 444 280 444 268 430 c 0,286,287
 263 424 263 424 257 421 c 1,288,-1
 257 421 l 1,289,290
 263 418 263 418 268 412 c 0,291,292
 280 399 280 399 280 379 c 0,293,294
 280 361 280 361 268 347 c 256,295,296
 256 334 256 334 240 333 c 1,297,-1
 240 333 l 1,246,247
EndSplineSet
Validated: 524293
EndChar

StartChar: five
Encoding: 53 53 21
Width: 360
VWidth: 833
Flags: W
LayerCount: 2
Fore
SplineSet
40 -167 m 1,0,1
 23 -167 23 -167 11 -153 c 0,2,3
 0 -140 0 -140 0 -121 c 0,4,5
 0 -103 0 -103 11 -88 c 0,6,7
 23 -75 23 -75 40 -75 c 256,8,9
 57 -75 57 -75 68 -88 c 256,10,11
 80 -101 80 -101 80 -121 c 0,12,13
 80 -140 80 -140 68 -153 c 256,14,15
 56 -166 56 -166 40 -167 c 1,16,-1
 40 -167 l 1,0,1
120 -167 m 1,17,18
 103 -167 103 -167 91 -153 c 256,19,20
 79.9230769231 -141 79.9230769231 -141 79.9230769231 -123.887573964 c 0,21,22
 79.9230769231 -103.104895105 79.9230769231 -103.104895105 91 -88 c 256,23,24
 103 -75 103 -75 120 -75 c 128,-1,25
 137 -75 137 -75 148 -88 c 256,26,27
 160 -101 160 -101 160 -121 c 0,28,29
 160 -140 160 -140 148 -153 c 256,30,31
 136 -166 136 -166 120 -167 c 1,32,-1
 120 -167 l 1,17,18
200 -167 m 1,33,34
 183 -167 183 -167 171 -153 c 256,35,36
 159.923076923 -141 159.923076923 -141 159.923076923 -123.887573964 c 0,37,38
 159.923076923 -103.104895105 159.923076923 -103.104895105 171 -88 c 256,39,40
 183 -75 183 -75 200 -75 c 128,-1,41
 217 -75 217 -75 228 -88 c 256,42,43
 240 -101 240 -101 240 -121 c 0,44,45
 240 -140 240 -140 228 -153 c 256,46,47
 216 -166 216 -166 200 -167 c 1,48,-1
 200 -167 l 1,33,34
280 -167 m 1,49,50
 263 -167 263 -167 251 -153 c 256,51,52
 239.923076923 -141 239.923076923 -141 239.923076923 -123.887573964 c 0,53,54
 239.923076923 -103.104895105 239.923076923 -103.104895105 251 -88 c 256,55,56
 263 -75 263 -75 280 -75 c 128,-1,57
 297 -75 297 -75 308 -88 c 256,58,59
 320 -101 320 -101 320 -121 c 0,60,61
 320 -140 320 -140 308 -153 c 256,62,63
 296 -166 296 -166 280 -167 c 1,64,-1
 280 -167 l 1,49,50
360 -167 m 1,65,66
 343 -167 343 -167 332 -153 c 256,67,68
 320 -140 320 -140 320 -121 c 0,69,70
 320 -103 320 -103 332 -88 c 256,71,72
 344 -75 344 -75 360 -75 c 256,73,74
 377 -75 377 -75 388 -88 c 0,75,76
 400 -101 400 -101 400 -121 c 0,77,78
 400 -140 400 -140 388 -153 c 128,-1,79
 376 -166 376 -166 360 -167 c 1,80,-1
 360 -167 l 1,65,66
80 0 m 1,81,82
 63 0 63 0 51 13 c 0,83,84
 39.9230769231 25.9230769231 39.9230769231 25.9230769231 39.9230769231 43.1065088757 c 0,85,86
 39.9230769231 64.9090909091 39.9230769231 64.9090909091 51 78 c 256,87,88
 63 91 63 91 80 92 c 0,89,90
 97 92 97 92 108 78 c 256,91,92
 120 65 120 65 120 46 c 0,93,94
 120 28 120 28 108 13 c 0,95,96
 96 0 96 0 80 0 c 1,97,-1
 80 0 l 1,81,82
160 0 m 1,98,99
 143 0 143 0 132 13 c 0,100,101
 120 27 120 27 120 46 c 128,-1,102
 120 65 120 65 132 78 c 256,103,104
 144 91 144 91 160 92 c 256,105,106
 177 92 177 92 188 78 c 0,107,108
 200 65 200 65 200 46 c 0,109,110
 200 28 200 28 188 13 c 0,111,112
 176 0 176 0 160 0 c 1,113,-1
 160 0 l 1,98,99
240 0 m 1,114,115
 223 0 223 0 211 13 c 0,116,117
 200 27 200 27 200 46 c 128,-1,118
 200 65 200 65 211 78 c 0,119,120
 223 91 223 91 240 92 c 256,121,122
 257 92 257 92 268 78 c 256,123,124
 280 65 280 65 280 46 c 0,125,126
 280 28 280 28 268 13 c 0,127,128
 256 0 256 0 240 0 c 1,129,-1
 240 0 l 1,114,115
40 83 m 1,130,131
 23 83 23 83 11 97 c 0,132,133
 0 110 0 110 0 129 c 256,134,135
 0 148 0 148 11 162 c 0,136,137
 23 175 23 175 40 175 c 256,138,139
 57 175 57 175 68 162 c 256,140,141
 80 149 80 149 80 129 c 256,142,143
 80 110 80 110 68 97 c 256,144,145
 56 84 56 84 40 83 c 1,146,-1
 40 83 l 1,130,131
280 83 m 1,147,148
 263 83 263 83 251 97 c 256,149,150
 239.923076923 109 239.923076923 109 239.923076923 126.112426036 c 0,151,152
 239.923076923 147.902097902 239.923076923 147.902097902 251 162 c 0,153,154
 256 168 256 168 263 171 c 1,155,-1
 263 171 l 1,156,157
 257 174 257 174 251 180 c 0,158,159
 239.923076923 191.076923077 239.923076923 191.076923077 239.923076923 208.970414201 c 0,160,161
 239.923076923 229.902097902 239.923076923 229.902097902 251 244 c 0,162,163
 256 250 256 250 263 254 c 1,164,-1
 263 254 l 1,165,166
 257 257 257 257 251 263 c 0,167,168
 239.923076923 275 239.923076923 275 239.923076923 292.964497041 c 0,169,170
 239.923076923 313.902097902 239.923076923 313.902097902 251 328 c 256,171,172
 263 341 263 341 280 342 c 0,173,174
 297 342 297 342 308 328 c 256,175,176
 320 315 320 315 320 296 c 128,-1,177
 320 277 320 277 308 263 c 0,178,179
 302 257 302 257 297 254 c 1,180,-1
 297 254 l 1,181,182
 303 251 303 251 308 244 c 0,183,184
 320 230 320 230 320 212 c 0,185,186
 320 193 320 193 308 180 c 0,187,188
 302 174 302 174 297 171 c 1,189,-1
 297 171 l 1,190,191
 303 168 303 168 308 162 c 0,192,193
 320 149 320 149 320 129 c 256,194,195
 320 110 320 110 308 97 c 256,196,197
 296 84 296 84 280 83 c 1,198,-1
 280 83 l 1,147,148
120 333 m 1,199,200
 103 333 103 333 91 347 c 256,201,202
 79.9230769231 359 79.9230769231 359 79.9230769231 376.112426036 c 0,203,204
 79.9230769231 397.902097902 79.9230769231 397.902097902 91 412 c 256,205,206
 103 425 103 425 120 425 c 128,-1,207
 137 425 137 425 148 412 c 256,208,209
 160 399 160 399 160 379 c 0,210,211
 160 361 160 361 148 347 c 256,212,213
 136 334 136 334 120 333 c 1,214,-1
 120 333 l 1,199,200
200 333 m 1,215,216
 183 333 183 333 171 347 c 256,217,218
 159.923076923 359 159.923076923 359 159.923076923 376.112426036 c 0,219,220
 159.923076923 397.902097902 159.923076923 397.902097902 171 412 c 256,221,222
 183 425 183 425 200 425 c 128,-1,223
 217 425 217 425 228 412 c 256,224,225
 240 399 240 399 240 379 c 0,226,227
 240 361 240 361 228 347 c 256,228,229
 216 334 216 334 200 333 c 1,230,-1
 200 333 l 1,215,216
40 333 m 1,231,232
 23 333 23 333 11 347 c 0,233,234
 0 360 0 360 0 379 c 128,-1,235
 0 398 0 398 11 412 c 0,236,237
 17 418 17 418 22 421 c 1,238,-1
 22 421 l 1,239,240
 16 424 16 424 11 430 c 0,241,242
 0 444 0 444 0 462 c 0,243,244
 0 481 0 481 11 495 c 0,245,246
 17 501 17 501 22 504 c 1,247,-1
 22 504 l 1,248,249
 16 507 16 507 11 513 c 0,250,251
 0 526 0 526 0 546 c 256,252,253
 0 565 0 565 11 578 c 0,254,255
 23 591 23 591 40 592 c 256,256,257
 57 592 57 592 68 578 c 256,258,259
 80 565 80 565 80 546 c 256,260,261
 80 527 80 527 68 513 c 0,262,263
 63 507 63 507 57 504 c 1,264,-1
 57 504 l 1,265,266
 63 501 63 501 68 495 c 0,267,268
 80 482 80 482 80 462 c 0,269,270
 80 444 80 444 68 430 c 0,271,272
 63 424 63 424 57 421 c 1,273,-1
 57 421 l 1,274,275
 63 418 63 418 68 412 c 0,276,277
 80 399 80 399 80 379 c 0,278,279
 80 361 80 361 68 347 c 256,280,281
 56 334 56 334 40 333 c 1,282,-1
 40 333 l 1,231,232
120 500 m 1,283,284
 103 500 103 500 91 513 c 256,285,286
 79.9230769231 525 79.9230769231 525 79.9230769231 542.964497041 c 0,287,288
 79.9230769231 564.909090909 79.9230769231 564.909090909 91 578 c 256,289,290
 103 591 103 591 120 592 c 0,291,292
 137 592 137 592 148 578 c 256,293,294
 160 565 160 565 160 546 c 256,295,296
 160 527 160 527 148 513 c 256,297,298
 136 500 136 500 120 500 c 1,299,-1
 120 500 l 1,283,284
200 500 m 1,300,301
 183 500 183 500 171 513 c 256,302,303
 159.923076923 525 159.923076923 525 159.923076923 542.964497041 c 0,304,305
 159.923076923 564.909090909 159.923076923 564.909090909 171 578 c 256,306,307
 183 591 183 591 200 592 c 0,308,309
 217 592 217 592 228 578 c 256,310,311
 240 565 240 565 240 546 c 256,312,313
 240 527 240 527 228 513 c 256,314,315
 216 500 216 500 200 500 c 1,316,-1
 200 500 l 1,300,301
280 500 m 1,317,318
 263 500 263 500 251 513 c 256,319,320
 239.923076923 525 239.923076923 525 239.923076923 542.964497041 c 0,321,322
 239.923076923 564.909090909 239.923076923 564.909090909 251 578 c 256,323,324
 263 591 263 591 280 592 c 0,325,326
 297 592 297 592 308 578 c 256,327,328
 320 565 320 565 320 546 c 256,329,330
 320 527 320 527 308 513 c 256,331,332
 296 500 296 500 280 500 c 1,333,-1
 280 500 l 1,317,318
EndSplineSet
Validated: 524293
EndChar

StartChar: six
Encoding: 54 54 22
Width: 360
VWidth: 833
Flags: W
LayerCount: 2
Fore
SplineSet
40 -167 m 1,0,1
 23 -167 23 -167 11 -153 c 0,2,3
 0 -140 0 -140 0 -121 c 0,4,5
 0 -103 0 -103 11 -88 c 0,6,7
 23 -75 23 -75 40 -75 c 256,8,9
 57 -75 57 -75 68 -88 c 256,10,11
 80 -101 80 -101 80 -121 c 0,12,13
 80 -140 80 -140 68 -153 c 256,14,15
 56 -166 56 -166 40 -167 c 1,16,-1
 40 -167 l 1,0,1
120 -167 m 1,17,18
 103 -167 103 -167 91 -153 c 256,19,20
 79.9230769231 -141 79.9230769231 -141 79.9230769231 -123.887573964 c 0,21,22
 79.9230769231 -103.104895105 79.9230769231 -103.104895105 91 -88 c 256,23,24
 103 -75 103 -75 120 -75 c 128,-1,25
 137 -75 137 -75 148 -88 c 256,26,27
 160 -101 160 -101 160 -121 c 0,28,29
 160 -140 160 -140 148 -153 c 256,30,31
 136 -166 136 -166 120 -167 c 1,32,-1
 120 -167 l 1,17,18
200 -167 m 1,33,34
 183 -167 183 -167 171 -153 c 256,35,36
 159.923076923 -141 159.923076923 -141 159.923076923 -123.887573964 c 0,37,38
 159.923076923 -103.104895105 159.923076923 -103.104895105 171 -88 c 256,39,40
 183 -75 183 -75 200 -75 c 128,-1,41
 217 -75 217 -75 228 -88 c 256,42,43
 240 -101 240 -101 240 -121 c 0,44,45
 240 -140 240 -140 228 -153 c 256,46,47
 216 -166 216 -166 200 -167 c 1,48,-1
 200 -167 l 1,33,34
280 -167 m 1,49,50
 263 -167 263 -167 251 -153 c 256,51,52
 239.923076923 -141 239.923076923 -141 239.923076923 -123.887573964 c 0,53,54
 239.923076923 -103.104895105 239.923076923 -103.104895105 251 -88 c 256,55,56
 263 -75 263 -75 280 -75 c 128,-1,57
 297 -75 297 -75 308 -88 c 256,58,59
 320 -101 320 -101 320 -121 c 0,60,61
 320 -140 320 -140 308 -153 c 256,62,63
 296 -166 296 -166 280 -167 c 1,64,-1
 280 -167 l 1,49,50
360 -167 m 1,65,66
 343 -167 343 -167 332 -153 c 256,67,68
 320 -140 320 -140 320 -121 c 0,69,70
 320 -103 320 -103 332 -88 c 256,71,72
 344 -75 344 -75 360 -75 c 256,73,74
 377 -75 377 -75 388 -88 c 0,75,76
 400 -101 400 -101 400 -121 c 0,77,78
 400 -140 400 -140 388 -153 c 128,-1,79
 376 -166 376 -166 360 -167 c 1,80,-1
 360 -167 l 1,65,66
80 0 m 1,81,82
 63 0 63 0 51 13 c 0,83,84
 39.9230769231 25.9230769231 39.9230769231 25.9230769231 39.9230769231 43.1065088757 c 0,85,86
 39.9230769231 64.9090909091 39.9230769231 64.9090909091 51 78 c 256,87,88
 63 91 63 91 80 92 c 0,89,90
 97 92 97 92 108 78 c 256,91,92
 120 65 120 65 120 46 c 0,93,94
 120 28 120 28 108 13 c 0,95,96
 96 0 96 0 80 0 c 1,97,-1
 80 0 l 1,81,82
160 0 m 1,98,99
 143 0 143 0 132 13 c 0,100,101
 120 27 120 27 120 46 c 128,-1,102
 120 65 120 65 132 78 c 256,103,104
 144 91 144 91 160 92 c 256,105,106
 177 92 177 92 188 78 c 0,107,108
 200 65 200 65 200 46 c 0,109,110
 200 28 200 28 188 13 c 0,111,112
 176 0 176 0 160 0 c 1,113,-1
 160 0 l 1,98,99
240 0 m 1,114,115
 223 0 223 0 211 13 c 0,116,117
 200 27 200 27 200 46 c 128,-1,118
 200 65 200 65 211 78 c 0,119,120
 223 91 223 91 240 92 c 256,121,122
 257 92 257 92 268 78 c 256,123,124
 280 65 280 65 280 46 c 0,125,126
 280 28 280 28 268 13 c 0,127,128
 256 0 256 0 240 0 c 1,129,-1
 240 0 l 1,114,115
40 83 m 1,130,131
 23 83 23 83 11 97 c 0,132,133
 0 110 0 110 0 129 c 256,134,135
 0 148 0 148 11 162 c 0,136,137
 17 168 17 168 22 171 c 1,138,-1
 22 171 l 1,139,140
 16 174 16 174 11 180 c 0,141,142
 0 192 0 192 0 212 c 0,143,144
 0 230 0 230 11 244 c 0,145,146
 23 257 23 257 40 258 c 256,147,148
 57 258 57 258 68 244 c 256,149,150
 80 230 80 230 80 212 c 0,151,152
 80 193 80 193 68 180 c 0,153,154
 63 174 63 174 57 171 c 1,155,-1
 57 171 l 1,156,157
 63 168 63 168 68 162 c 0,158,159
 80 149 80 149 80 129 c 256,160,161
 80 110 80 110 68 97 c 256,162,163
 56 84 56 84 40 83 c 1,164,-1
 40 83 l 1,130,131
280 83 m 1,165,166
 263 83 263 83 251 97 c 256,167,168
 239.923076923 109 239.923076923 109 239.923076923 126.112426036 c 0,169,170
 239.923076923 147.902097902 239.923076923 147.902097902 251 162 c 0,171,172
 256 168 256 168 263 171 c 1,173,-1
 263 171 l 1,174,175
 257 174 257 174 251 180 c 0,176,177
 239.923076923 191.076923077 239.923076923 191.076923077 239.923076923 208.970414201 c 0,178,179
 239.923076923 229.902097902 239.923076923 229.902097902 251 244 c 256,180,181
 263 257 263 257 280 258 c 0,182,183
 297 258 297 258 308 244 c 256,184,185
 320 230 320 230 320 212 c 0,186,187
 320 193 320 193 308 180 c 0,188,189
 302 174 302 174 297 171 c 1,190,-1
 297 171 l 1,191,192
 303 168 303 168 308 162 c 0,193,194
 320 149 320 149 320 129 c 256,195,196
 320 110 320 110 308 97 c 256,197,198
 296 84 296 84 280 83 c 1,199,-1
 280 83 l 1,165,166
80 250 m 1,200,201
 63 250 63 250 51 263 c 256,202,203
 39.9230769231 275 39.9230769231 275 39.9230769231 292.964497041 c 0,204,205
 39.9230769231 313.902097902 39.9230769231 313.902097902 51 328 c 256,206,207
 63 341 63 341 80 342 c 0,208,209
 97 342 97 342 108 328 c 256,210,211
 120 315 120 315 120 296 c 128,-1,212
 120 277 120 277 108 263 c 256,213,214
 96 250 96 250 80 250 c 1,215,-1
 80 250 l 1,200,201
160 250 m 1,216,217
 143 250 143 250 132 263 c 256,218,219
 120 276 120 276 120 296 c 0,220,221
 120 314 120 314 132 328 c 256,222,223
 144 341 144 341 160 342 c 256,224,225
 177 342 177 342 188 328 c 0,226,227
 200 315 200 315 200 296 c 128,-1,228
 200 277 200 277 188 263 c 0,229,230
 176 250 176 250 160 250 c 1,231,-1
 160 250 l 1,216,217
240 250 m 1,232,233
 223 250 223 250 211 263 c 0,234,235
 200 276 200 276 200 296 c 0,236,237
 200 314 200 314 211 328 c 0,238,239
 223 341 223 341 240 342 c 256,240,241
 257 342 257 342 268 328 c 256,242,243
 280 315 280 315 280 296 c 128,-1,244
 280 277 280 277 268 263 c 256,245,246
 256 250 256 250 240 250 c 1,247,-1
 240 250 l 1,232,233
120 333 m 1,248,249
 103 333 103 333 91 347 c 256,250,251
 79.9230769231 359 79.9230769231 359 79.9230769231 376.112426036 c 0,252,253
 79.9230769231 397.902097902 79.9230769231 397.902097902 91 412 c 256,254,255
 103 425 103 425 120 425 c 128,-1,256
 137 425 137 425 148 412 c 256,257,258
 160 399 160 399 160 379 c 0,259,260
 160 361 160 361 148 347 c 256,261,262
 136 334 136 334 120 333 c 1,263,-1
 120 333 l 1,248,249
160 417 m 1,264,265
 143 417 143 417 132 430 c 0,266,267
 120 444 120 444 120 462 c 0,268,269
 120 481 120 481 132 495 c 256,270,271
 144 508 144 508 160 508 c 256,272,273
 177 508 177 508 188 495 c 0,274,275
 200 482 200 482 200 462 c 0,276,277
 200 444 200 444 188 430 c 0,278,279
 176 417 176 417 160 417 c 1,280,-1
 160 417 l 1,264,265
200 500 m 1,281,282
 183 500 183 500 171 513 c 256,283,284
 159.923076923 525 159.923076923 525 159.923076923 542.964497041 c 0,285,286
 159.923076923 564.909090909 159.923076923 564.909090909 171 578 c 256,287,288
 183 591 183 591 200 592 c 0,289,290
 217 592 217 592 228 578 c 256,291,292
 240 565 240 565 240 546 c 256,293,294
 240 527 240 527 228 513 c 256,295,296
 216 500 216 500 200 500 c 1,297,-1
 200 500 l 1,281,282
EndSplineSet
Validated: 524293
EndChar

StartChar: seven
Encoding: 55 55 23
Width: 360
VWidth: 833
Flags: W
LayerCount: 2
Fore
SplineSet
40 -167 m 1,0,1
 23 -167 23 -167 11 -153 c 0,2,3
 0 -140 0 -140 0 -121 c 0,4,5
 0 -103 0 -103 11 -88 c 0,6,7
 23 -75 23 -75 40 -75 c 256,8,9
 57 -75 57 -75 68 -88 c 256,10,11
 80 -101 80 -101 80 -121 c 0,12,13
 80 -140 80 -140 68 -153 c 256,14,15
 56 -166 56 -166 40 -167 c 1,16,-1
 40 -167 l 1,0,1
120 -167 m 1,17,18
 103 -167 103 -167 91 -153 c 256,19,20
 79.9230769231 -141 79.9230769231 -141 79.9230769231 -123.887573964 c 0,21,22
 79.9230769231 -103.104895105 79.9230769231 -103.104895105 91 -88 c 256,23,24
 103 -75 103 -75 120 -75 c 128,-1,25
 137 -75 137 -75 148 -88 c 256,26,27
 160 -101 160 -101 160 -121 c 0,28,29
 160 -140 160 -140 148 -153 c 256,30,31
 136 -166 136 -166 120 -167 c 1,32,-1
 120 -167 l 1,17,18
200 -167 m 1,33,34
 183 -167 183 -167 171 -153 c 256,35,36
 159.923076923 -141 159.923076923 -141 159.923076923 -123.887573964 c 0,37,38
 159.923076923 -103.104895105 159.923076923 -103.104895105 171 -88 c 256,39,40
 183 -75 183 -75 200 -75 c 128,-1,41
 217 -75 217 -75 228 -88 c 256,42,43
 240 -101 240 -101 240 -121 c 0,44,45
 240 -140 240 -140 228 -153 c 256,46,47
 216 -166 216 -166 200 -167 c 1,48,-1
 200 -167 l 1,33,34
280 -167 m 1,49,50
 263 -167 263 -167 251 -153 c 256,51,52
 239.923076923 -141 239.923076923 -141 239.923076923 -123.887573964 c 0,53,54
 239.923076923 -103.104895105 239.923076923 -103.104895105 251 -88 c 256,55,56
 263 -75 263 -75 280 -75 c 128,-1,57
 297 -75 297 -75 308 -88 c 256,58,59
 320 -101 320 -101 320 -121 c 0,60,61
 320 -140 320 -140 308 -153 c 256,62,63
 296 -166 296 -166 280 -167 c 1,64,-1
 280 -167 l 1,49,50
360 -167 m 1,65,66
 343 -167 343 -167 332 -153 c 256,67,68
 320 -140 320 -140 320 -121 c 0,69,70
 320 -103 320 -103 332 -88 c 256,71,72
 344 -75 344 -75 360 -75 c 256,73,74
 377 -75 377 -75 388 -88 c 0,75,76
 400 -101 400 -101 400 -121 c 0,77,78
 400 -140 400 -140 388 -153 c 128,-1,79
 376 -166 376 -166 360 -167 c 1,80,-1
 360 -167 l 1,65,66
40 0 m 1,81,82
 23 0 23 0 11 13 c 0,83,84
 0 27 0 27 0 46 c 128,-1,85
 0 65 0 65 11 78 c 0,86,87
 23 91 23 91 40 92 c 256,88,89
 57 92 57 92 68 78 c 256,90,91
 80 65 80 65 80 46 c 0,92,93
 80 28 80 28 68 13 c 0,94,95
 56 0 56 0 40 0 c 1,96,-1
 40 0 l 1,81,82
80 83 m 1,97,98
 63 83 63 83 51 97 c 256,99,100
 39.9230769231 109 39.9230769231 109 39.9230769231 126.112426036 c 0,101,102
 39.9230769231 147.902097902 39.9230769231 147.902097902 51 162 c 256,103,104
 63 175 63 175 80 175 c 128,-1,105
 97 175 97 175 108 162 c 256,106,107
 120 149 120 149 120 129 c 256,108,109
 120 110 120 110 108 97 c 256,110,111
 96 84 96 84 80 83 c 1,112,-1
 80 83 l 1,97,98
120 167 m 1,113,114
 103 167 103 167 91 180 c 256,115,116
 79.9230769231 191.076923077 79.9230769231 191.076923077 79.9230769231 208.970414201 c 0,117,118
 79.9230769231 229.902097902 79.9230769231 229.902097902 91 244 c 256,119,120
 103 257 103 257 120 258 c 0,121,122
 137 258 137 258 148 244 c 256,123,124
 160 230 160 230 160 212 c 0,125,126
 160 193 160 193 148 180 c 256,127,128
 136 167 136 167 120 167 c 1,129,-1
 120 167 l 1,113,114
160 250 m 1,130,131
 143 250 143 250 132 263 c 256,132,133
 120 276 120 276 120 296 c 0,134,135
 120 314 120 314 132 328 c 256,136,137
 144 341 144 341 160 342 c 256,138,139
 177 342 177 342 188 328 c 0,140,141
 200 315 200 315 200 296 c 128,-1,142
 200 277 200 277 188 263 c 0,143,144
 176 250 176 250 160 250 c 1,145,-1
 160 250 l 1,130,131
200 333 m 1,146,147
 183 333 183 333 171 347 c 256,148,149
 159.923076923 359 159.923076923 359 159.923076923 376.112426036 c 0,150,151
 159.923076923 397.902097902 159.923076923 397.902097902 171 412 c 256,152,153
 183 425 183 425 200 425 c 128,-1,154
 217 425 217 425 228 412 c 256,155,156
 240 399 240 399 240 379 c 0,157,158
 240 361 240 361 228 347 c 256,159,160
 216 334 216 334 200 333 c 1,161,-1
 200 333 l 1,146,147
240 417 m 1,162,163
 223 417 223 417 211 430 c 0,164,165
 200 444 200 444 200 462 c 0,166,167
 200 481 200 481 211 495 c 0,168,169
 223 508 223 508 240 508 c 256,170,171
 257 508 257 508 268 495 c 256,172,173
 280 482 280 482 280 462 c 0,174,175
 280 444 280 444 268 430 c 0,176,177
 256 417 256 417 240 417 c 1,178,-1
 240 417 l 1,162,163
40 500 m 1,179,180
 23 500 23 500 11 513 c 0,181,182
 0 526 0 526 0 546 c 256,183,184
 0 565 0 565 11 578 c 0,185,186
 23 591 23 591 40 592 c 256,187,188
 57 592 57 592 68 578 c 256,189,190
 80 565 80 565 80 546 c 256,191,192
 80 527 80 527 68 513 c 256,193,194
 56 500 56 500 40 500 c 1,195,-1
 40 500 l 1,179,180
120 500 m 1,196,197
 103 500 103 500 91 513 c 256,198,199
 79.9230769231 525 79.9230769231 525 79.9230769231 542.964497041 c 0,200,201
 79.9230769231 564.909090909 79.9230769231 564.909090909 91 578 c 256,202,203
 103 591 103 591 120 592 c 0,204,205
 137 592 137 592 148 578 c 256,206,207
 160 565 160 565 160 546 c 256,208,209
 160 527 160 527 148 513 c 256,210,211
 136 500 136 500 120 500 c 1,212,-1
 120 500 l 1,196,197
200 500 m 1,213,214
 183 500 183 500 171 513 c 256,215,216
 159.923076923 525 159.923076923 525 159.923076923 542.964497041 c 0,217,218
 159.923076923 564.909090909 159.923076923 564.909090909 171 578 c 256,219,220
 183 591 183 591 200 592 c 0,221,222
 217 592 217 592 228 578 c 256,223,224
 240 565 240 565 240 546 c 256,225,226
 240 527 240 527 228 513 c 256,227,228
 216 500 216 500 200 500 c 1,229,-1
 200 500 l 1,213,214
280 500 m 1,230,231
 263 500 263 500 251 513 c 256,232,233
 239.923076923 525 239.923076923 525 239.923076923 542.964497041 c 0,234,235
 239.923076923 564.909090909 239.923076923 564.909090909 251 578 c 256,236,237
 263 591 263 591 280 592 c 0,238,239
 297 592 297 592 308 578 c 256,240,241
 320 565 320 565 320 546 c 256,242,243
 320 527 320 527 308 513 c 256,244,245
 296 500 296 500 280 500 c 1,246,-1
 280 500 l 1,230,231
EndSplineSet
Validated: 524293
EndChar

StartChar: eight
Encoding: 56 56 24
Width: 360
VWidth: 833
Flags: W
LayerCount: 2
Fore
SplineSet
40 -167 m 1,0,1
 23 -167 23 -167 11 -153 c 0,2,3
 0 -140 0 -140 0 -121 c 0,4,5
 0 -103 0 -103 11 -88 c 0,6,7
 23 -75 23 -75 40 -75 c 256,8,9
 57 -75 57 -75 68 -88 c 256,10,11
 80 -101 80 -101 80 -121 c 0,12,13
 80 -140 80 -140 68 -153 c 256,14,15
 56 -166 56 -166 40 -167 c 1,16,-1
 40 -167 l 1,0,1
120 -167 m 1,17,18
 103 -167 103 -167 91 -153 c 256,19,20
 79.9230769231 -141 79.9230769231 -141 79.9230769231 -123.887573964 c 0,21,22
 79.9230769231 -103.104895105 79.9230769231 -103.104895105 91 -88 c 256,23,24
 103 -75 103 -75 120 -75 c 128,-1,25
 137 -75 137 -75 148 -88 c 256,26,27
 160 -101 160 -101 160 -121 c 0,28,29
 160 -140 160 -140 148 -153 c 256,30,31
 136 -166 136 -166 120 -167 c 1,32,-1
 120 -167 l 1,17,18
200 -167 m 1,33,34
 183 -167 183 -167 171 -153 c 256,35,36
 159.923076923 -141 159.923076923 -141 159.923076923 -123.887573964 c 0,37,38
 159.923076923 -103.104895105 159.923076923 -103.104895105 171 -88 c 256,39,40
 183 -75 183 -75 200 -75 c 128,-1,41
 217 -75 217 -75 228 -88 c 256,42,43
 240 -101 240 -101 240 -121 c 0,44,45
 240 -140 240 -140 228 -153 c 256,46,47
 216 -166 216 -166 200 -167 c 1,48,-1
 200 -167 l 1,33,34
280 -167 m 1,49,50
 263 -167 263 -167 251 -153 c 256,51,52
 239.923076923 -141 239.923076923 -141 239.923076923 -123.887573964 c 0,53,54
 239.923076923 -103.104895105 239.923076923 -103.104895105 251 -88 c 256,55,56
 263 -75 263 -75 280 -75 c 128,-1,57
 297 -75 297 -75 308 -88 c 256,58,59
 320 -101 320 -101 320 -121 c 0,60,61
 320 -140 320 -140 308 -153 c 256,62,63
 296 -166 296 -166 280 -167 c 1,64,-1
 280 -167 l 1,49,50
360 -167 m 1,65,66
 343 -167 343 -167 332 -153 c 256,67,68
 320 -140 320 -140 320 -121 c 0,69,70
 320 -103 320 -103 332 -88 c 256,71,72
 344 -75 344 -75 360 -75 c 256,73,74
 377 -75 377 -75 388 -88 c 0,75,76
 400 -101 400 -101 400 -121 c 0,77,78
 400 -140 400 -140 388 -153 c 128,-1,79
 376 -166 376 -166 360 -167 c 1,80,-1
 360 -167 l 1,65,66
80 0 m 1,81,82
 63 0 63 0 51 13 c 0,83,84
 39.9230769231 25.9230769231 39.9230769231 25.9230769231 39.9230769231 43.1065088757 c 0,85,86
 39.9230769231 64.9090909091 39.9230769231 64.9090909091 51 78 c 256,87,88
 63 91 63 91 80 92 c 0,89,90
 97 92 97 92 108 78 c 256,91,92
 120 65 120 65 120 46 c 0,93,94
 120 28 120 28 108 13 c 0,95,96
 96 0 96 0 80 0 c 1,97,-1
 80 0 l 1,81,82
160 0 m 1,98,99
 143 0 143 0 132 13 c 0,100,101
 120 27 120 27 120 46 c 128,-1,102
 120 65 120 65 132 78 c 256,103,104
 144 91 144 91 160 92 c 256,105,106
 177 92 177 92 188 78 c 0,107,108
 200 65 200 65 200 46 c 0,109,110
 200 28 200 28 188 13 c 0,111,112
 176 0 176 0 160 0 c 1,113,-1
 160 0 l 1,98,99
240 0 m 1,114,115
 223 0 223 0 211 13 c 0,116,117
 200 27 200 27 200 46 c 128,-1,118
 200 65 200 65 211 78 c 0,119,120
 223 91 223 91 240 92 c 256,121,122
 257 92 257 92 268 78 c 256,123,124
 280 65 280 65 280 46 c 0,125,126
 280 28 280 28 268 13 c 0,127,128
 256 0 256 0 240 0 c 1,129,-1
 240 0 l 1,114,115
40 83 m 1,130,131
 23 83 23 83 11 97 c 0,132,133
 0 110 0 110 0 129 c 256,134,135
 0 148 0 148 11 162 c 0,136,137
 17 168 17 168 22 171 c 1,138,-1
 22 171 l 1,139,140
 16 174 16 174 11 180 c 0,141,142
 0 192 0 192 0 212 c 0,143,144
 0 230 0 230 11 244 c 0,145,146
 23 257 23 257 40 258 c 256,147,148
 57 258 57 258 68 244 c 256,149,150
 80 230 80 230 80 212 c 0,151,152
 80 193 80 193 68 180 c 0,153,154
 63 174 63 174 57 171 c 1,155,-1
 57 171 l 1,156,157
 63 168 63 168 68 162 c 0,158,159
 80 149 80 149 80 129 c 256,160,161
 80 110 80 110 68 97 c 256,162,163
 56 84 56 84 40 83 c 1,164,-1
 40 83 l 1,130,131
280 83 m 1,165,166
 263 83 263 83 251 97 c 256,167,168
 239.923076923 109 239.923076923 109 239.923076923 126.112426036 c 0,169,170
 239.923076923 147.902097902 239.923076923 147.902097902 251 162 c 0,171,172
 256 168 256 168 263 171 c 1,173,-1
 263 171 l 1,174,175
 257 174 257 174 251 180 c 0,176,177
 239.923076923 191.076923077 239.923076923 191.076923077 239.923076923 208.970414201 c 0,178,179
 239.923076923 229.902097902 239.923076923 229.902097902 251 244 c 256,180,181
 263 257 263 257 280 258 c 0,182,183
 297 258 297 258 308 244 c 256,184,185
 320 230 320 230 320 212 c 0,186,187
 320 193 320 193 308 180 c 0,188,189
 302 174 302 174 297 171 c 1,190,-1
 297 171 l 1,191,192
 303 168 303 168 308 162 c 0,193,194
 320 149 320 149 320 129 c 256,195,196
 320 110 320 110 308 97 c 256,197,198
 296 84 296 84 280 83 c 1,199,-1
 280 83 l 1,165,166
80 250 m 1,200,201
 63 250 63 250 51 263 c 256,202,203
 39.9230769231 275 39.9230769231 275 39.9230769231 292.964497041 c 0,204,205
 39.9230769231 313.902097902 39.9230769231 313.902097902 51 328 c 256,206,207
 63 341 63 341 80 342 c 0,208,209
 97 342 97 342 108 328 c 256,210,211
 120 315 120 315 120 296 c 128,-1,212
 120 277 120 277 108 263 c 256,213,214
 96 250 96 250 80 250 c 1,215,-1
 80 250 l 1,200,201
160 250 m 1,216,217
 143 250 143 250 132 263 c 256,218,219
 120 276 120 276 120 296 c 0,220,221
 120 314 120 314 132 328 c 256,222,223
 144 341 144 341 160 342 c 256,224,225
 177 342 177 342 188 328 c 0,226,227
 200 315 200 315 200 296 c 128,-1,228
 200 277 200 277 188 263 c 0,229,230
 176 250 176 250 160 250 c 1,231,-1
 160 250 l 1,216,217
240 250 m 1,232,233
 223 250 223 250 211 263 c 0,234,235
 200 276 200 276 200 296 c 0,236,237
 200 314 200 314 211 328 c 0,238,239
 223 341 223 341 240 342 c 256,240,241
 257 342 257 342 268 328 c 256,242,243
 280 315 280 315 280 296 c 128,-1,244
 280 277 280 277 268 263 c 256,245,246
 256 250 256 250 240 250 c 1,247,-1
 240 250 l 1,232,233
40 333 m 1,248,249
 23 333 23 333 11 347 c 0,250,251
 0 360 0 360 0 379 c 128,-1,252
 0 398 0 398 11 412 c 0,253,254
 17 418 17 418 22 421 c 1,255,-1
 22 421 l 1,256,257
 16 424 16 424 11 430 c 0,258,259
 0 444 0 444 0 462 c 0,260,261
 0 481 0 481 11 495 c 0,262,263
 23 508 23 508 40 508 c 256,264,265
 57 508 57 508 68 495 c 256,266,267
 80 482 80 482 80 462 c 0,268,269
 80 444 80 444 68 430 c 0,270,271
 63 424 63 424 57 421 c 1,272,-1
 57 421 l 1,273,274
 63 418 63 418 68 412 c 0,275,276
 80 399 80 399 80 379 c 0,277,278
 80 361 80 361 68 347 c 256,279,280
 56 334 56 334 40 333 c 1,281,-1
 40 333 l 1,248,249
280 333 m 1,282,283
 263 333 263 333 251 347 c 256,284,285
 239.923076923 359 239.923076923 359 239.923076923 376.112426036 c 0,286,287
 239.923076923 397.902097902 239.923076923 397.902097902 251 412 c 0,288,289
 256 418 256 418 263 421 c 1,290,-1
 263 421 l 1,291,292
 257 424 257 424 251 430 c 0,293,294
 239.923076923 442.923076923 239.923076923 442.923076923 239.923076923 459.25443787 c 0,295,296
 239.923076923 480.902097902 239.923076923 480.902097902 251 495 c 256,297,298
 263 508 263 508 280 508 c 128,-1,299
 297 508 297 508 308 495 c 256,300,301
 320 482 320 482 320 462 c 0,302,303
 320 444 320 444 308 430 c 0,304,305
 302 424 302 424 297 421 c 1,306,-1
 297 421 l 1,307,308
 303 418 303 418 308 412 c 0,309,310
 320 399 320 399 320 379 c 0,311,312
 320 361 320 361 308 347 c 256,313,314
 296 334 296 334 280 333 c 1,315,-1
 280 333 l 1,282,283
80 500 m 1,316,317
 63 500 63 500 51 513 c 256,318,319
 39.9230769231 525 39.9230769231 525 39.9230769231 542.964497041 c 0,320,321
 39.9230769231 564.909090909 39.9230769231 564.909090909 51 578 c 256,322,323
 63 591 63 591 80 592 c 0,324,325
 97 592 97 592 108 578 c 256,326,327
 120 565 120 565 120 546 c 256,328,329
 120 527 120 527 108 513 c 256,330,331
 96 500 96 500 80 500 c 1,332,-1
 80 500 l 1,316,317
160 500 m 1,333,334
 143 500 143 500 132 513 c 256,335,336
 120 526 120 526 120 546 c 256,337,338
 120 565 120 565 132 578 c 256,339,340
 144 591 144 591 160 592 c 256,341,342
 177 592 177 592 188 578 c 0,343,344
 200 565 200 565 200 546 c 256,345,346
 200 527 200 527 188 513 c 0,347,348
 176 500 176 500 160 500 c 1,349,-1
 160 500 l 1,333,334
240 500 m 1,350,351
 223 500 223 500 211 513 c 0,352,353
 200 526 200 526 200 546 c 256,354,355
 200 565 200 565 211 578 c 0,356,357
 223 591 223 591 240 592 c 256,358,359
 257 592 257 592 268 578 c 256,360,361
 280 565 280 565 280 546 c 256,362,363
 280 527 280 527 268 513 c 256,364,365
 256 500 256 500 240 500 c 1,366,-1
 240 500 l 1,350,351
EndSplineSet
Validated: 524293
EndChar

StartChar: nine
Encoding: 57 57 25
Width: 360
VWidth: 833
Flags: W
LayerCount: 2
Fore
SplineSet
40 -167 m 1,0,1
 23 -167 23 -167 11 -153 c 0,2,3
 0 -140 0 -140 0 -121 c 0,4,5
 0 -103 0 -103 11 -88 c 0,6,7
 23 -75 23 -75 40 -75 c 256,8,9
 57 -75 57 -75 68 -88 c 256,10,11
 80 -101 80 -101 80 -121 c 0,12,13
 80 -140 80 -140 68 -153 c 256,14,15
 56 -166 56 -166 40 -167 c 1,16,-1
 40 -167 l 1,0,1
120 -167 m 1,17,18
 103 -167 103 -167 91 -153 c 256,19,20
 79.9230769231 -141 79.9230769231 -141 79.9230769231 -123.887573964 c 0,21,22
 79.9230769231 -103.104895105 79.9230769231 -103.104895105 91 -88 c 256,23,24
 103 -75 103 -75 120 -75 c 128,-1,25
 137 -75 137 -75 148 -88 c 256,26,27
 160 -101 160 -101 160 -121 c 0,28,29
 160 -140 160 -140 148 -153 c 256,30,31
 136 -166 136 -166 120 -167 c 1,32,-1
 120 -167 l 1,17,18
200 -167 m 1,33,34
 183 -167 183 -167 171 -153 c 256,35,36
 159.923076923 -141 159.923076923 -141 159.923076923 -123.887573964 c 0,37,38
 159.923076923 -103.104895105 159.923076923 -103.104895105 171 -88 c 256,39,40
 183 -75 183 -75 200 -75 c 128,-1,41
 217 -75 217 -75 228 -88 c 256,42,43
 240 -101 240 -101 240 -121 c 0,44,45
 240 -140 240 -140 228 -153 c 256,46,47
 216 -166 216 -166 200 -167 c 1,48,-1
 200 -167 l 1,33,34
280 -167 m 1,49,50
 263 -167 263 -167 251 -153 c 256,51,52
 239.923076923 -141 239.923076923 -141 239.923076923 -123.887573964 c 0,53,54
 239.923076923 -103.104895105 239.923076923 -103.104895105 251 -88 c 256,55,56
 263 -75 263 -75 280 -75 c 128,-1,57
 297 -75 297 -75 308 -88 c 256,58,59
 320 -101 320 -101 320 -121 c 0,60,61
 320 -140 320 -140 308 -153 c 256,62,63
 296 -166 296 -166 280 -167 c 1,64,-1
 280 -167 l 1,49,50
360 -167 m 1,65,66
 343 -167 343 -167 332 -153 c 256,67,68
 320 -140 320 -140 320 -121 c 0,69,70
 320 -103 320 -103 332 -88 c 256,71,72
 344 -75 344 -75 360 -75 c 256,73,74
 377 -75 377 -75 388 -88 c 0,75,76
 400 -101 400 -101 400 -121 c 0,77,78
 400 -140 400 -140 388 -153 c 128,-1,79
 376 -166 376 -166 360 -167 c 1,80,-1
 360 -167 l 1,65,66
120 0 m 1,81,82
 103 0 103 0 91 13 c 0,83,84
 79.9230769231 25.9230769231 79.9230769231 25.9230769231 79.9230769231 43.1065088757 c 0,85,86
 79.9230769231 64.9090909091 79.9230769231 64.9090909091 91 78 c 256,87,88
 103 91 103 91 120 92 c 0,89,90
 137 92 137 92 148 78 c 256,91,92
 160 65 160 65 160 46 c 0,93,94
 160 28 160 28 148 13 c 0,95,96
 136 0 136 0 120 0 c 1,97,-1
 120 0 l 1,81,82
160 83 m 1,98,99
 143 83 143 83 132 97 c 256,100,101
 120 110 120 110 120 129 c 256,102,103
 120 148 120 148 132 162 c 256,104,105
 144 175 144 175 160 175 c 256,106,107
 177 175 177 175 188 162 c 0,108,109
 200 149 200 149 200 129 c 256,110,111
 200 110 200 110 188 97 c 128,-1,112
 176 84 176 84 160 83 c 1,113,-1
 160 83 l 1,98,99
200 167 m 1,114,115
 183 167 183 167 171 180 c 256,116,117
 159.923076923 191.076923077 159.923076923 191.076923077 159.923076923 208.970414201 c 0,118,119
 159.923076923 229.902097902 159.923076923 229.902097902 171 244 c 256,120,121
 183 257 183 257 200 258 c 0,122,123
 217 258 217 258 228 244 c 256,124,125
 240 230 240 230 240 212 c 0,126,127
 240 193 240 193 228 180 c 256,128,129
 216 167 216 167 200 167 c 1,130,-1
 200 167 l 1,114,115
80 250 m 1,131,132
 63 250 63 250 51 263 c 256,133,134
 39.9230769231 275 39.9230769231 275 39.9230769231 292.964497041 c 0,135,136
 39.9230769231 313.902097902 39.9230769231 313.902097902 51 328 c 256,137,138
 63 341 63 341 80 342 c 0,139,140
 97 342 97 342 108 328 c 256,141,142
 120 315 120 315 120 296 c 128,-1,143
 120 277 120 277 108 263 c 256,144,145
 96 250 96 250 80 250 c 1,146,-1
 80 250 l 1,131,132
160 250 m 1,147,148
 143 250 143 250 132 263 c 256,149,150
 120 276 120 276 120 296 c 0,151,152
 120 314 120 314 132 328 c 256,153,154
 144 341 144 341 160 342 c 256,155,156
 177 342 177 342 188 328 c 0,157,158
 200 315 200 315 200 296 c 128,-1,159
 200 277 200 277 188 263 c 0,160,161
 176 250 176 250 160 250 c 1,162,-1
 160 250 l 1,147,148
240 250 m 1,163,164
 223 250 223 250 211 263 c 0,165,166
 200 276 200 276 200 296 c 0,167,168
 200 314 200 314 211 328 c 0,169,170
 223 341 223 341 240 342 c 256,171,172
 257 342 257 342 268 328 c 256,173,174
 280 315 280 315 280 296 c 128,-1,175
 280 277 280 277 268 263 c 256,176,177
 256 250 256 250 240 250 c 1,178,-1
 240 250 l 1,163,164
40 333 m 1,179,180
 23 333 23 333 11 347 c 0,181,182
 0 360 0 360 0 379 c 128,-1,183
 0 398 0 398 11 412 c 0,184,185
 17 418 17 418 22 421 c 1,186,-1
 22 421 l 1,187,188
 16 424 16 424 11 430 c 0,189,190
 0 444 0 444 0 462 c 0,191,192
 0 481 0 481 11 495 c 0,193,194
 23 508 23 508 40 508 c 256,195,196
 57 508 57 508 68 495 c 256,197,198
 80 482 80 482 80 462 c 0,199,200
 80 444 80 444 68 430 c 0,201,202
 63 424 63 424 57 421 c 1,203,-1
 57 421 l 1,204,205
 63 418 63 418 68 412 c 0,206,207
 80 399 80 399 80 379 c 0,208,209
 80 361 80 361 68 347 c 256,210,211
 56 334 56 334 40 333 c 1,212,-1
 40 333 l 1,179,180
280 333 m 1,213,214
 263 333 263 333 251 347 c 256,215,216
 239.923076923 359 239.923076923 359 239.923076923 376.112426036 c 0,217,218
 239.923076923 397.902097902 239.923076923 397.902097902 251 412 c 0,219,220
 256 418 256 418 263 421 c 1,221,-1
 263 421 l 1,222,223
 257 424 257 424 251 430 c 0,224,225
 239.923076923 442.923076923 239.923076923 442.923076923 239.923076923 459.25443787 c 0,226,227
 239.923076923 480.902097902 239.923076923 480.902097902 251 495 c 256,228,229
 263 508 263 508 280 508 c 128,-1,230
 297 508 297 508 308 495 c 256,231,232
 320 482 320 482 320 462 c 0,233,234
 320 444 320 444 308 430 c 0,235,236
 302 424 302 424 297 421 c 1,237,-1
 297 421 l 1,238,239
 303 418 303 418 308 412 c 0,240,241
 320 399 320 399 320 379 c 0,242,243
 320 361 320 361 308 347 c 256,244,245
 296 334 296 334 280 333 c 1,246,-1
 280 333 l 1,213,214
80 500 m 1,247,248
 63 500 63 500 51 513 c 256,249,250
 39.9230769231 525 39.9230769231 525 39.9230769231 542.964497041 c 0,251,252
 39.9230769231 564.909090909 39.9230769231 564.909090909 51 578 c 256,253,254
 63 591 63 591 80 592 c 0,255,256
 97 592 97 592 108 578 c 256,257,258
 120 565 120 565 120 546 c 256,259,260
 120 527 120 527 108 513 c 256,261,262
 96 500 96 500 80 500 c 1,263,-1
 80 500 l 1,247,248
160 500 m 1,264,265
 143 500 143 500 132 513 c 256,266,267
 120 526 120 526 120 546 c 256,268,269
 120 565 120 565 132 578 c 256,270,271
 144 591 144 591 160 592 c 256,272,273
 177 592 177 592 188 578 c 0,274,275
 200 565 200 565 200 546 c 256,276,277
 200 527 200 527 188 513 c 0,278,279
 176 500 176 500 160 500 c 1,280,-1
 160 500 l 1,264,265
240 500 m 1,281,282
 223 500 223 500 211 513 c 0,283,284
 200 526 200 526 200 546 c 256,285,286
 200 565 200 565 211 578 c 0,287,288
 223 591 223 591 240 592 c 256,289,290
 257 592 257 592 268 578 c 256,291,292
 280 565 280 565 280 546 c 256,293,294
 280 527 280 527 268 513 c 256,295,296
 256 500 256 500 240 500 c 1,297,-1
 240 500 l 1,281,282
EndSplineSet
Validated: 524293
EndChar

StartChar: colon
Encoding: 58 58 26
Width: 360
VWidth: 833
Flags: W
LayerCount: 2
Fore
SplineSet
40 -167 m 1,0,1
 23 -167 23 -167 11 -153 c 0,2,3
 0 -140 0 -140 0 -121 c 0,4,5
 0 -103 0 -103 11 -88 c 0,6,7
 23 -75 23 -75 40 -75 c 256,8,9
 57 -75 57 -75 68 -88 c 256,10,11
 80 -101 80 -101 80 -121 c 0,12,13
 80 -140 80 -140 68 -153 c 256,14,15
 56 -166 56 -166 40 -167 c 1,16,-1
 40 -167 l 1,0,1
120 -167 m 1,17,18
 103 -167 103 -167 91 -153 c 256,19,20
 79.9230769231 -141 79.9230769231 -141 79.9230769231 -123.887573964 c 0,21,22
 79.9230769231 -103.104895105 79.9230769231 -103.104895105 91 -88 c 256,23,24
 103 -75 103 -75 120 -75 c 128,-1,25
 137 -75 137 -75 148 -88 c 256,26,27
 160 -101 160 -101 160 -121 c 0,28,29
 160 -140 160 -140 148 -153 c 256,30,31
 136 -166 136 -166 120 -167 c 1,32,-1
 120 -167 l 1,17,18
200 -167 m 1,33,34
 183 -167 183 -167 171 -153 c 256,35,36
 159.923076923 -141 159.923076923 -141 159.923076923 -123.887573964 c 0,37,38
 159.923076923 -103.104895105 159.923076923 -103.104895105 171 -88 c 256,39,40
 183 -75 183 -75 200 -75 c 128,-1,41
 217 -75 217 -75 228 -88 c 256,42,43
 240 -101 240 -101 240 -121 c 0,44,45
 240 -140 240 -140 228 -153 c 256,46,47
 216 -166 216 -166 200 -167 c 1,48,-1
 200 -167 l 1,33,34
280 -167 m 1,49,50
 263 -167 263 -167 251 -153 c 256,51,52
 239.923076923 -141 239.923076923 -141 239.923076923 -123.887573964 c 0,53,54
 239.923076923 -103.104895105 239.923076923 -103.104895105 251 -88 c 256,55,56
 263 -75 263 -75 280 -75 c 128,-1,57
 297 -75 297 -75 308 -88 c 256,58,59
 320 -101 320 -101 320 -121 c 0,60,61
 320 -140 320 -140 308 -153 c 256,62,63
 296 -166 296 -166 280 -167 c 1,64,-1
 280 -167 l 1,49,50
360 -167 m 1,65,66
 343 -167 343 -167 332 -153 c 256,67,68
 320 -140 320 -140 320 -121 c 0,69,70
 320 -103 320 -103 332 -88 c 256,71,72
 344 -75 344 -75 360 -75 c 256,73,74
 377 -75 377 -75 388 -88 c 0,75,76
 400 -101 400 -101 400 -121 c 0,77,78
 400 -140 400 -140 388 -153 c 128,-1,79
 376 -166 376 -166 360 -167 c 1,80,-1
 360 -167 l 1,65,66
160 0 m 1,81,82
 143 0 143 0 132 13 c 0,83,84
 120 27 120 27 120 46 c 128,-1,85
 120 65 120 65 132 78 c 256,86,87
 144 91 144 91 160 92 c 256,88,89
 177 92 177 92 188 78 c 0,90,91
 200 65 200 65 200 46 c 0,92,93
 200 28 200 28 188 13 c 0,94,95
 176 0 176 0 160 0 c 1,96,-1
 160 0 l 1,81,82
120 83 m 1,97,98
 103 83 103 83 91 97 c 256,99,100
 79.9230769231 109 79.9230769231 109 79.9230769231 126.112426036 c 0,101,102
 79.9230769231 147.902097902 79.9230769231 147.902097902 91 162 c 256,103,104
 103 175 103 175 120 175 c 128,-1,105
 137 175 137 175 148 162 c 256,106,107
 160 149 160 149 160 129 c 256,108,109
 160 110 160 110 148 97 c 256,110,111
 136 84 136 84 120 83 c 1,112,-1
 120 83 l 1,97,98
200 83 m 1,113,114
 183 83 183 83 171 97 c 256,115,116
 159.923076923 109 159.923076923 109 159.923076923 126.112426036 c 0,117,118
 159.923076923 147.902097902 159.923076923 147.902097902 171 162 c 256,119,120
 183 175 183 175 200 175 c 128,-1,121
 217 175 217 175 228 162 c 256,122,123
 240 149 240 149 240 129 c 256,124,125
 240 110 240 110 228 97 c 256,126,127
 216 84 216 84 200 83 c 1,128,-1
 200 83 l 1,113,114
160 167 m 1,129,130
 143 167 143 167 132 180 c 256,131,132
 120 192 120 192 120 212 c 0,133,134
 120 230 120 230 132 244 c 256,135,136
 144 257 144 257 160 258 c 256,137,138
 177 258 177 258 188 244 c 0,139,140
 200 230 200 230 200 212 c 0,141,142
 200 193 200 193 188 180 c 128,-1,143
 176 167 176 167 160 167 c 1,144,-1
 160 167 l 1,129,130
160 333 m 1,145,146
 143 333 143 333 132 347 c 256,147,148
 120 360 120 360 120 379 c 128,-1,149
 120 398 120 398 132 412 c 256,150,151
 144 425 144 425 160 425 c 256,152,153
 177 425 177 425 188 412 c 0,154,155
 200 399 200 399 200 379 c 0,156,157
 200 361 200 361 188 347 c 0,158,159
 176 334 176 334 160 333 c 1,160,-1
 160 333 l 1,145,146
120 417 m 1,161,162
 103 417 103 417 91 430 c 0,163,164
 79.9230769231 442.923076923 79.9230769231 442.923076923 79.9230769231 459.25443787 c 0,165,166
 79.9230769231 480.902097902 79.9230769231 480.902097902 91 495 c 256,167,168
 103 508 103 508 120 508 c 128,-1,169
 137 508 137 508 148 495 c 256,170,171
 160 482 160 482 160 462 c 0,172,173
 160 444 160 444 148 430 c 0,174,175
 136 417 136 417 120 417 c 1,176,-1
 120 417 l 1,161,162
200 417 m 1,177,178
 183 417 183 417 171 430 c 0,179,180
 159.923076923 442.923076923 159.923076923 442.923076923 159.923076923 459.25443787 c 0,181,182
 159.923076923 480.902097902 159.923076923 480.902097902 171 495 c 256,183,184
 183 508 183 508 200 508 c 128,-1,185
 217 508 217 508 228 495 c 256,186,187
 240 482 240 482 240 462 c 0,188,189
 240 444 240 444 228 430 c 0,190,191
 216 417 216 417 200 417 c 1,192,-1
 200 417 l 1,177,178
160 500 m 1,193,194
 143 500 143 500 132 513 c 256,195,196
 120 526 120 526 120 546 c 256,197,198
 120 565 120 565 132 578 c 256,199,200
 144 591 144 591 160 592 c 256,201,202
 177 592 177 592 188 578 c 0,203,204
 200 565 200 565 200 546 c 256,205,206
 200 527 200 527 188 513 c 0,207,208
 176 500 176 500 160 500 c 1,209,-1
 160 500 l 1,193,194
EndSplineSet
Validated: 524293
EndChar

StartChar: semicolon
Encoding: 59 59 27
Width: 360
VWidth: 833
Flags: W
LayerCount: 2
Fore
SplineSet
40 -167 m 1,0,1
 23 -167 23 -167 11 -153 c 0,2,3
 0 -140 0 -140 0 -121 c 0,4,5
 0 -103 0 -103 11 -88 c 0,6,7
 23 -75 23 -75 40 -75 c 256,8,9
 57 -75 57 -75 68 -88 c 256,10,11
 80 -101 80 -101 80 -121 c 0,12,13
 80 -140 80 -140 68 -153 c 256,14,15
 56 -166 56 -166 40 -167 c 1,16,-1
 40 -167 l 1,0,1
200 -167 m 1,17,18
 183 -167 183 -167 171 -153 c 256,19,20
 159.923076923 -141 159.923076923 -141 159.923076923 -123.887573964 c 0,21,22
 159.923076923 -103.104895105 159.923076923 -103.104895105 171 -88 c 256,23,24
 183 -75 183 -75 200 -75 c 128,-1,25
 217 -75 217 -75 228 -88 c 256,26,27
 240 -101 240 -101 240 -121 c 0,28,29
 240 -140 240 -140 228 -153 c 256,30,31
 216 -166 216 -166 200 -167 c 1,32,-1
 200 -167 l 1,17,18
280 -167 m 1,33,34
 263 -167 263 -167 251 -153 c 256,35,36
 239.923076923 -141 239.923076923 -141 239.923076923 -123.887573964 c 0,37,38
 239.923076923 -103.104895105 239.923076923 -103.104895105 251 -88 c 256,39,40
 263 -75 263 -75 280 -75 c 128,-1,41
 297 -75 297 -75 308 -88 c 256,42,43
 320 -101 320 -101 320 -121 c 0,44,45
 320 -140 320 -140 308 -153 c 256,46,47
 296 -166 296 -166 280 -167 c 1,48,-1
 280 -167 l 1,33,34
360 -167 m 1,49,50
 343 -167 343 -167 332 -153 c 256,51,52
 320 -140 320 -140 320 -121 c 0,53,54
 320 -103 320 -103 332 -88 c 256,55,56
 344 -75 344 -75 360 -75 c 256,57,58
 377 -75 377 -75 388 -88 c 0,59,60
 400 -101 400 -101 400 -121 c 0,61,62
 400 -140 400 -140 388 -153 c 128,-1,63
 376 -166 376 -166 360 -167 c 1,64,-1
 360 -167 l 1,49,50
120 -167 m 1,65,66
 103 -167 103 -167 91 -153 c 256,67,68
 79.9230769231 -141 79.9230769231 -141 79.9230769231 -123.887573964 c 0,69,70
 79.9230769231 -103.104895105 79.9230769231 -103.104895105 91 -88 c 0,71,72
 97 -82 97 -82 102 -79 c 1,73,-1
 102 -79 l 1,74,75
 96 -76 96 -76 91 -69 c 0,76,77
 79.9230769231 -57 79.9230769231 -57 79.9230769231 -40.7396449704 c 0,78,79
 79.9230769231 -19.0979020979 79.9230769231 -19.0979020979 91 -5 c 0,80,81
 103 8 103 8 120 8 c 128,-1,82
 137 8 137 8 148 -5 c 0,83,84
 160 -18 160 -18 160 -38 c 0,85,86
 160 -56 160 -56 148 -69 c 0,87,88
 143 -75 143 -75 137 -79 c 1,89,-1
 137 -79 l 1,90,91
 143 -82 143 -82 148 -88 c 0,92,93
 160 -101 160 -101 160 -121 c 0,94,95
 160 -140 160 -140 148 -153 c 256,96,97
 136 -166 136 -166 120 -167 c 1,98,-1
 120 -167 l 1,65,66
120 8 m 1,99,-1
 120 8 l 257,100,-1
 120 8 l 1,101,-1
 120 8 l 1,99,-1
160 0 m 1,102,103
 143 0 143 0 132 13 c 0,104,105
 120 27 120 27 120 46 c 128,-1,106
 120 65 120 65 132 78 c 256,107,108
 144 91 144 91 160 92 c 256,109,110
 177 92 177 92 188 78 c 0,111,112
 200 65 200 65 200 46 c 0,113,114
 200 28 200 28 188 13 c 0,115,116
 176 0 176 0 160 0 c 1,117,-1
 160 0 l 1,102,103
120 83 m 1,118,119
 103 83 103 83 91 97 c 256,120,121
 79.9230769231 109 79.9230769231 109 79.9230769231 126.112426036 c 0,122,123
 79.9230769231 147.902097902 79.9230769231 147.902097902 91 162 c 256,124,125
 103 175 103 175 120 175 c 128,-1,126
 137 175 137 175 148 162 c 256,127,128
 160 149 160 149 160 129 c 256,129,130
 160 110 160 110 148 97 c 256,131,132
 136 84 136 84 120 83 c 1,133,-1
 120 83 l 1,118,119
200 83 m 1,134,135
 183 83 183 83 171 97 c 256,136,137
 159.923076923 109 159.923076923 109 159.923076923 126.112426036 c 0,138,139
 159.923076923 147.902097902 159.923076923 147.902097902 171 162 c 256,140,141
 183 175 183 175 200 175 c 128,-1,142
 217 175 217 175 228 162 c 256,143,144
 240 149 240 149 240 129 c 256,145,146
 240 110 240 110 228 97 c 256,147,148
 216 84 216 84 200 83 c 1,149,-1
 200 83 l 1,134,135
160 167 m 1,150,151
 143 167 143 167 132 180 c 256,152,153
 120 192 120 192 120 212 c 0,154,155
 120 230 120 230 132 244 c 256,156,157
 144 257 144 257 160 258 c 256,158,159
 177 258 177 258 188 244 c 0,160,161
 200 230 200 230 200 212 c 0,162,163
 200 193 200 193 188 180 c 128,-1,164
 176 167 176 167 160 167 c 1,165,-1
 160 167 l 1,150,151
160 333 m 1,166,167
 143 333 143 333 132 347 c 256,168,169
 120 360 120 360 120 379 c 128,-1,170
 120 398 120 398 132 412 c 256,171,172
 144 425 144 425 160 425 c 256,173,174
 177 425 177 425 188 412 c 0,175,176
 200 399 200 399 200 379 c 0,177,178
 200 361 200 361 188 347 c 0,179,180
 176 334 176 334 160 333 c 1,181,-1
 160 333 l 1,166,167
120 417 m 1,182,183
 103 417 103 417 91 430 c 0,184,185
 79.9230769231 442.923076923 79.9230769231 442.923076923 79.9230769231 459.25443787 c 0,186,187
 79.9230769231 480.902097902 79.9230769231 480.902097902 91 495 c 256,188,189
 103 508 103 508 120 508 c 128,-1,190
 137 508 137 508 148 495 c 256,191,192
 160 482 160 482 160 462 c 0,193,194
 160 444 160 444 148 430 c 0,195,196
 136 417 136 417 120 417 c 1,197,-1
 120 417 l 1,182,183
200 417 m 1,198,199
 183 417 183 417 171 430 c 0,200,201
 159.923076923 442.923076923 159.923076923 442.923076923 159.923076923 459.25443787 c 0,202,203
 159.923076923 480.902097902 159.923076923 480.902097902 171 495 c 256,204,205
 183 508 183 508 200 508 c 128,-1,206
 217 508 217 508 228 495 c 256,207,208
 240 482 240 482 240 462 c 0,209,210
 240 444 240 444 228 430 c 0,211,212
 216 417 216 417 200 417 c 1,213,-1
 200 417 l 1,198,199
160 500 m 1,214,215
 143 500 143 500 132 513 c 256,216,217
 120 526 120 526 120 546 c 256,218,219
 120 565 120 565 132 578 c 256,220,221
 144 591 144 591 160 592 c 256,222,223
 177 592 177 592 188 578 c 0,224,225
 200 565 200 565 200 546 c 256,226,227
 200 527 200 527 188 513 c 0,228,229
 176 500 176 500 160 500 c 1,230,-1
 160 500 l 1,214,215
EndSplineSet
Validated: 524293
EndChar

StartChar: less
Encoding: 60 60 28
Width: 360
VWidth: 833
Flags: W
LayerCount: 2
Fore
SplineSet
40 -167 m 1,0,1
 23 -167 23 -167 11 -153 c 0,2,3
 0 -140 0 -140 0 -121 c 0,4,5
 0 -103 0 -103 11 -88 c 0,6,7
 23 -75 23 -75 40 -75 c 256,8,9
 57 -75 57 -75 68 -88 c 256,10,11
 80 -101 80 -101 80 -121 c 0,12,13
 80 -140 80 -140 68 -153 c 256,14,15
 56 -166 56 -166 40 -167 c 1,16,-1
 40 -167 l 1,0,1
120 -167 m 1,17,18
 103 -167 103 -167 91 -153 c 256,19,20
 79.9230769231 -141 79.9230769231 -141 79.9230769231 -123.887573964 c 0,21,22
 79.9230769231 -103.104895105 79.9230769231 -103.104895105 91 -88 c 256,23,24
 103 -75 103 -75 120 -75 c 128,-1,25
 137 -75 137 -75 148 -88 c 256,26,27
 160 -101 160 -101 160 -121 c 0,28,29
 160 -140 160 -140 148 -153 c 256,30,31
 136 -166 136 -166 120 -167 c 1,32,-1
 120 -167 l 1,17,18
200 -167 m 1,33,34
 183 -167 183 -167 171 -153 c 256,35,36
 159.923076923 -141 159.923076923 -141 159.923076923 -123.887573964 c 0,37,38
 159.923076923 -103.104895105 159.923076923 -103.104895105 171 -88 c 256,39,40
 183 -75 183 -75 200 -75 c 128,-1,41
 217 -75 217 -75 228 -88 c 256,42,43
 240 -101 240 -101 240 -121 c 0,44,45
 240 -140 240 -140 228 -153 c 256,46,47
 216 -166 216 -166 200 -167 c 1,48,-1
 200 -167 l 1,33,34
280 -167 m 1,49,50
 263 -167 263 -167 251 -153 c 256,51,52
 239.923076923 -141 239.923076923 -141 239.923076923 -123.887573964 c 0,53,54
 239.923076923 -103.104895105 239.923076923 -103.104895105 251 -88 c 256,55,56
 263 -75 263 -75 280 -75 c 128,-1,57
 297 -75 297 -75 308 -88 c 256,58,59
 320 -101 320 -101 320 -121 c 0,60,61
 320 -140 320 -140 308 -153 c 256,62,63
 296 -166 296 -166 280 -167 c 1,64,-1
 280 -167 l 1,49,50
360 -167 m 1,65,66
 343 -167 343 -167 332 -153 c 256,67,68
 320 -140 320 -140 320 -121 c 0,69,70
 320 -103 320 -103 332 -88 c 256,71,72
 344 -75 344 -75 360 -75 c 256,73,74
 377 -75 377 -75 388 -88 c 0,75,76
 400 -101 400 -101 400 -121 c 0,77,78
 400 -140 400 -140 388 -153 c 128,-1,79
 376 -166 376 -166 360 -167 c 1,80,-1
 360 -167 l 1,65,66
320 0 m 1,81,82
 303 0 303 0 291 13 c 0,83,84
 279.923076923 25.9230769231 279.923076923 25.9230769231 279.923076923 43.1065088757 c 0,85,86
 279.923076923 64.9090909091 279.923076923 64.9090909091 291 78 c 256,87,88
 303 91 303 91 320 92 c 0,89,90
 337 92 337 92 348 78 c 256,91,92
 360 65 360 65 360 46 c 0,93,94
 360 28 360 28 348 13 c 0,95,96
 336 0 336 0 320 0 c 1,97,-1
 320 0 l 1,81,82
240 83 m 1,98,99
 223 83 223 83 211 97 c 0,100,101
 200 110 200 110 200 129 c 256,102,103
 200 148 200 148 211 162 c 0,104,105
 223 175 223 175 240 175 c 256,106,107
 257 175 257 175 268 162 c 256,108,109
 280 149 280 149 280 129 c 256,110,111
 280 110 280 110 268 97 c 256,112,113
 256 84 256 84 240 83 c 1,114,-1
 240 83 l 1,98,99
160 167 m 1,115,116
 143 167 143 167 132 180 c 256,117,118
 120 192 120 192 120 212 c 0,119,120
 120 230 120 230 132 244 c 256,121,122
 144 257 144 257 160 258 c 256,123,124
 177 258 177 258 188 244 c 0,125,126
 200 230 200 230 200 212 c 0,127,128
 200 193 200 193 188 180 c 128,-1,129
 176 167 176 167 160 167 c 1,130,-1
 160 167 l 1,115,116
80 250 m 1,131,132
 63 250 63 250 51 263 c 256,133,134
 39.9230769231 275 39.9230769231 275 39.9230769231 292.964497041 c 0,135,136
 39.9230769231 313.902097902 39.9230769231 313.902097902 51 328 c 256,137,138
 63 341 63 341 80 342 c 0,139,140
 97 342 97 342 108 328 c 256,141,142
 120 315 120 315 120 296 c 128,-1,143
 120 277 120 277 108 263 c 256,144,145
 96 250 96 250 80 250 c 1,146,-1
 80 250 l 1,131,132
160 333 m 1,147,148
 143 333 143 333 132 347 c 256,149,150
 120 360 120 360 120 379 c 128,-1,151
 120 398 120 398 132 412 c 256,152,153
 144 425 144 425 160 425 c 256,154,155
 177 425 177 425 188 412 c 0,156,157
 200 399 200 399 200 379 c 0,158,159
 200 361 200 361 188 347 c 0,160,161
 176 334 176 334 160 333 c 1,162,-1
 160 333 l 1,147,148
240 417 m 1,163,164
 223 417 223 417 211 430 c 0,165,166
 200 444 200 444 200 462 c 0,167,168
 200 481 200 481 211 495 c 0,169,170
 223 508 223 508 240 508 c 256,171,172
 257 508 257 508 268 495 c 256,173,174
 280 482 280 482 280 462 c 0,175,176
 280 444 280 444 268 430 c 0,177,178
 256 417 256 417 240 417 c 1,179,-1
 240 417 l 1,163,164
320 500 m 1,180,181
 303 500 303 500 291 513 c 256,182,183
 279.923076923 525 279.923076923 525 279.923076923 542.964497041 c 0,184,185
 279.923076923 564.909090909 279.923076923 564.909090909 291 578 c 256,186,187
 303 591 303 591 320 592 c 0,188,189
 337 592 337 592 348 578 c 256,190,191
 360 565 360 565 360 546 c 256,192,193
 360 527 360 527 348 513 c 256,194,195
 336 500 336 500 320 500 c 1,196,-1
 320 500 l 1,180,181
EndSplineSet
Validated: 524293
EndChar

StartChar: equal
Encoding: 61 61 29
Width: 360
VWidth: 833
Flags: W
LayerCount: 2
Fore
SplineSet
40 -167 m 1,0,1
 23 -167 23 -167 11 -153 c 0,2,3
 0 -140 0 -140 0 -121 c 0,4,5
 0 -103 0 -103 11 -88 c 0,6,7
 23 -75 23 -75 40 -75 c 256,8,9
 57 -75 57 -75 68 -88 c 256,10,11
 80 -101 80 -101 80 -121 c 0,12,13
 80 -140 80 -140 68 -153 c 256,14,15
 56 -166 56 -166 40 -167 c 1,16,-1
 40 -167 l 1,0,1
120 -167 m 1,17,18
 103 -167 103 -167 91 -153 c 256,19,20
 79.9230769231 -141 79.9230769231 -141 79.9230769231 -123.887573964 c 0,21,22
 79.9230769231 -103.104895105 79.9230769231 -103.104895105 91 -88 c 256,23,24
 103 -75 103 -75 120 -75 c 128,-1,25
 137 -75 137 -75 148 -88 c 256,26,27
 160 -101 160 -101 160 -121 c 0,28,29
 160 -140 160 -140 148 -153 c 256,30,31
 136 -166 136 -166 120 -167 c 1,32,-1
 120 -167 l 1,17,18
200 -167 m 1,33,34
 183 -167 183 -167 171 -153 c 256,35,36
 159.923076923 -141 159.923076923 -141 159.923076923 -123.887573964 c 0,37,38
 159.923076923 -103.104895105 159.923076923 -103.104895105 171 -88 c 256,39,40
 183 -75 183 -75 200 -75 c 128,-1,41
 217 -75 217 -75 228 -88 c 256,42,43
 240 -101 240 -101 240 -121 c 0,44,45
 240 -140 240 -140 228 -153 c 256,46,47
 216 -166 216 -166 200 -167 c 1,48,-1
 200 -167 l 1,33,34
280 -167 m 1,49,50
 263 -167 263 -167 251 -153 c 256,51,52
 239.923076923 -141 239.923076923 -141 239.923076923 -123.887573964 c 0,53,54
 239.923076923 -103.104895105 239.923076923 -103.104895105 251 -88 c 256,55,56
 263 -75 263 -75 280 -75 c 128,-1,57
 297 -75 297 -75 308 -88 c 256,58,59
 320 -101 320 -101 320 -121 c 0,60,61
 320 -140 320 -140 308 -153 c 256,62,63
 296 -166 296 -166 280 -167 c 1,64,-1
 280 -167 l 1,49,50
360 -167 m 1,65,66
 343 -167 343 -167 332 -153 c 256,67,68
 320 -140 320 -140 320 -121 c 0,69,70
 320 -103 320 -103 332 -88 c 256,71,72
 344 -75 344 -75 360 -75 c 256,73,74
 377 -75 377 -75 388 -88 c 0,75,76
 400 -101 400 -101 400 -121 c 0,77,78
 400 -140 400 -140 388 -153 c 128,-1,79
 376 -166 376 -166 360 -167 c 1,80,-1
 360 -167 l 1,65,66
40 167 m 1,81,82
 23 167 23 167 11 180 c 0,83,84
 0 192 0 192 0 212 c 0,85,86
 0 230 0 230 11 244 c 0,87,88
 23 257 23 257 40 258 c 256,89,90
 57 258 57 258 68 244 c 256,91,92
 80 230 80 230 80 212 c 0,93,94
 80 193 80 193 68 180 c 256,95,96
 56 167 56 167 40 167 c 1,97,-1
 40 167 l 1,81,82
120 167 m 1,98,99
 103 167 103 167 91 180 c 256,100,101
 79.9230769231 191.076923077 79.9230769231 191.076923077 79.9230769231 208.970414201 c 0,102,103
 79.9230769231 229.902097902 79.9230769231 229.902097902 91 244 c 256,104,105
 103 257 103 257 120 258 c 0,106,107
 137 258 137 258 148 244 c 256,108,109
 160 230 160 230 160 212 c 0,110,111
 160 193 160 193 148 180 c 256,112,113
 136 167 136 167 120 167 c 1,114,-1
 120 167 l 1,98,99
200 167 m 1,115,116
 183 167 183 167 171 180 c 256,117,118
 159.923076923 191.076923077 159.923076923 191.076923077 159.923076923 208.970414201 c 0,119,120
 159.923076923 229.902097902 159.923076923 229.902097902 171 244 c 256,121,122
 183 257 183 257 200 258 c 0,123,124
 217 258 217 258 228 244 c 256,125,126
 240 230 240 230 240 212 c 0,127,128
 240 193 240 193 228 180 c 256,129,130
 216 167 216 167 200 167 c 1,131,-1
 200 167 l 1,115,116
280 167 m 1,132,133
 263 167 263 167 251 180 c 256,134,135
 239.923076923 191.076923077 239.923076923 191.076923077 239.923076923 208.970414201 c 0,136,137
 239.923076923 229.902097902 239.923076923 229.902097902 251 244 c 256,138,139
 263 257 263 257 280 258 c 0,140,141
 297 258 297 258 308 244 c 256,142,143
 320 230 320 230 320 212 c 0,144,145
 320 193 320 193 308 180 c 256,146,147
 296 167 296 167 280 167 c 1,148,-1
 280 167 l 1,132,133
40 333 m 1,149,150
 23 333 23 333 11 347 c 0,151,152
 0 360 0 360 0 379 c 128,-1,153
 0 398 0 398 11 412 c 0,154,155
 23 425 23 425 40 425 c 256,156,157
 57 425 57 425 68 412 c 256,158,159
 80 399 80 399 80 379 c 0,160,161
 80 361 80 361 68 347 c 256,162,163
 56 334 56 334 40 333 c 1,164,-1
 40 333 l 1,149,150
120 333 m 1,165,166
 103 333 103 333 91 347 c 256,167,168
 79.9230769231 359 79.9230769231 359 79.9230769231 376.112426036 c 0,169,170
 79.9230769231 397.902097902 79.9230769231 397.902097902 91 412 c 256,171,172
 103 425 103 425 120 425 c 128,-1,173
 137 425 137 425 148 412 c 256,174,175
 160 399 160 399 160 379 c 0,176,177
 160 361 160 361 148 347 c 256,178,179
 136 334 136 334 120 333 c 1,180,-1
 120 333 l 1,165,166
200 333 m 1,181,182
 183 333 183 333 171 347 c 256,183,184
 159.923076923 359 159.923076923 359 159.923076923 376.112426036 c 0,185,186
 159.923076923 397.902097902 159.923076923 397.902097902 171 412 c 256,187,188
 183 425 183 425 200 425 c 128,-1,189
 217 425 217 425 228 412 c 256,190,191
 240 399 240 399 240 379 c 0,192,193
 240 361 240 361 228 347 c 256,194,195
 216 334 216 334 200 333 c 1,196,-1
 200 333 l 1,181,182
280 333 m 1,197,198
 263 333 263 333 251 347 c 256,199,200
 239.923076923 359 239.923076923 359 239.923076923 376.112426036 c 0,201,202
 239.923076923 397.902097902 239.923076923 397.902097902 251 412 c 256,203,204
 263 425 263 425 280 425 c 128,-1,205
 297 425 297 425 308 412 c 256,206,207
 320 399 320 399 320 379 c 0,208,209
 320 361 320 361 308 347 c 256,210,211
 296 334 296 334 280 333 c 1,212,-1
 280 333 l 1,197,198
EndSplineSet
Validated: 524293
EndChar

StartChar: greater
Encoding: 62 62 30
Width: 360
VWidth: 833
Flags: W
LayerCount: 2
Fore
SplineSet
40 -167 m 1,0,1
 23 -167 23 -167 11 -153 c 0,2,3
 0 -140 0 -140 0 -121 c 0,4,5
 0 -103 0 -103 11 -88 c 0,6,7
 23 -75 23 -75 40 -75 c 256,8,9
 57 -75 57 -75 68 -88 c 256,10,11
 80 -101 80 -101 80 -121 c 0,12,13
 80 -140 80 -140 68 -153 c 256,14,15
 56 -166 56 -166 40 -167 c 1,16,-1
 40 -167 l 1,0,1
120 -167 m 1,17,18
 103 -167 103 -167 91 -153 c 256,19,20
 79.9230769231 -141 79.9230769231 -141 79.9230769231 -123.887573964 c 0,21,22
 79.9230769231 -103.104895105 79.9230769231 -103.104895105 91 -88 c 256,23,24
 103 -75 103 -75 120 -75 c 128,-1,25
 137 -75 137 -75 148 -88 c 256,26,27
 160 -101 160 -101 160 -121 c 0,28,29
 160 -140 160 -140 148 -153 c 256,30,31
 136 -166 136 -166 120 -167 c 1,32,-1
 120 -167 l 1,17,18
200 -167 m 1,33,34
 183 -167 183 -167 171 -153 c 256,35,36
 159.923076923 -141 159.923076923 -141 159.923076923 -123.887573964 c 0,37,38
 159.923076923 -103.104895105 159.923076923 -103.104895105 171 -88 c 256,39,40
 183 -75 183 -75 200 -75 c 128,-1,41
 217 -75 217 -75 228 -88 c 256,42,43
 240 -101 240 -101 240 -121 c 0,44,45
 240 -140 240 -140 228 -153 c 256,46,47
 216 -166 216 -166 200 -167 c 1,48,-1
 200 -167 l 1,33,34
280 -167 m 1,49,50
 263 -167 263 -167 251 -153 c 256,51,52
 239.923076923 -141 239.923076923 -141 239.923076923 -123.887573964 c 0,53,54
 239.923076923 -103.104895105 239.923076923 -103.104895105 251 -88 c 256,55,56
 263 -75 263 -75 280 -75 c 128,-1,57
 297 -75 297 -75 308 -88 c 256,58,59
 320 -101 320 -101 320 -121 c 0,60,61
 320 -140 320 -140 308 -153 c 256,62,63
 296 -166 296 -166 280 -167 c 1,64,-1
 280 -167 l 1,49,50
360 -167 m 1,65,66
 343 -167 343 -167 332 -153 c 256,67,68
 320 -140 320 -140 320 -121 c 0,69,70
 320 -103 320 -103 332 -88 c 256,71,72
 344 -75 344 -75 360 -75 c 256,73,74
 377 -75 377 -75 388 -88 c 0,75,76
 400 -101 400 -101 400 -121 c 0,77,78
 400 -140 400 -140 388 -153 c 128,-1,79
 376 -166 376 -166 360 -167 c 1,80,-1
 360 -167 l 1,65,66
80 0 m 1,81,82
 63 0 63 0 51 13 c 0,83,84
 39.9230769231 25.9230769231 39.9230769231 25.9230769231 39.9230769231 43.1065088757 c 0,85,86
 39.9230769231 64.9090909091 39.9230769231 64.9090909091 51 78 c 256,87,88
 63 91 63 91 80 92 c 0,89,90
 97 92 97 92 108 78 c 256,91,92
 120 65 120 65 120 46 c 0,93,94
 120 28 120 28 108 13 c 0,95,96
 96 0 96 0 80 0 c 1,97,-1
 80 0 l 1,81,82
160 83 m 1,98,99
 143 83 143 83 132 97 c 256,100,101
 120 110 120 110 120 129 c 256,102,103
 120 148 120 148 132 162 c 256,104,105
 144 175 144 175 160 175 c 256,106,107
 177 175 177 175 188 162 c 0,108,109
 200 149 200 149 200 129 c 256,110,111
 200 110 200 110 188 97 c 128,-1,112
 176 84 176 84 160 83 c 1,113,-1
 160 83 l 1,98,99
240 167 m 1,114,115
 223 167 223 167 211 180 c 0,116,117
 200 192 200 192 200 212 c 0,118,119
 200 230 200 230 211 244 c 0,120,121
 223 257 223 257 240 258 c 256,122,123
 257 258 257 258 268 244 c 256,124,125
 280 230 280 230 280 212 c 0,126,127
 280 193 280 193 268 180 c 256,128,129
 256 167 256 167 240 167 c 1,130,-1
 240 167 l 1,114,115
320 250 m 1,131,132
 303 250 303 250 291 263 c 256,133,134
 279.923076923 275 279.923076923 275 279.923076923 292.964497041 c 0,135,136
 279.923076923 313.902097902 279.923076923 313.902097902 291 328 c 256,137,138
 303 341 303 341 320 342 c 0,139,140
 337 342 337 342 348 328 c 256,141,142
 360 315 360 315 360 296 c 128,-1,143
 360 277 360 277 348 263 c 256,144,145
 336 250 336 250 320 250 c 1,146,-1
 320 250 l 1,131,132
240 333 m 1,147,148
 223 333 223 333 211 347 c 0,149,150
 200 360 200 360 200 379 c 128,-1,151
 200 398 200 398 211 412 c 0,152,153
 223 425 223 425 240 425 c 256,154,155
 257 425 257 425 268 412 c 256,156,157
 280 399 280 399 280 379 c 0,158,159
 280 361 280 361 268 347 c 256,160,161
 256 334 256 334 240 333 c 1,162,-1
 240 333 l 1,147,148
160 417 m 1,163,164
 143 417 143 417 132 430 c 0,165,166
 120 444 120 444 120 462 c 0,167,168
 120 481 120 481 132 495 c 256,169,170
 144 508 144 508 160 508 c 256,171,172
 177 508 177 508 188 495 c 0,173,174
 200 482 200 482 200 462 c 0,175,176
 200 444 200 444 188 430 c 0,177,178
 176 417 176 417 160 417 c 1,179,-1
 160 417 l 1,163,164
80 500 m 1,180,181
 63 500 63 500 51 513 c 256,182,183
 39.9230769231 525 39.9230769231 525 39.9230769231 542.964497041 c 0,184,185
 39.9230769231 564.909090909 39.9230769231 564.909090909 51 578 c 256,186,187
 63 591 63 591 80 592 c 0,188,189
 97 592 97 592 108 578 c 256,190,191
 120 565 120 565 120 546 c 256,192,193
 120 527 120 527 108 513 c 256,194,195
 96 500 96 500 80 500 c 1,196,-1
 80 500 l 1,180,181
EndSplineSet
Validated: 524293
EndChar

StartChar: question
Encoding: 63 63 31
Width: 360
VWidth: 833
Flags: W
LayerCount: 2
Fore
SplineSet
40 -167 m 1,0,1
 23 -167 23 -167 11 -153 c 0,2,3
 0 -140 0 -140 0 -121 c 0,4,5
 0 -103 0 -103 11 -88 c 0,6,7
 23 -75 23 -75 40 -75 c 256,8,9
 57 -75 57 -75 68 -88 c 256,10,11
 80 -101 80 -101 80 -121 c 0,12,13
 80 -140 80 -140 68 -153 c 256,14,15
 56 -166 56 -166 40 -167 c 1,16,-1
 40 -167 l 1,0,1
120 -167 m 1,17,18
 103 -167 103 -167 91 -153 c 256,19,20
 79.9230769231 -141 79.9230769231 -141 79.9230769231 -123.887573964 c 0,21,22
 79.9230769231 -103.104895105 79.9230769231 -103.104895105 91 -88 c 256,23,24
 103 -75 103 -75 120 -75 c 128,-1,25
 137 -75 137 -75 148 -88 c 256,26,27
 160 -101 160 -101 160 -121 c 0,28,29
 160 -140 160 -140 148 -153 c 256,30,31
 136 -166 136 -166 120 -167 c 1,32,-1
 120 -167 l 1,17,18
200 -167 m 1,33,34
 183 -167 183 -167 171 -153 c 256,35,36
 159.923076923 -141 159.923076923 -141 159.923076923 -123.887573964 c 0,37,38
 159.923076923 -103.104895105 159.923076923 -103.104895105 171 -88 c 256,39,40
 183 -75 183 -75 200 -75 c 128,-1,41
 217 -75 217 -75 228 -88 c 256,42,43
 240 -101 240 -101 240 -121 c 0,44,45
 240 -140 240 -140 228 -153 c 256,46,47
 216 -166 216 -166 200 -167 c 1,48,-1
 200 -167 l 1,33,34
280 -167 m 1,49,50
 263 -167 263 -167 251 -153 c 256,51,52
 239.923076923 -141 239.923076923 -141 239.923076923 -123.887573964 c 0,53,54
 239.923076923 -103.104895105 239.923076923 -103.104895105 251 -88 c 256,55,56
 263 -75 263 -75 280 -75 c 128,-1,57
 297 -75 297 -75 308 -88 c 256,58,59
 320 -101 320 -101 320 -121 c 0,60,61
 320 -140 320 -140 308 -153 c 256,62,63
 296 -166 296 -166 280 -167 c 1,64,-1
 280 -167 l 1,49,50
360 -167 m 1,65,66
 343 -167 343 -167 332 -153 c 256,67,68
 320 -140 320 -140 320 -121 c 0,69,70
 320 -103 320 -103 332 -88 c 256,71,72
 344 -75 344 -75 360 -75 c 256,73,74
 377 -75 377 -75 388 -88 c 0,75,76
 400 -101 400 -101 400 -121 c 0,77,78
 400 -140 400 -140 388 -153 c 128,-1,79
 376 -166 376 -166 360 -167 c 1,80,-1
 360 -167 l 1,65,66
160 0 m 1,81,82
 143 0 143 0 132 13 c 0,83,84
 120 27 120 27 120 46 c 128,-1,85
 120 65 120 65 132 78 c 256,86,87
 144 91 144 91 160 92 c 256,88,89
 177 92 177 92 188 78 c 0,90,91
 200 65 200 65 200 46 c 0,92,93
 200 28 200 28 188 13 c 0,94,95
 176 0 176 0 160 0 c 1,96,-1
 160 0 l 1,81,82
160 167 m 1,97,98
 143 167 143 167 132 180 c 256,99,100
 120 192 120 192 120 212 c 0,101,102
 120 230 120 230 132 244 c 0,103,104
 137 250 137 250 143 254 c 1,105,-1
 143 254 l 1,106,107
 137 257 137 257 132 263 c 0,108,109
 120 276 120 276 120 296 c 0,110,111
 120 314 120 314 132 328 c 256,112,113
 144 341 144 341 160 342 c 256,114,115
 177 342 177 342 188 328 c 0,116,117
 200 315 200 315 200 296 c 128,-1,118
 200 277 200 277 188 263 c 0,119,120
 182 257 182 257 177 254 c 1,121,-1
 177 254 l 1,122,123
 183 251 183 251 188 244 c 0,124,125
 200 230 200 230 200 212 c 0,126,127
 200 193 200 193 188 180 c 128,-1,128
 176 167 176 167 160 167 c 1,129,-1
 160 167 l 1,97,98
240 250 m 1,130,131
 223 250 223 250 211 263 c 0,132,133
 200 276 200 276 200 296 c 0,134,135
 200 314 200 314 211 328 c 0,136,137
 223 341 223 341 240 342 c 256,138,139
 257 342 257 342 268 328 c 256,140,141
 280 315 280 315 280 296 c 128,-1,142
 280 277 280 277 268 263 c 256,143,144
 256 250 256 250 240 250 c 1,145,-1
 240 250 l 1,130,131
40 417 m 1,146,147
 23 417 23 417 11 430 c 0,148,149
 0 444 0 444 0 462 c 0,150,151
 0 481 0 481 11 495 c 0,152,153
 23 508 23 508 40 508 c 256,154,155
 57 508 57 508 68 495 c 256,156,157
 80 482 80 482 80 462 c 0,158,159
 80 444 80 444 68 430 c 0,160,161
 56 417 56 417 40 417 c 1,162,-1
 40 417 l 1,146,147
280 333 m 1,163,164
 263 333 263 333 251 347 c 256,165,166
 239.923076923 359 239.923076923 359 239.923076923 376.112426036 c 0,167,168
 239.923076923 397.902097902 239.923076923 397.902097902 251 412 c 0,169,170
 256 418 256 418 263 421 c 1,171,-1
 263 421 l 1,172,173
 257 424 257 424 251 430 c 0,174,175
 239.923076923 442.923076923 239.923076923 442.923076923 239.923076923 459.25443787 c 0,176,177
 239.923076923 480.902097902 239.923076923 480.902097902 251 495 c 256,178,179
 263 508 263 508 280 508 c 128,-1,180
 297 508 297 508 308 495 c 256,181,182
 320 482 320 482 320 462 c 0,183,184
 320 444 320 444 308 430 c 0,185,186
 302 424 302 424 297 421 c 1,187,-1
 297 421 l 1,188,189
 303 418 303 418 308 412 c 0,190,191
 320 399 320 399 320 379 c 0,192,193
 320 361 320 361 308 347 c 256,194,195
 296 334 296 334 280 333 c 1,196,-1
 280 333 l 1,163,164
80 500 m 1,197,198
 63 500 63 500 51 513 c 256,199,200
 39.9230769231 525 39.9230769231 525 39.9230769231 542.964497041 c 0,201,202
 39.9230769231 564.909090909 39.9230769231 564.909090909 51 578 c 256,203,204
 63 591 63 591 80 592 c 0,205,206
 97 592 97 592 108 578 c 256,207,208
 120 565 120 565 120 546 c 256,209,210
 120 527 120 527 108 513 c 256,211,212
 96 500 96 500 80 500 c 1,213,-1
 80 500 l 1,197,198
160 500 m 1,214,215
 143 500 143 500 132 513 c 256,216,217
 120 526 120 526 120 546 c 256,218,219
 120 565 120 565 132 578 c 256,220,221
 144 591 144 591 160 592 c 256,222,223
 177 592 177 592 188 578 c 0,224,225
 200 565 200 565 200 546 c 256,226,227
 200 527 200 527 188 513 c 0,228,229
 176 500 176 500 160 500 c 1,230,-1
 160 500 l 1,214,215
240 500 m 1,231,232
 223 500 223 500 211 513 c 0,233,234
 200 526 200 526 200 546 c 256,235,236
 200 565 200 565 211 578 c 0,237,238
 223 591 223 591 240 592 c 256,239,240
 257 592 257 592 268 578 c 256,241,242
 280 565 280 565 280 546 c 256,243,244
 280 527 280 527 268 513 c 256,245,246
 256 500 256 500 240 500 c 1,247,-1
 240 500 l 1,231,232
EndSplineSet
Validated: 524293
EndChar

StartChar: at
Encoding: 64 64 32
Width: 360
VWidth: 833
Flags: W
LayerCount: 2
Fore
SplineSet
40 -167 m 1,0,1
 23 -167 23 -167 11 -153 c 0,2,3
 0 -140 0 -140 0 -121 c 0,4,5
 0 -103 0 -103 11 -88 c 0,6,7
 23 -75 23 -75 40 -75 c 256,8,9
 57 -75 57 -75 68 -88 c 256,10,11
 80 -101 80 -101 80 -121 c 0,12,13
 80 -140 80 -140 68 -153 c 256,14,15
 56 -166 56 -166 40 -167 c 1,16,-1
 40 -167 l 1,0,1
120 -167 m 1,17,18
 103 -167 103 -167 91 -153 c 256,19,20
 79.9230769231 -141 79.9230769231 -141 79.9230769231 -123.887573964 c 0,21,22
 79.9230769231 -103.104895105 79.9230769231 -103.104895105 91 -88 c 256,23,24
 103 -75 103 -75 120 -75 c 128,-1,25
 137 -75 137 -75 148 -88 c 256,26,27
 160 -101 160 -101 160 -121 c 0,28,29
 160 -140 160 -140 148 -153 c 256,30,31
 136 -166 136 -166 120 -167 c 1,32,-1
 120 -167 l 1,17,18
200 -167 m 1,33,34
 183 -167 183 -167 171 -153 c 256,35,36
 159.923076923 -141 159.923076923 -141 159.923076923 -123.887573964 c 0,37,38
 159.923076923 -103.104895105 159.923076923 -103.104895105 171 -88 c 256,39,40
 183 -75 183 -75 200 -75 c 128,-1,41
 217 -75 217 -75 228 -88 c 256,42,43
 240 -101 240 -101 240 -121 c 0,44,45
 240 -140 240 -140 228 -153 c 256,46,47
 216 -166 216 -166 200 -167 c 1,48,-1
 200 -167 l 1,33,34
280 -167 m 1,49,50
 263 -167 263 -167 251 -153 c 256,51,52
 239.923076923 -141 239.923076923 -141 239.923076923 -123.887573964 c 0,53,54
 239.923076923 -103.104895105 239.923076923 -103.104895105 251 -88 c 256,55,56
 263 -75 263 -75 280 -75 c 128,-1,57
 297 -75 297 -75 308 -88 c 256,58,59
 320 -101 320 -101 320 -121 c 0,60,61
 320 -140 320 -140 308 -153 c 256,62,63
 296 -166 296 -166 280 -167 c 1,64,-1
 280 -167 l 1,49,50
360 -167 m 1,65,66
 343 -167 343 -167 332 -153 c 256,67,68
 320 -140 320 -140 320 -121 c 0,69,70
 320 -103 320 -103 332 -88 c 256,71,72
 344 -75 344 -75 360 -75 c 256,73,74
 377 -75 377 -75 388 -88 c 0,75,76
 400 -101 400 -101 400 -121 c 0,77,78
 400 -140 400 -140 388 -153 c 128,-1,79
 376 -166 376 -166 360 -167 c 1,80,-1
 360 -167 l 1,65,66
80 0 m 1,81,82
 63 0 63 0 51 13 c 0,83,84
 39.9230769231 25.9230769231 39.9230769231 25.9230769231 39.9230769231 43.1065088757 c 0,85,86
 39.9230769231 64.9090909091 39.9230769231 64.9090909091 51 78 c 256,87,88
 63 91 63 91 80 92 c 0,89,90
 97 92 97 92 108 78 c 256,91,92
 120 65 120 65 120 46 c 0,93,94
 120 28 120 28 108 13 c 0,95,96
 96 0 96 0 80 0 c 1,97,-1
 80 0 l 1,81,82
160 0 m 1,98,99
 143 0 143 0 132 13 c 0,100,101
 120 27 120 27 120 46 c 128,-1,102
 120 65 120 65 132 78 c 256,103,104
 144 91 144 91 160 92 c 256,105,106
 177 92 177 92 188 78 c 0,107,108
 200 65 200 65 200 46 c 0,109,110
 200 28 200 28 188 13 c 0,111,112
 176 0 176 0 160 0 c 1,113,-1
 160 0 l 1,98,99
240 0 m 1,114,115
 223 0 223 0 211 13 c 0,116,117
 200 27 200 27 200 46 c 128,-1,118
 200 65 200 65 211 78 c 0,119,120
 223 91 223 91 240 92 c 256,121,122
 257 92 257 92 268 78 c 256,123,124
 280 65 280 65 280 46 c 0,125,126
 280 28 280 28 268 13 c 0,127,128
 256 0 256 0 240 0 c 1,129,-1
 240 0 l 1,114,115
240 167 m 1,130,131
 223 167 223 167 211 180 c 0,132,133
 200 192 200 192 200 212 c 0,134,135
 200 230 200 230 211 244 c 0,136,137
 223 257 223 257 240 258 c 256,138,139
 257 258 257 258 268 244 c 256,140,141
 280 230 280 230 280 212 c 0,142,143
 280 193 280 193 268 180 c 256,144,145
 256 167 256 167 240 167 c 1,146,-1
 240 167 l 1,130,131
160 167 m 1,147,148
 143 167 143 167 132 180 c 256,149,150
 120 192 120 192 120 212 c 0,151,152
 120 230 120 230 132 244 c 0,153,154
 137 250 137 250 143 254 c 1,155,-1
 143 254 l 1,156,157
 137 257 137 257 132 263 c 0,158,159
 120 276 120 276 120 296 c 0,160,161
 120 314 120 314 132 328 c 256,162,163
 144 341 144 341 160 342 c 256,164,165
 177 342 177 342 188 328 c 0,166,167
 200 315 200 315 200 296 c 128,-1,168
 200 277 200 277 188 263 c 0,169,170
 182 257 182 257 177 254 c 1,171,-1
 177 254 l 1,172,173
 183 251 183 251 188 244 c 0,174,175
 200 230 200 230 200 212 c 0,176,177
 200 193 200 193 188 180 c 128,-1,178
 176 167 176 167 160 167 c 1,179,-1
 160 167 l 1,147,148
200 333 m 1,180,181
 183 333 183 333 171 347 c 256,182,183
 159.923076923 359 159.923076923 359 159.923076923 376.112426036 c 0,184,185
 159.923076923 397.902097902 159.923076923 397.902097902 171 412 c 256,186,187
 183 425 183 425 200 425 c 128,-1,188
 217 425 217 425 228 412 c 256,189,190
 240 399 240 399 240 379 c 0,191,192
 240 361 240 361 228 347 c 256,193,194
 216 334 216 334 200 333 c 1,195,-1
 200 333 l 1,180,181
40 83 m 1,196,197
 23 83 23 83 11 97 c 0,198,199
 0 110 0 110 0 129 c 256,200,201
 0 148 0 148 11 162 c 0,202,203
 17 168 17 168 22 171 c 1,204,-1
 22 171 l 1,205,206
 16 174 16 174 11 180 c 0,207,208
 0 192 0 192 0 212 c 0,209,210
 0 230 0 230 11 244 c 0,211,212
 17 250 17 250 22 254 c 1,213,-1
 22 254 l 1,214,215
 16 257 16 257 11 263 c 0,216,217
 0 276 0 276 0 296 c 0,218,219
 0 314 0 314 11 328 c 0,220,221
 17 334 17 334 22 338 c 1,222,-1
 22 338 l 1,223,224
 16 341 16 341 11 347 c 0,225,226
 0 360 0 360 0 379 c 128,-1,227
 0 398 0 398 11 412 c 0,228,229
 17 418 17 418 22 421 c 1,230,-1
 22 421 l 1,231,232
 16 424 16 424 11 430 c 0,233,234
 0 444 0 444 0 462 c 0,235,236
 0 481 0 481 11 495 c 0,237,238
 23 508 23 508 40 508 c 256,239,240
 57 508 57 508 68 495 c 256,241,242
 80 482 80 482 80 462 c 0,243,244
 80 444 80 444 68 430 c 0,245,246
 63 424 63 424 57 421 c 1,247,-1
 57 421 l 1,248,249
 63 418 63 418 68 412 c 0,250,251
 80 399 80 399 80 379 c 0,252,253
 80 361 80 361 68 347 c 0,254,255
 63 342 63 342 57 338 c 1,256,-1
 57 338 l 1,257,258
 63 335 63 335 68 328 c 0,259,260
 80 315 80 315 80 296 c 128,-1,261
 80 277 80 277 68 263 c 0,262,263
 63 257 63 257 57 254 c 1,264,-1
 57 254 l 1,265,266
 63 251 63 251 68 244 c 0,267,268
 80 230 80 230 80 212 c 0,269,270
 80 193 80 193 68 180 c 0,271,272
 63 174 63 174 57 171 c 1,273,-1
 57 171 l 1,274,275
 63 168 63 168 68 162 c 0,276,277
 80 149 80 149 80 129 c 256,278,279
 80 110 80 110 68 97 c 256,280,281
 56 84 56 84 40 83 c 1,282,-1
 40 83 l 1,196,197
280 250 m 1,283,284
 263 250 263 250 251 263 c 256,285,286
 239.923076923 275 239.923076923 275 239.923076923 292.964497041 c 0,287,288
 239.923076923 313.902097902 239.923076923 313.902097902 251 328 c 0,289,290
 256 334 256 334 263 338 c 1,291,-1
 263 338 l 1,292,293
 257 341 257 341 251 347 c 0,294,295
 239.923076923 359 239.923076923 359 239.923076923 376.112426036 c 0,296,297
 239.923076923 397.902097902 239.923076923 397.902097902 251 412 c 0,298,299
 256 418 256 418 263 421 c 1,300,-1
 263 421 l 1,301,302
 257 424 257 424 251 430 c 0,303,304
 239.923076923 442.923076923 239.923076923 442.923076923 239.923076923 459.25443787 c 0,305,306
 239.923076923 480.902097902 239.923076923 480.902097902 251 495 c 256,307,308
 263 508 263 508 280 508 c 128,-1,309
 297 508 297 508 308 495 c 256,310,311
 320 482 320 482 320 462 c 0,312,313
 320 444 320 444 308 430 c 0,314,315
 302 424 302 424 297 421 c 1,316,-1
 297 421 l 1,317,318
 303 418 303 418 308 412 c 0,319,320
 320 399 320 399 320 379 c 0,321,322
 320 361 320 361 308 347 c 0,323,324
 302 342 302 342 297 338 c 1,325,-1
 297 338 l 1,326,327
 303 335 303 335 308 328 c 0,328,329
 320 315 320 315 320 296 c 128,-1,330
 320 277 320 277 308 263 c 256,331,332
 296 250 296 250 280 250 c 1,333,-1
 280 250 l 1,283,284
80 500 m 1,334,335
 63 500 63 500 51 513 c 256,336,337
 39.9230769231 525 39.9230769231 525 39.9230769231 542.964497041 c 0,338,339
 39.9230769231 564.909090909 39.9230769231 564.909090909 51 578 c 256,340,341
 63 591 63 591 80 592 c 0,342,343
 97 592 97 592 108 578 c 256,344,345
 120 565 120 565 120 546 c 256,346,347
 120 527 120 527 108 513 c 256,348,349
 96 500 96 500 80 500 c 1,350,-1
 80 500 l 1,334,335
160 500 m 1,351,352
 143 500 143 500 132 513 c 256,353,354
 120 526 120 526 120 546 c 256,355,356
 120 565 120 565 132 578 c 256,357,358
 144 591 144 591 160 592 c 256,359,360
 177 592 177 592 188 578 c 0,361,362
 200 565 200 565 200 546 c 256,363,364
 200 527 200 527 188 513 c 0,365,366
 176 500 176 500 160 500 c 1,367,-1
 160 500 l 1,351,352
240 500 m 1,368,369
 223 500 223 500 211 513 c 0,370,371
 200 526 200 526 200 546 c 256,372,373
 200 565 200 565 211 578 c 0,374,375
 223 591 223 591 240 592 c 256,376,377
 257 592 257 592 268 578 c 256,378,379
 280 565 280 565 280 546 c 256,380,381
 280 527 280 527 268 513 c 256,382,383
 256 500 256 500 240 500 c 1,384,-1
 240 500 l 1,368,369
EndSplineSet
Validated: 524293
EndChar

